{
.appVersion = "1352";
DisplayStrings = (
Ha
);
copyright = "Copyright © 2020 by Kaja Slojewska. All rights reserved.";
date = "2020-10-20 16:29:51 +0000";
designer = "Kaja Slojewska";
designerURL = www.nomadfonts.com;
familyName = Larrikin;
featurePrefixes = (
{
automatic = 1;
code = "languagesystem DFLT dflt;\012";
name = Languagesystems;
}
);
features = (
{
automatic = 1;
code = "feature salt;\012feature ss01;\012";
name = aalt;
},
{
automatic = 1;
code = "sub w by w.ss01;\012";
name = salt;
},
{
automatic = 1;
code = "sub w by w.ss01;\012";
name = ss01;
}
);
fontMaster = (
{
alignmentZones = (
"{990, 15}",
"{900, 11}",
"{690, 16}",
"{0, -16}",
"{-280, -15}"
);
ascender = 990;
capHeight = 900;
custom = Display;
descender = -280;
guideLines = (
{
angle = 90;
position = "{873, 274}";
},
{
position = "{756, 465}";
},
{
angle = 259.6651;
position = "{691, 99}";
},
{
angle = 96.9739;
position = "{442, 190}";
},
{
angle = 90;
position = "{56, 162}";
}
);
horizontalStems = (
224,
217,
222,
211
);
iconName = Bold;
id = "051A6F9D-4810-4A2B-9A38-EB5980E546A5";
verticalStems = (
257,
170,
251,
193
);
visible = 1;
weightValue = 200;
xHeight = 690;
}
);
glyphs = (
{
color = 4;
glyphname = A;
lastChange = "2020-10-20 19:14:15 +0000";
layers = (
{
anchors = (
{
name = ogonek;
position = "{911, 0}";
},
{
name = top;
position = "{474, 900}";
}
);
layerId = "051A6F9D-4810-4A2B-9A38-EB5980E546A5";
leftMetricsKey = "=19";
rightMetricsKey = "=19";
paths = (
{
closed = 1;
nodes = (
"848 171 LINE",
"756 414 OFFCURVE",
"665 657 OFFCURVE",
"588 900 CURVE",
"360 900 LINE",
"281 664 OFFCURVE",
"186 427 OFFCURVE",
"91 191 CURVE",
"249 181 LINE",
"302 359 OFFCURVE",
"364 534 OFFCURVE",
"436 702 CURVE",
"396 704 LINE",
"464 522 OFFCURVE",
"524 343 OFFCURVE",
"580 171 CURVE"
);
},
{
closed = 1;
nodes = (
"339 0 LINE",
"339 213 LINE",
"251 220 LINE",
"19 210 LINE",
"19 0 LINE"
);
},
{
closed = 1;
nodes = (
"911 0 LINE",
"911 213 LINE",
"623 220 LINE",
"493 210 LINE",
"493 0 LINE"
);
},
{
closed = 1;
nodes = (
"639 266 LINE",
"639 436 LINE",
"254 436 LINE",
"254 266 LINE"
);
}
);
width = 930;
}
);
leftKerningGroup = A;
rightKerningGroup = A;
unicode = 0041;
},
{
color = 6;
glyphname = AE;
lastChange = "2020-10-20 19:13:55 +0000";
layers = (
{
layerId = "051A6F9D-4810-4A2B-9A38-EB5980E546A5";
paths = (
{
closed = 1;
nodes = (
"1180 0 LINE",
"1180 299 LINE",
"1057 299 LINE",
"1027 234 OFFCURVE",
"956 225 OFFCURVE",
"918 225 CURVE SMOOTH",
"824 225 LINE",
"822 279 OFFCURVE",
"820 326 OFFCURVE",
"820 369 CURVE",
"906 370 OFFCURVE",
"993 368 OFFCURVE",
"1083 362 CURVE",
"1083 527 LINE",
"993 521 OFFCURVE",
"906 519 OFFCURVE",
"819 520 CURVE",
"819 573 OFFCURVE",
"820 623 OFFCURVE",
"822 674 CURVE",
"896 674 LINE SMOOTH",
"934 674 OFFCURVE",
"1005 662 OFFCURVE",
"1035 597 CURVE",
"1158 597 LINE",
"1158 900 LINE",
"322 900 LINE",
"322 690 LINE",
"421 684 LINE",
"588 684 LINE",
"594 580 OFFCURVE",
"595 506 OFFCURVE",
"595 450 CURVE SMOOTH",
"595 352 OFFCURVE",
"595 284 OFFCURVE",
"591 212 CURVE",
"489 210 LINE",
"489 0 LINE"
);
},
{
closed = 1;
nodes = (
"339 0 LINE",
"339 213 LINE",
"251 220 LINE",
"19 210 LINE",
"19 0 LINE"
);
},
{
closed = 1;
nodes = (
"639 266 LINE",
"639 436 LINE",
"324 436 LINE",
"254 266 LINE"
);
},
{
closed = 1;
nodes = (
"395 411 OFFCURVE",
"552 640 OFFCURVE",
"718 870 CURVE",
"558 870 LINE",
"406 644 OFFCURVE",
"243 417 OFFCURVE",
"71 191 CURVE",
"249 181 LINE"
);
}
);
width = 1213;
}
);
leftMetricsKey = A;
rightMetricsKey = E;
unicode = 00C6;
},
{
color = 4;
glyphname = B;
lastChange = "2020-04-16 19:46:57 +0000";
layers = (
{
layerId = "051A6F9D-4810-4A2B-9A38-EB5980E546A5";
rightMetricsKey = "=30";
paths = (
{
closed = 1;
nodes = (
"739 -15 OFFCURVE",
"867 94 OFFCURVE",
"867 258 CURVE SMOOTH",
"867 337 OFFCURVE",
"831 468 OFFCURVE",
"624 481 CURVE",
"626 462 LINE",
"792 479 OFFCURVE",
"827 586 OFFCURVE",
"827 658 CURVE SMOOTH",
"827 805 OFFCURVE",
"700 910 OFFCURVE",
"505 910 CURVE SMOOTH",
"357 910 OFFCURVE",
"303 900 OFFCURVE",
"215 865 CURVE",
"283 584 LINE",
"325 622 OFFCURVE",
"395 668 OFFCURVE",
"497 668 CURVE SMOOTH",
"568 668 OFFCURVE",
"616 638 OFFCURVE",
"616 592 CURVE SMOOTH",
"616 538 OFFCURVE",
"583 513 OFFCURVE",
"523 513 CURVE SMOOTH",
"328 513 LINE",
"328 389 LINE",
"533 389 LINE SMOOTH",
"606 389 OFFCURVE",
"646 364 OFFCURVE",
"646 306 CURVE SMOOTH",
"646 253 OFFCURVE",
"597 224 OFFCURVE",
"510 224 CURVE SMOOTH",
"439 224 OFFCURVE",
"367 244 OFFCURVE",
"313 316 CURVE",
"192 38 LINE",
"244 6 OFFCURVE",
"360 -15 OFFCURVE",
"493 -15 CURVE SMOOTH"
);
},
{
closed = 1;
nodes = (
"474 0 LINE",
"474 193 LINE",
"359 200 LINE",
"39 210 LINE",
"39 0 LINE"
);
},
{
closed = 1;
nodes = (
"392 0 LINE",
"371 207 OFFCURVE",
"369 342 OFFCURVE",
"369 451 CURVE SMOOTH",
"369 620 OFFCURVE",
"369 728 OFFCURVE",
"392 900 CURVE",
"122 900 LINE",
"143 673 OFFCURVE",
"145 539 OFFCURVE",
"145 450 CURVE SMOOTH",
"145 270 OFFCURVE",
"145 172 OFFCURVE",
"122 0 CURVE"
);
},
{
closed = 1;
nodes = (
"474 710 LINE",
"474 900 LINE",
"39 900 LINE",
"39 690 LINE",
"154 683 LINE"
);
}
);
width = 897;
},
{
associatedMasterId = "051A6F9D-4810-4A2B-9A38-EB5980E546A5";
layerId = "945B3FA7-2751-41E8-B8FB-A2C6699A1751";
leftMetricsKey = "=N";
rightMetricsKey = "=30";
name = "Apr 8 20, 15:26";
paths = (
{
closed = 1;
nodes = (
"767 -8 OFFCURVE",
"931 182 OFFCURVE",
"931 464 CURVE SMOOTH",
"931 680 OFFCURVE",
"833 910 OFFCURVE",
"538 910 CURVE SMOOTH",
"431 910 OFFCURVE",
"318 900 OFFCURVE",
"228 861 CURVE",
"352 640 LINE",
"373 648 OFFCURVE",
"477 668 OFFCURVE",
"538 668 CURVE SMOOTH",
"647 668 OFFCURVE",
"714 588 OFFCURVE",
"714 455 CURVE SMOOTH",
"714 328 OFFCURVE",
"642 235 OFFCURVE",
"533 235 CURVE SMOOTH",
"465 235 OFFCURVE",
"352 271 OFFCURVE",
"326 286 CURVE",
"216 39 LINE",
"269 5 OFFCURVE",
"444 -8 OFFCURVE",
"511 -8 CURVE SMOOTH"
);
},
{
closed = 1;
nodes = (
"497 0 LINE",
"497 193 LINE",
"382 220 LINE",
"62 210 LINE",
"62 0 LINE"
);
},
{
closed = 1;
nodes = (
"415 0 LINE",
"394 207 OFFCURVE",
"392 342 OFFCURVE",
"392 451 CURVE SMOOTH",
"392 620 OFFCURVE",
"392 728 OFFCURVE",
"415 900 CURVE",
"145 900 LINE",
"166 673 OFFCURVE",
"168 539 OFFCURVE",
"168 450 CURVE SMOOTH",
"168 270 OFFCURVE",
"168 172 OFFCURVE",
"145 0 CURVE"
);
},
{
closed = 1;
nodes = (
"497 710 LINE",
"497 900 LINE",
"62 900 LINE",
"62 690 LINE",
"177 683 LINE"
);
}
);
visible = 1;
width = 960;
}
);
leftKerningGroup = I;
leftMetricsKey = I;
rightKerningGroup = B;
unicode = 0042;
},
{
color = 4;
glyphname = C;
lastChange = "2020-10-20 19:09:06 +0000";
layers = (
{
anchors = (
{
name = bottom;
position = "{445, 0}";
},
{
name = top;
position = "{494, 900}";
}
);
layerId = "051A6F9D-4810-4A2B-9A38-EB5980E546A5";
leftMetricsKey = "=O";
rightMetricsKey = "=37";
paths = (
{
closed = 1;
nodes = (
"637 -16 OFFCURVE",
"760 93 OFFCURVE",
"813 220 CURVE",
"672 306 LINE",
"616 265 OFFCURVE",
"536 243 OFFCURVE",
"472 243 CURVE SMOOTH",
"354 243 OFFCURVE",
"264 317 OFFCURVE",
"264 438 CURVE SMOOTH",
"264 555 OFFCURVE",
"348 654 OFFCURVE",
"462 654 CURVE SMOOTH",
"511 654 OFFCURVE",
"545 640 OFFCURVE",
"572 617 CURVE",
"781 617 LINE",
"781 828 LINE",
"731 872 OFFCURVE",
"615 911 OFFCURVE",
"507 911 CURVE SMOOTH",
"245 911 OFFCURVE",
"43 721 OFFCURVE",
"43 415 CURVE SMOOTH",
"43 193 OFFCURVE",
"150 -16 OFFCURVE",
"433 -16 CURVE SMOOTH"
);
}
);
width = 850;
},
{
anchors = (
{
name = top;
position = "{491, 900}";
}
);
associatedMasterId = "051A6F9D-4810-4A2B-9A38-EB5980E546A5";
layerId = "EBA7BC25-CEBD-4F9B-B4FD-F2888B871BFA";
leftMetricsKey = "=O";
rightMetricsKey = "=50";
name = "Apr 8 20, 17:30";
paths = (
{
closed = 1;
nodes = (
"680 -15 OFFCURVE",
"864 182 OFFCURVE",
"864 464 CURVE SMOOTH",
"864 667 OFFCURVE",
"758 910 OFFCURVE",
"491 910 CURVE SMOOTH",
"250 910 OFFCURVE",
"40 722 OFFCURVE",
"40 413 CURVE SMOOTH",
"40 193 OFFCURVE",
"155 -15 OFFCURVE",
"410 -15 CURVE SMOOTH"
);
},
{
closed = 1;
nodes = (
"357 243 OFFCURVE",
"262 317 OFFCURVE",
"262 442 CURVE SMOOTH",
"262 557 OFFCURVE",
"344 653 OFFCURVE",
"458 653 CURVE SMOOTH",
"559 653 OFFCURVE",
"642 581 OFFCURVE",
"642 454 CURVE SMOOTH",
"642 339 OFFCURVE",
"560 243 OFFCURVE",
"447 243 CURVE SMOOTH"
);
}
);
visible = 1;
width = 860;
}
);
leftKerningGroup = O;
leftMetricsKey = O;
rightKerningGroup = C;
unicode = 0043;
},
{
color = 4;
glyphname = D;
lastChange = "2020-04-16 19:46:57 +0000";
layers = (
{
layerId = "051A6F9D-4810-4A2B-9A38-EB5980E546A5";
rightMetricsKey = "=O";
paths = (
{
closed = 1;
nodes = (
"744 -16 OFFCURVE",
"908 182 OFFCURVE",
"908 464 CURVE SMOOTH",
"908 680 OFFCURVE",
"810 910 OFFCURVE",
"515 910 CURVE SMOOTH",
"408 910 OFFCURVE",
"295 900 OFFCURVE",
"205 861 CURVE",
"329 640 LINE",
"350 648 OFFCURVE",
"454 668 OFFCURVE",
"515 668 CURVE SMOOTH",
"624 668 OFFCURVE",
"691 588 OFFCURVE",
"691 455 CURVE SMOOTH",
"691 328 OFFCURVE",
"619 235 OFFCURVE",
"510 235 CURVE SMOOTH",
"442 235 OFFCURVE",
"329 271 OFFCURVE",
"303 286 CURVE",
"193 39 LINE",
"246 5 OFFCURVE",
"411 -16 OFFCURVE",
"488 -16 CURVE SMOOTH"
);
},
{
closed = 1;
nodes = (
"474 0 LINE",
"474 193 LINE",
"359 220 LINE",
"39 210 LINE",
"39 0 LINE"
);
},
{
closed = 1;
nodes = (
"392 0 LINE",
"371 207 OFFCURVE",
"369 342 OFFCURVE",
"369 451 CURVE SMOOTH",
"369 620 OFFCURVE",
"369 728 OFFCURVE",
"392 900 CURVE",
"122 900 LINE",
"143 673 OFFCURVE",
"145 539 OFFCURVE",
"145 450 CURVE SMOOTH",
"145 270 OFFCURVE",
"145 172 OFFCURVE",
"122 0 CURVE"
);
},
{
closed = 1;
nodes = (
"474 710 LINE",
"474 900 LINE",
"39 900 LINE",
"39 690 LINE",
"154 683 LINE"
);
}
);
width = 951;
},
{
associatedMasterId = "051A6F9D-4810-4A2B-9A38-EB5980E546A5";
layerId = "E0A59793-CA0E-4C81-8786-57B62F54BC34";
leftMetricsKey = "=N";
rightMetricsKey = "=O";
name = "Apr 8 20, 17:24";
paths = (
{
closed = 1;
nodes = (
"753 -8 OFFCURVE",
"937 182 OFFCURVE",
"937 464 CURVE SMOOTH",
"937 680 OFFCURVE",
"831 910 OFFCURVE",
"572 910 CURVE SMOOTH",
"529 910 OFFCURVE",
"421 910 OFFCURVE",
"323 871 CURVE",
"337 650 LINE",
"358 658 OFFCURVE",
"459 678 OFFCURVE",
"539 678 CURVE SMOOTH",
"626 678 OFFCURVE",
"699 606 OFFCURVE",
"699 449 CURVE SMOOTH",
"699 320 OFFCURVE",
"627 224 OFFCURVE",
"528 224 CURVE SMOOTH",
"470 224 OFFCURVE",
"337 260 OFFCURVE",
"311 275 CURVE",
"311 39 LINE",
"364 5 OFFCURVE",
"430 -8 OFFCURVE",
"491 -8 CURVE SMOOTH"
);
},
{
closed = 1;
nodes = (
"483 0 LINE",
"483 203 LINE",
"367 210 LINE",
"32 200 LINE",
"32 0 LINE"
);
},
{
closed = 1;
nodes = (
"400 0 LINE",
"379 207 OFFCURVE",
"377 342 OFFCURVE",
"377 451 CURVE SMOOTH",
"377 620 OFFCURVE",
"377 728 OFFCURVE",
"400 900 CURVE",
"114 900 LINE",
"135 693 OFFCURVE",
"137 539 OFFCURVE",
"137 450 CURVE SMOOTH",
"137 270 OFFCURVE",
"137 172 OFFCURVE",
"114 0 CURVE"
);
},
{
closed = 1;
nodes = (
"481 700 LINE",
"481 900 LINE",
"30 900 LINE",
"30 700 LINE",
"146 693 LINE"
);
}
);
width = 982;
},
{
associatedMasterId = "051A6F9D-4810-4A2B-9A38-EB5980E546A5";
layerId = "0EEAA48B-2A00-4F50-82B5-8C1722F396A8";
leftMetricsKey = "=N";
rightMetricsKey = "=O";
name = "Apr 8 20, 17:25";
paths = (
{
closed = 1;
nodes = (
"756 281 OFFCURVE",
"851 420 OFFCURVE",
"851 582 CURVE SMOOTH",
"851 760 OFFCURVE",
"756 910 OFFCURVE",
"505 910 CURVE SMOOTH",
"318 910 OFFCURVE",
"231 878 OFFCURVE",
"201 853 CURVE",
"296 581 LINE",
"338 619 OFFCURVE",
"408 668 OFFCURVE",
"525 668 CURVE SMOOTH",
"596 668 OFFCURVE",
"642 640 OFFCURVE",
"642 579 CURVE SMOOTH",
"642 523 OFFCURVE",
"598 495 OFFCURVE",
"535 495 CURVE SMOOTH",
"428 495 OFFCURVE",
"338 495 OFFCURVE",
"296 495 CURVE",
"231 509 LINE",
"275 398 OFFCURVE",
"340 281 OFFCURVE",
"547 281 CURVE SMOOTH"
);
},
{
closed = 1;
nodes = (
"487 0 LINE",
"487 213 LINE",
"372 220 LINE",
"52 210 LINE",
"52 0 LINE"
);
},
{
closed = 1;
nodes = (
"405 0 LINE",
"384 227 OFFCURVE",
"382 322 OFFCURVE",
"382 431 CURVE SMOOTH",
"382 617 OFFCURVE",
"382 728 OFFCURVE",
"405 900 CURVE",
"135 900 LINE",
"156 693 OFFCURVE",
"158 539 OFFCURVE",
"158 450 CURVE SMOOTH",
"158 270 OFFCURVE",
"158 192 OFFCURVE",
"135 0 CURVE"
);
},
{
closed = 1;
nodes = (
"487 710 LINE",
"487 900 LINE",
"52 900 LINE",
"52 690 LINE",
"167 683 LINE"
);
}
);
visible = 1;
width = 982;
}
);
leftKerningGroup = I;
leftMetricsKey = I;
rightKerningGroup = O;
rightMetricsKey = O;
unicode = 0044;
},
{
color = 4;
glyphname = E;
lastChange = "2020-10-20 16:39:31 +0000";
layers = (
{
anchors = (
{
name = ogonek;
position = "{730, 0}";
},
{
name = top;
position = "{396, 900}";
}
);
layerId = "051A6F9D-4810-4A2B-9A38-EB5980E546A5";
rightMetricsKey = "=33";
paths = (
{
closed = 1;
nodes = (
"730 0 LINE",
"730 299 LINE",
"607 299 LINE",
"577 234 OFFCURVE",
"506 225 OFFCURVE",
"468 225 CURVE SMOOTH",
"203 225 LINE",
"203 0 LINE"
);
},
{
closed = 1;
nodes = (
"708 597 LINE",
"708 900 LINE",
"193 900 LINE",
"193 674 LINE",
"446 674 LINE SMOOTH",
"484 674 OFFCURVE",
"555 662 OFFCURVE",
"585 597 CURVE"
);
},
{
closed = 1;
nodes = (
"320 372 OFFCURVE",
"471 372 OFFCURVE",
"633 362 CURVE",
"633 527 LINE",
"471 517 OFFCURVE",
"320 517 OFFCURVE",
"158 527 CURVE",
"158 362 LINE"
);
},
{
closed = 1;
nodes = (
"474 0 LINE",
"474 190 LINE",
"359 217 LINE",
"39 210 LINE",
"39 0 LINE"
);
},
{
closed = 1;
nodes = (
"392 0 LINE",
"371 204 OFFCURVE",
"369 342 OFFCURVE",
"369 451 CURVE SMOOTH",
"369 610 OFFCURVE",
"369 728 OFFCURVE",
"392 900 CURVE",
"122 900 LINE",
"143 673 OFFCURVE",
"145 539 OFFCURVE",
"145 450 CURVE SMOOTH",
"145 270 OFFCURVE",
"145 192 OFFCURVE",
"122 0 CURVE"
);
},
{
closed = 1;
nodes = (
"474 712 LINE",
"474 900 LINE",
"39 900 LINE",
"39 690 LINE",
"154 683 LINE"
);
}
);
width = 763;
},
{
anchors = (
{
name = ogonek;
position = "{741, 0}";
}
);
associatedMasterId = "051A6F9D-4810-4A2B-9A38-EB5980E546A5";
layerId = "9689BC02-27C2-4413-BF03-6AC6C969F8AA";
leftMetricsKey = "=N";
rightMetricsKey = "=50";
name = "Apr 8 20, 17:22";
paths = (
{
closed = 1;
nodes = (
"400 0 LINE",
"379 213 OFFCURVE",
"381 342 OFFCURVE",
"381 451 CURVE SMOOTH",
"381 610 OFFCURVE",
"381 728 OFFCURVE",
"394 900 CURVE",
"114 900 LINE",
"135 693 OFFCURVE",
"137 539 OFFCURVE",
"137 450 CURVE SMOOTH",
"137 270 OFFCURVE",
"137 172 OFFCURVE",
"114 0 CURVE"
);
},
{
closed = 1;
nodes = (
"483 0 LINE",
"483 225 LINE",
"367 196 LINE",
"32 200 LINE",
"32 0 LINE"
);
},
{
closed = 1;
nodes = (
"741 0 LINE",
"741 302 LINE",
"628 302 LINE",
"598 237 OFFCURVE",
"527 230 OFFCURVE",
"479 229 CURVE SMOOTH",
"214 226 LINE",
"214 0 LINE"
);
},
{
closed = 1;
nodes = (
"459 673 LINE",
"459 900 LINE",
"30 900 LINE",
"30 700 LINE",
"146 693 LINE"
);
},
{
closed = 1;
nodes = (
"719 595 LINE",
"719 900 LINE",
"204 900 LINE",
"204 673 LINE",
"457 670 LINE SMOOTH",
"505 669 OFFCURVE",
"576 660 OFFCURVE",
"606 595 CURVE"
);
},
{
closed = 1;
nodes = (
"331 362 OFFCURVE",
"482 362 OFFCURVE",
"644 352 CURVE",
"644 537 LINE",
"482 527 OFFCURVE",
"331 527 OFFCURVE",
"169 537 CURVE",
"169 352 LINE"
);
}
);
visible = 1;
width = 791;
}
);
leftKerningGroup = I;
leftMetricsKey = I;
rightKerningGroup = E;
unicode = 0045;
},
{
color = 4;
glyphname = F;
lastChange = "2020-04-16 21:32:22 +0000";
layers = (
{
layerId = "051A6F9D-4810-4A2B-9A38-EB5980E546A5";
rightMetricsKey = "=30";
paths = (
{
closed = 1;
nodes = (
"705 598 LINE",
"705 900 LINE",
"193 900 LINE",
"193 676 LINE",
"443 673 LINE SMOOTH",
"491 672 OFFCURVE",
"562 663 OFFCURVE",
"592 598 CURVE"
);
},
{
closed = 1;
nodes = (
"320 352 OFFCURVE",
"468 352 OFFCURVE",
"630 342 CURVE",
"630 507 LINE",
"468 497 OFFCURVE",
"320 497 OFFCURVE",
"158 507 CURVE",
"158 342 LINE"
);
},
{
closed = 1;
nodes = (
"524 0 LINE",
"524 213 LINE",
"359 220 LINE",
"39 210 LINE",
"39 0 LINE"
);
},
{
closed = 1;
nodes = (
"392 0 LINE",
"371 227 OFFCURVE",
"369 342 OFFCURVE",
"369 451 CURVE SMOOTH",
"369 613 OFFCURVE",
"369 731 OFFCURVE",
"392 900 CURVE",
"122 900 LINE",
"143 673 OFFCURVE",
"145 539 OFFCURVE",
"145 450 CURVE SMOOTH",
"145 270 OFFCURVE",
"145 172 OFFCURVE",
"122 0 CURVE"
);
},
{
closed = 1;
nodes = (
"471 713 LINE",
"471 900 LINE",
"39 900 LINE",
"39 690 LINE",
"154 683 LINE"
);
}
);
width = 735;
},
{
associatedMasterId = "051A6F9D-4810-4A2B-9A38-EB5980E546A5";
layerId = "38CE0C09-222F-4C27-A256-D7DEEB13B5CB";
leftMetricsKey = "=30";
rightMetricsKey = "=30";
name = "Apr 8 20, 17:22";
paths = (
{
closed = 1;
nodes = (
"400 0 LINE",
"379 207 OFFCURVE",
"381 342 OFFCURVE",
"381 451 CURVE SMOOTH",
"381 610 OFFCURVE",
"381 728 OFFCURVE",
"394 900 CURVE",
"114 900 LINE",
"135 693 OFFCURVE",
"137 539 OFFCURVE",
"137 450 CURVE SMOOTH",
"137 270 OFFCURVE",
"137 172 OFFCURVE",
"114 0 CURVE"
);
},
{
closed = 1;
nodes = (
"471 700 LINE",
"471 900 LINE",
"30 900 LINE",
"30 700 LINE",
"146 693 LINE"
);
},
{
closed = 1;
nodes = (
"731 624 LINE",
"731 900 LINE",
"204 900 LINE",
"204 700 LINE",
"469 697 LINE SMOOTH",
"517 696 OFFCURVE",
"588 689 OFFCURVE",
"618 624 CURVE"
);
},
{
closed = 1;
nodes = (
"483 0 LINE",
"483 203 LINE",
"367 210 LINE",
"32 200 LINE",
"32 0 LINE"
);
},
{
closed = 1;
nodes = (
"331 355 OFFCURVE",
"482 355 OFFCURVE",
"644 345 CURVE",
"644 530 LINE",
"482 520 OFFCURVE",
"331 520 OFFCURVE",
"169 530 CURVE",
"169 345 LINE"
);
}
);
visible = 1;
width = 761;
}
);
leftKerningGroup = I;
leftMetricsKey = I;
rightKerningGroup = F;
unicode = 0046;
},
{
color = 4;
glyphname = G;
lastChange = "2020-04-16 22:03:56 +0000";
layers = (
{
layerId = "051A6F9D-4810-4A2B-9A38-EB5980E546A5";
paths = (
{
closed = 1;
nodes = (
"631 -16 OFFCURVE",
"755 66 OFFCURVE",
"802 198 CURVE",
"802 212 OFFCURVE",
"803 267 OFFCURVE",
"806 331 CURVE",
"863 333 LINE",
"863 516 LINE",
"495 516 LINE",
"495 333 LINE",
"604 327 LINE",
"607 267 LINE",
"586 257 OFFCURVE",
"540 250 OFFCURVE",
"482 250 CURVE SMOOTH",
"354 250 OFFCURVE",
"264 324 OFFCURVE",
"264 438 CURVE SMOOTH",
"264 555 OFFCURVE",
"348 654 OFFCURVE",
"472 654 CURVE SMOOTH",
"531 654 OFFCURVE",
"565 640 OFFCURVE",
"592 617 CURVE",
"801 617 LINE",
"801 828 LINE",
"751 872 OFFCURVE",
"635 911 OFFCURVE",
"517 911 CURVE SMOOTH",
"245 911 OFFCURVE",
"43 721 OFFCURVE",
"43 415 CURVE SMOOTH",
"43 193 OFFCURVE",
"150 -16 OFFCURVE",
"438 -16 CURVE SMOOTH"
);
}
);
width = 900;
},
{
associatedMasterId = "051A6F9D-4810-4A2B-9A38-EB5980E546A5";
layerId = "21C2A8FA-0FCA-43AB-BE5C-F8C4B859BB74";
leftMetricsKey = "=30";
rightMetricsKey = "=30";
name = "Apr 8 20, 17:41";
paths = (
{
closed = 1;
nodes = (
"657 -15 OFFCURVE",
"780 93 OFFCURVE",
"833 220 CURVE",
"692 306 LINE",
"636 265 OFFCURVE",
"556 243 OFFCURVE",
"492 243 CURVE SMOOTH",
"374 243 OFFCURVE",
"284 317 OFFCURVE",
"284 438 CURVE SMOOTH",
"284 555 OFFCURVE",
"368 654 OFFCURVE",
"482 654 CURVE SMOOTH",
"531 654 OFFCURVE",
"565 640 OFFCURVE",
"592 617 CURVE",
"801 617 LINE",
"801 828 LINE",
"751 872 OFFCURVE",
"635 910 OFFCURVE",
"527 910 CURVE SMOOTH",
"265 910 OFFCURVE",
"63 721 OFFCURVE",
"63 415 CURVE SMOOTH",
"63 193 OFFCURVE",
"170 -15 OFFCURVE",
"453 -15 CURVE SMOOTH"
);
}
);
visible = 1;
width = 923;
}
);
leftKerningGroup = O;
leftMetricsKey = O;
rightKerningGroup = G;
unicode = 0047;
},
{
color = 4;
glyphname = H;
lastChange = "2020-04-15 20:59:02 +0000";
layers = (
{
layerId = "051A6F9D-4810-4A2B-9A38-EB5980E546A5";
paths = (
{
closed = 1;
nodes = (
"906 0 LINE",
"885 227 OFFCURVE",
"883 342 OFFCURVE",
"883 451 CURVE SMOOTH",
"883 610 OFFCURVE",
"883 708 OFFCURVE",
"906 900 CURVE",
"636 900 LINE",
"657 673 OFFCURVE",
"659 519 OFFCURVE",
"659 450 CURVE SMOOTH",
"659 270 OFFCURVE",
"659 192 OFFCURVE",
"636 0 CURVE"
);
},
{
closed = 1;
nodes = (
"474 0 LINE",
"474 213 LINE",
"359 220 LINE",
"39 210 LINE",
"39 0 LINE"
);
},
{
closed = 1;
nodes = (
"392 0 LINE",
"371 227 OFFCURVE",
"369 342 OFFCURVE",
"369 451 CURVE SMOOTH",
"369 610 OFFCURVE",
"369 708 OFFCURVE",
"392 900 CURVE",
"122 900 LINE",
"143 673 OFFCURVE",
"145 539 OFFCURVE",
"145 450 CURVE SMOOTH",
"145 270 OFFCURVE",
"145 192 OFFCURVE",
"122 0 CURVE"
);
},
{
closed = 1;
nodes = (
"988 0 LINE",
"988 213 LINE",
"873 220 LINE",
"553 210 LINE",
"553 0 LINE"
);
},
{
closed = 1;
nodes = (
"850 354 LINE",
"850 524 LINE",
"275 524 LINE",
"275 354 LINE"
);
},
{
closed = 1;
nodes = (
"474 690 LINE",
"474 900 LINE",
"39 900 LINE",
"39 690 LINE",
"154 683 LINE"
);
},
{
closed = 1;
nodes = (
"988 690 LINE",
"988 900 LINE",
"553 900 LINE",
"553 690 LINE",
"668 683 LINE"
);
}
);
width = 1027;
}
);
leftKerningGroup = I;
leftMetricsKey = I;
rightKerningGroup = I;
rightMetricsKey = I;
unicode = 0048;
},
{
color = 4;
glyphname = I;
lastChange = "2020-10-20 16:36:24 +0000";
layers = (
{
anchors = (
{
name = top;
position = "{260, 900}";
}
);
layerId = "051A6F9D-4810-4A2B-9A38-EB5980E546A5";
leftMetricsKey = "=39";
rightMetricsKey = "=39";
paths = (
{
closed = 1;
nodes = (
"474 0 LINE",
"474 213 LINE",
"359 220 LINE",
"39 210 LINE",
"39 0 LINE"
);
},
{
closed = 1;
nodes = (
"392 0 LINE",
"371 227 OFFCURVE",
"369 342 OFFCURVE",
"369 451 CURVE SMOOTH",
"369 610 OFFCURVE",
"369 708 OFFCURVE",
"392 900 CURVE",
"122 900 LINE",
"143 673 OFFCURVE",
"145 539 OFFCURVE",
"145 450 CURVE SMOOTH",
"145 270 OFFCURVE",
"145 192 OFFCURVE",
"122 0 CURVE"
);
},
{
closed = 1;
nodes = (
"474 690 LINE",
"474 900 LINE",
"39 900 LINE",
"39 690 LINE",
"154 683 LINE"
);
}
);
width = 513;
}
);
leftKerningGroup = I;
leftMetricsKey = N;
rightKerningGroup = I;
rightMetricsKey = N;
unicode = 0049;
},
{
color = 4;
glyphname = J;
lastChange = "2020-04-15 22:19:58 +0000";
layers = (
{
layerId = "051A6F9D-4810-4A2B-9A38-EB5980E546A5";
rightMetricsKey = "=30";
paths = (
{
closed = 1;
nodes = (
"213 -175 OFFCURVE",
"377 -102 OFFCURVE",
"377 120 CURVE SMOOTH",
"377 365 OFFCURVE",
"366 601 OFFCURVE",
"402 900 CURVE",
"132 900 LINE",
"161 583 OFFCURVE",
"158 426 OFFCURVE",
"154 241 CURVE SMOOTH",
"152 159 OFFCURVE",
"87 116 OFFCURVE",
"10 116 CURVE",
"33 -135 LINE"
);
},
{
closed = 1;
nodes = (
"484 690 LINE",
"484 900 LINE",
"49 900 LINE",
"49 690 LINE",
"164 683 LINE"
);
}
);
width = 514;
},
{
associatedMasterId = "051A6F9D-4810-4A2B-9A38-EB5980E546A5";
layerId = "4C2151CE-B972-4FC0-8906-B1FE8BD650A2";
leftMetricsKey = "=10";
rightMetricsKey = "=30";
name = "Apr 9 20, 11:42";
paths = (
{
closed = 1;
nodes = (
"555 -15 OFFCURVE",
"670 183 OFFCURVE",
"670 413 CURVE SMOOTH",
"670 572 OFFCURVE",
"672 726 OFFCURVE",
"695 898 CURVE",
"409 898 LINE",
"430 691 OFFCURVE",
"432 536 OFFCURVE",
"432 417 CURVE SMOOTH",
"432 316 OFFCURVE",
"357 242 OFFCURVE",
"288 242 CURVE SMOOTH",
"257 242 OFFCURVE",
"222 244 OFFCURVE",
"151 286 CURVE",
"10 200 LINE",
"53 90 OFFCURVE",
"139 -15 OFFCURVE",
"317 -15 CURVE SMOOTH"
);
},
{
closed = 1;
nodes = (
"776 698 LINE",
"776 898 LINE",
"325 898 LINE",
"325 698 LINE",
"441 691 LINE"
);
}
);
visible = 1;
width = 806;
},
{
associatedMasterId = "051A6F9D-4810-4A2B-9A38-EB5980E546A5";
layerId = "0A25E763-5409-42C6-AF1A-E1ADB2CB046E";
leftMetricsKey = "=10";
rightMetricsKey = "=30";
name = "Apr 9 20, 11:43";
paths = (
{
closed = 1;
nodes = (
"774 690 LINE",
"774 900 LINE",
"340 900 LINE",
"340 690 LINE",
"455 683 LINE"
);
},
{
closed = 1;
nodes = (
"506 -25 OFFCURVE",
"669 99 OFFCURVE",
"669 381 CURVE SMOOTH",
"669 580 OFFCURVE",
"669 708 OFFCURVE",
"692 900 CURVE",
"423 900 LINE",
"444 673 OFFCURVE",
"446 518 OFFCURVE",
"446 397 CURVE SMOOTH",
"446 295 OFFCURVE",
"382 231 OFFCURVE",
"302 232 CURVE SMOOTH",
"271 232 OFFCURVE",
"246 234 OFFCURVE",
"175 276 CURVE",
"34 190 LINE",
"77 80 OFFCURVE",
"163 -25 OFFCURVE",
"333 -25 CURVE SMOOTH"
);
}
);
width = 806;
}
);
leftKerningGroup = J;
rightKerningGroup = J;
unicode = 004A;
},
{
color = 4;
glyphname = K;
lastChange = "2020-04-16 21:28:52 +0000";
layers = (
{
layerId = "051A6F9D-4810-4A2B-9A38-EB5980E546A5";
paths = (
{
closed = 1;
nodes = (
"910 0 LINE",
"910 213 LINE",
"824 219 LINE",
"823 239 OFFCURVE",
"823 236 OFFCURVE",
"823 257 CURVE SMOOTH",
"823 386 OFFCURVE",
"758 489 OFFCURVE",
"573 491 CURVE",
"792 687 LINE",
"885 691 LINE",
"885 900 LINE",
"530 900 LINE",
"530 691 LINE",
"609 687 LINE",
"337 444 LINE",
"347 298 LINE",
"387 320 OFFCURVE",
"473 321 OFFCURVE",
"486 321 CURVE SMOOTH",
"542 321 OFFCURVE",
"592 303 OFFCURVE",
"592 187 CURVE SMOOTH",
"592 161 OFFCURVE",
"592 86 OFFCURVE",
"582 0 CURVE"
);
},
{
closed = 1;
nodes = (
"474 0 LINE",
"474 213 LINE",
"359 220 LINE",
"39 210 LINE",
"39 0 LINE"
);
},
{
closed = 1;
nodes = (
"392 0 LINE",
"371 207 OFFCURVE",
"369 312 OFFCURVE",
"369 431 CURVE SMOOTH",
"369 610 OFFCURVE",
"369 708 OFFCURVE",
"392 900 CURVE",
"122 900 LINE",
"143 673 OFFCURVE",
"145 539 OFFCURVE",
"145 450 CURVE SMOOTH",
"145 270 OFFCURVE",
"145 172 OFFCURVE",
"122 0 CURVE"
);
},
{
closed = 1;
nodes = (
"474 690 LINE",
"474 900 LINE",
"39 900 LINE",
"39 690 LINE",
"154 683 LINE"
);
}
);
width = 937;
},
{
associatedMasterId = "051A6F9D-4810-4A2B-9A38-EB5980E546A5";
layerId = "916CDF36-CC74-4861-92BD-6182EC99DF11";
rightMetricsKey = "=20";
name = "Apr 8 20, 17:48";
paths = (
{
closed = 1;
nodes = (
"400 0 LINE",
"379 207 OFFCURVE",
"377 333 OFFCURVE",
"377 451 CURVE SMOOTH",
"377 610 OFFCURVE",
"377 728 OFFCURVE",
"400 900 CURVE",
"114 900 LINE",
"135 693 OFFCURVE",
"137 539 OFFCURVE",
"137 450 CURVE SMOOTH",
"137 270 OFFCURVE",
"137 172 OFFCURVE",
"114 0 CURVE"
);
},
{
closed = 1;
nodes = (
"483 0 LINE",
"483 203 LINE",
"367 210 LINE",
"32 200 LINE",
"32 0 LINE"
);
},
{
closed = 1;
nodes = (
"481 700 LINE",
"481 900 LINE",
"30 900 LINE",
"30 700 LINE",
"146 693 LINE"
);
},
{
closed = 1;
nodes = (
"877 0 LINE",
"847 156 OFFCURVE",
"847 191 OFFCURVE",
"847 327 CURVE SMOOTH",
"847 490 OFFCURVE",
"746 515 OFFCURVE",
"636 515 CURVE SMOOTH",
"600 515 OFFCURVE",
"486 511 OFFCURVE",
"350 440 CURVE",
"358 310 LINE",
"395 358 OFFCURVE",
"463 373 OFFCURVE",
"498 373 CURVE SMOOTH",
"573 373 OFFCURVE",
"613 354 OFFCURVE",
"613 278 CURVE",
"613 182 OFFCURVE",
"613 116 OFFCURVE",
"593 0 CURVE"
);
},
{
closed = 1;
nodes = (
"839 700 LINE",
"922 700 LINE",
"922 900 LINE",
"527 900 LINE",
"527 700 LINE",
"626 700 LINE",
"358 442 LINE",
"555 419 LINE"
);
},
{
closed = 1;
nodes = (
"943 0 LINE",
"943 203 LINE",
"827 210 LINE",
"532 200 LINE",
"532 0 LINE"
);
}
);
width = 963;
}
);
leftKerningGroup = I;
leftMetricsKey = I;
rightKerningGroup = K;
unicode = 004B;
},
{
color = 4;
glyphname = L;
lastChange = "2020-04-16 21:32:40 +0000";
layers = (
{
layerId = "051A6F9D-4810-4A2B-9A38-EB5980E546A5";
rightMetricsKey = "=40";
paths = (
{
closed = 1;
nodes = (
"392 0 LINE",
"371 196 OFFCURVE",
"369 341 OFFCURVE",
"369 451 CURVE SMOOTH",
"369 610 OFFCURVE",
"369 708 OFFCURVE",
"392 900 CURVE",
"122 900 LINE",
"143 673 OFFCURVE",
"145 539 OFFCURVE",
"145 450 CURVE SMOOTH",
"145 270 OFFCURVE",
"145 172 OFFCURVE",
"122 0 CURVE"
);
},
{
closed = 1;
nodes = (
"436 0 LINE",
"436 212 LINE",
"349 219 LINE",
"39 210 LINE",
"39 0 LINE"
);
},
{
closed = 1;
nodes = (
"722 0 LINE",
"722 302 LINE",
"599 302 LINE",
"569 227 OFFCURVE",
"498 217 OFFCURVE",
"460 217 CURVE SMOOTH",
"203 218 LINE",
"203 0 LINE"
);
},
{
closed = 1;
nodes = (
"474 690 LINE",
"474 900 LINE",
"39 900 LINE",
"39 690 LINE",
"154 683 LINE"
);
}
);
width = 762;
}
);
leftKerningGroup = I;
leftMetricsKey = I;
rightKerningGroup = L;
unicode = 004C;
},
{
color = 4;
glyphname = Lslash;
lastChange = "2020-04-16 18:50:24 +0000";
layers = (
{
components = (
{
name = L;
transform = "{1, 0, 0, 1, 34, 0}";
}
);
layerId = "051A6F9D-4810-4A2B-9A38-EB5980E546A5";
leftMetricsKey = "=5";
paths = (
{
closed = 1;
nodes = (
"283 414 LINE",
"589 476 LINE",
"599 516 LINE",
"518 644 LINE",
"321 485 LINE",
"15 423 LINE",
"5 383 LINE",
"86 255 LINE"
);
}
);
width = 796;
}
);
leftKerningGroup = Lslash;
rightKerningGroup = L;
rightMetricsKey = L;
unicode = 0141;
},
{
color = 4;
glyphname = M;
lastChange = "2020-04-15 20:59:24 +0000";
layers = (
{
associatedMasterId = "051A6F9D-4810-4A2B-9A38-EB5980E546A5";
layerId = "62393A27-FC64-4435-B2D9-8D22F5FC4C57";
rightMetricsKey = "=I";
name = "Apr 8 20, 20:22";
paths = (
{
closed = 1;
nodes = (
"769 200 LINE",
"1029 800 LINE",
"927 900 LINE",
"845 900 LINE",
"644 430 LINE",
"417 900 LINE",
"233 900 LINE",
"338 604 LINE",
"537 200 LINE"
);
},
{
closed = 1;
nodes = (
"435 0 LINE",
"435 193 LINE",
"340 200 LINE",
"29 190 LINE",
"29 0 LINE"
);
},
{
closed = 1;
nodes = (
"373 0 LINE",
"352 207 OFFCURVE",
"350 342 OFFCURVE",
"350 451 CURVE SMOOTH",
"350 610 OFFCURVE",
"350 728 OFFCURVE",
"373 900 CURVE",
"112 900 LINE",
"133 693 OFFCURVE",
"135 539 OFFCURVE",
"135 450 CURVE SMOOTH",
"135 270 OFFCURVE",
"135 172 OFFCURVE",
"112 0 CURVE"
);
},
{
closed = 1;
nodes = (
"285 710 LINE",
"285 900 LINE",
"29 900 LINE",
"29 710 LINE",
"144 703 LINE"
);
},
{
closed = 1;
nodes = (
"1253 0 LINE",
"1253 203 LINE",
"1137 210 LINE",
"860 200 LINE",
"860 0 LINE"
);
},
{
closed = 1;
nodes = (
"1170 0 LINE",
"1149 207 OFFCURVE",
"1147 342 OFFCURVE",
"1147 451 CURVE SMOOTH",
"1147 610 OFFCURVE",
"1147 728 OFFCURVE",
"1170 900 CURVE",
"922 900 LINE",
"943 693 OFFCURVE",
"945 539 OFFCURVE",
"945 450 CURVE SMOOTH",
"945 270 OFFCURVE",
"945 172 OFFCURVE",
"922 0 CURVE"
);
},
{
closed = 1;
nodes = (
"1251 700 LINE",
"1251 900 LINE",
"900 900 LINE",
"880 700 LINE",
"934 693 LINE"
);
}
);
width = 1283;
},
{
layerId = "051A6F9D-4810-4A2B-9A38-EB5980E546A5";
paths = (
{
closed = 1;
nodes = (
"657 0 LINE",
"974 900 LINE",
"829 900 LINE",
"619 294 LINE",
"640 294 LINE",
"446 900 LINE",
"191 900 LINE",
"481 0 LINE"
);
},
{
closed = 1;
nodes = (
"365 0 LINE",
"365 213 LINE",
"280 220 LINE",
"39 210 LINE",
"39 0 LINE"
);
},
{
closed = 1;
nodes = (
"313 0 LINE",
"292 227 OFFCURVE",
"290 342 OFFCURVE",
"290 451 CURVE SMOOTH",
"290 610 OFFCURVE",
"290 728 OFFCURVE",
"313 900 CURVE",
"122 900 LINE",
"143 673 OFFCURVE",
"145 539 OFFCURVE",
"145 450 CURVE SMOOTH",
"145 270 OFFCURVE",
"145 172 OFFCURVE",
"122 0 CURVE"
);
},
{
closed = 1;
nodes = (
"225 690 LINE",
"225 900 LINE",
"39 900 LINE",
"39 690 LINE",
"154 683 LINE"
);
},
{
closed = 1;
nodes = (
"1193 0 LINE",
"1193 213 LINE",
"1088 220 LINE",
"784 210 LINE",
"784 0 LINE"
);
},
{
closed = 1;
nodes = (
"1121 0 LINE",
"1100 227 OFFCURVE",
"1098 342 OFFCURVE",
"1098 451 CURVE SMOOTH",
"1098 610 OFFCURVE",
"1098 708 OFFCURVE",
"1121 900 CURVE",
"847 900 LINE",
"868 673 OFFCURVE",
"870 539 OFFCURVE",
"870 450 CURVE SMOOTH",
"870 270 OFFCURVE",
"870 192 OFFCURVE",
"847 0 CURVE"
);
},
{
closed = 1;
nodes = (
"1203 690 LINE",
"1203 900 LINE",
"880 900 LINE",
"820 690 LINE",
"875 683 LINE"
);
}
);
width = 1242;
},
{
associatedMasterId = "051A6F9D-4810-4A2B-9A38-EB5980E546A5";
layerId = "599F0F44-1DEC-472A-B3DB-3995FA207520";
rightMetricsKey = "=I";
name = "Apr 8 20, 20:22";
paths = (
{
closed = 1;
nodes = (
"729 0 LINE",
"1009 900 LINE",
"815 900 LINE",
"644 310 LINE",
"477 900 LINE",
"283 900 LINE",
"557 0 LINE"
);
},
{
closed = 1;
nodes = (
"443 0 LINE",
"443 203 LINE",
"347 210 LINE",
"32 200 LINE",
"32 0 LINE"
);
},
{
closed = 1;
nodes = (
"380 0 LINE",
"359 207 OFFCURVE",
"357 342 OFFCURVE",
"357 451 CURVE SMOOTH",
"357 610 OFFCURVE",
"357 728 OFFCURVE",
"380 900 CURVE",
"114 900 LINE",
"135 693 OFFCURVE",
"137 539 OFFCURVE",
"137 450 CURVE SMOOTH",
"137 270 OFFCURVE",
"137 172 OFFCURVE",
"114 0 CURVE"
);
},
{
closed = 1;
nodes = (
"391 700 LINE",
"391 900 LINE",
"30 900 LINE",
"30 700 LINE",
"146 693 LINE"
);
},
{
closed = 1;
nodes = (
"1253 0 LINE",
"1253 203 LINE",
"1137 210 LINE",
"850 200 LINE",
"850 0 LINE"
);
},
{
closed = 1;
nodes = (
"1170 0 LINE",
"1149 207 OFFCURVE",
"1147 342 OFFCURVE",
"1147 451 CURVE SMOOTH",
"1147 610 OFFCURVE",
"1147 728 OFFCURVE",
"1170 900 CURVE",
"912 900 LINE",
"933 693 OFFCURVE",
"935 539 OFFCURVE",
"935 450 CURVE SMOOTH",
"935 270 OFFCURVE",
"935 172 OFFCURVE",
"912 0 CURVE"
);
},
{
closed = 1;
nodes = (
"1251 700 LINE",
"1251 900 LINE",
"870 900 LINE",
"870 700 LINE",
"924 693 LINE"
);
}
);
visible = 1;
width = 1283;
}
);
leftKerningGroup = I;
leftMetricsKey = I;
rightKerningGroup = I;
rightMetricsKey = I;
unicode = 004D;
},
{
color = 4;
glyphname = N;
lastChange = "2020-04-15 22:19:17 +0000";
layers = (
{
anchors = (
{
name = top;
position = "{529, 900}";
}
);
layerId = "051A6F9D-4810-4A2B-9A38-EB5980E546A5";
leftMetricsKey = "=30";
rightMetricsKey = "=30";
paths = (
{
closed = 1;
nodes = (
"862 0 LINE",
"775 191 LINE",
"405 900 LINE",
"123 900 LINE",
"597 0 LINE"
);
},
{
closed = 1;
nodes = (
"387 0 LINE",
"387 213 LINE",
"272 220 LINE",
"30 210 LINE",
"30 0 LINE"
);
},
{
closed = 1;
nodes = (
"305 0 LINE",
"284 227 OFFCURVE",
"282 342 OFFCURVE",
"282 451 CURVE SMOOTH",
"282 610 OFFCURVE",
"282 728 OFFCURVE",
"305 900 CURVE",
"113 900 LINE",
"134 673 OFFCURVE",
"136 539 OFFCURVE",
"136 450 CURVE SMOOTH",
"136 270 OFFCURVE",
"136 192 OFFCURVE",
"113 0 CURVE"
);
},
{
closed = 1;
nodes = (
"285 690 LINE",
"285 900 LINE",
"30 900 LINE",
"30 690 LINE",
"145 683 LINE"
);
},
{
closed = 1;
nodes = (
"862 0 LINE",
"851 207 OFFCURVE",
"849 342 OFFCURVE",
"849 451 CURVE SMOOTH",
"849 610 OFFCURVE",
"849 708 OFFCURVE",
"872 900 CURVE",
"680 900 LINE",
"701 673 OFFCURVE",
"703 519 OFFCURVE",
"703 450 CURVE SMOOTH",
"703 270 OFFCURVE",
"703 172 OFFCURVE",
"680 0 CURVE"
);
},
{
closed = 1;
nodes = (
"954 690 LINE",
"954 900 LINE",
"597 900 LINE",
"597 690 LINE",
"712 683 LINE"
);
}
);
width = 984;
},
{
anchors = (
{
name = top;
position = "{539, 900}";
}
);
associatedMasterId = "051A6F9D-4810-4A2B-9A38-EB5980E546A5";
layerId = "7B6B302A-071C-4479-8363-8158AE9CDAFD";
leftMetricsKey = "=30";
rightMetricsKey = "=30";
name = "Apr 8 20, 20:17";
paths = (
{
closed = 1;
nodes = (
"376 0 LINE",
"355 207 OFFCURVE",
"353 342 OFFCURVE",
"353 451 CURVE SMOOTH",
"353 610 OFFCURVE",
"353 728 OFFCURVE",
"376 900 CURVE",
"114 900 LINE",
"135 693 OFFCURVE",
"137 539 OFFCURVE",
"137 450 CURVE SMOOTH",
"137 270 OFFCURVE",
"137 172 OFFCURVE",
"114 0 CURVE"
);
},
{
closed = 1;
nodes = (
"459 0 LINE",
"459 203 LINE",
"343 210 LINE",
"32 200 LINE",
"32 0 LINE"
);
},
{
closed = 1;
nodes = (
"387 700 LINE",
"387 900 LINE",
"30 900 LINE",
"30 700 LINE",
"146 693 LINE"
);
},
{
closed = 1;
nodes = (
"934 0 LINE",
"919 207 OFFCURVE",
"917 342 OFFCURVE",
"917 451 CURVE SMOOTH",
"917 610 OFFCURVE",
"917 728 OFFCURVE",
"940 900 CURVE",
"677 900 LINE",
"698 693 OFFCURVE",
"700 539 OFFCURVE",
"700 450 CURVE SMOOTH",
"700 270 OFFCURVE",
"700 172 OFFCURVE",
"677 0 CURVE"
);
},
{
closed = 1;
nodes = (
"1021 700 LINE",
"1021 900 LINE",
"593 900 LINE",
"593 700 LINE",
"709 693 LINE"
);
},
{
closed = 1;
nodes = (
"818 0 LINE",
"455 900 LINE",
"253 900 LINE",
"627 0 LINE"
);
}
);
visible = 1;
width = 1051;
}
);
leftKerningGroup = I;
rightKerningGroup = N;
unicode = 004E;
},
{
color = 4;
glyphname = O;
lastChange = "2020-10-20 16:39:37 +0000";
layers = (
{
anchors = (
{
name = top;
position = "{491, 900}";
}
);
layerId = "051A6F9D-4810-4A2B-9A38-EB5980E546A5";
leftMetricsKey = "=43";
rightMetricsKey = "=43";
paths = (
{
closed = 1;
nodes = (
"683 -16 OFFCURVE",
"867 182 OFFCURVE",
"867 464 CURVE SMOOTH",
"867 667 OFFCURVE",
"761 911 OFFCURVE",
"494 911 CURVE SMOOTH",
"253 911 OFFCURVE",
"43 722 OFFCURVE",
"43 413 CURVE SMOOTH",
"43 193 OFFCURVE",
"158 -16 OFFCURVE",
"413 -16 CURVE SMOOTH"
);
},
{
closed = 1;
nodes = (
"360 243 OFFCURVE",
"265 317 OFFCURVE",
"265 442 CURVE SMOOTH",
"265 557 OFFCURVE",
"347 653 OFFCURVE",
"461 653 CURVE SMOOTH",
"562 653 OFFCURVE",
"645 581 OFFCURVE",
"645 454 CURVE SMOOTH",
"645 339 OFFCURVE",
"563 243 OFFCURVE",
"450 243 CURVE SMOOTH"
);
}
);
width = 910;
}
);
leftKerningGroup = O;
rightKerningGroup = O;
unicode = 004F;
},
{
color = 4;
glyphname = OE;
lastChange = "2020-10-20 19:11:40 +0000";
layers = (
{
layerId = "051A6F9D-4810-4A2B-9A38-EB5980E546A5";
paths = (
{
closed = 1;
nodes = (
"683 -16 OFFCURVE",
"867 182 OFFCURVE",
"867 464 CURVE SMOOTH",
"867 667 OFFCURVE",
"761 911 OFFCURVE",
"494 911 CURVE SMOOTH",
"253 911 OFFCURVE",
"43 722 OFFCURVE",
"43 413 CURVE SMOOTH",
"43 193 OFFCURVE",
"158 -16 OFFCURVE",
"413 -16 CURVE SMOOTH"
);
},
{
closed = 1;
nodes = (
"360 243 OFFCURVE",
"265 317 OFFCURVE",
"265 442 CURVE SMOOTH",
"265 557 OFFCURVE",
"347 653 OFFCURVE",
"461 653 CURVE SMOOTH",
"562 653 OFFCURVE",
"645 581 OFFCURVE",
"645 454 CURVE SMOOTH",
"645 339 OFFCURVE",
"563 243 OFFCURVE",
"450 243 CURVE SMOOTH"
);
},
{
closed = 1;
nodes = (
"1230 0 LINE",
"1230 299 LINE",
"1107 299 LINE",
"1077 234 OFFCURVE",
"1006 225 OFFCURVE",
"968 225 CURVE SMOOTH",
"874 225 LINE",
"872 279 OFFCURVE",
"870 326 OFFCURVE",
"870 369 CURVE",
"956 370 OFFCURVE",
"1043 368 OFFCURVE",
"1133 362 CURVE",
"1133 527 LINE",
"1043 521 OFFCURVE",
"956 519 OFFCURVE",
"869 520 CURVE",
"869 573 OFFCURVE",
"870 623 OFFCURVE",
"872 674 CURVE",
"946 674 LINE SMOOTH",
"984 674 OFFCURVE",
"1055 662 OFFCURVE",
"1085 597 CURVE",
"1208 597 LINE",
"1208 900 LINE",
"539 900 LINE",
"539 690 LINE",
"638 684 LINE",
"644 580 OFFCURVE",
"645 506 OFFCURVE",
"645 450 CURVE SMOOTH",
"645 352 OFFCURVE",
"645 284 OFFCURVE",
"641 212 CURVE",
"539 210 LINE",
"539 0 LINE"
);
}
);
width = 1263;
}
);
leftMetricsKey = O;
rightMetricsKey = E;
unicode = 0152;
},
{
color = 4;
glyphname = P;
lastChange = "2020-04-16 21:31:22 +0000";
layers = (
{
layerId = "051A6F9D-4810-4A2B-9A38-EB5980E546A5";
rightMetricsKey = "=24";
paths = (
{
closed = 1;
nodes = (
"743 275 OFFCURVE",
"838 414 OFFCURVE",
"838 579 CURVE SMOOTH",
"838 760 OFFCURVE",
"743 910 OFFCURVE",
"492 910 CURVE SMOOTH",
"305 910 OFFCURVE",
"218 878 OFFCURVE",
"188 853 CURVE",
"283 581 LINE",
"325 619 OFFCURVE",
"395 668 OFFCURVE",
"512 668 CURVE SMOOTH",
"582 668 OFFCURVE",
"628 640 OFFCURVE",
"628 572 CURVE SMOOTH",
"628 511 OFFCURVE",
"584 483 OFFCURVE",
"522 483 CURVE SMOOTH",
"415 483 OFFCURVE",
"325 483 OFFCURVE",
"283 483 CURVE",
"218 497 LINE",
"262 390 OFFCURVE",
"327 275 OFFCURVE",
"534 275 CURVE SMOOTH"
);
},
{
closed = 1;
nodes = (
"474 0 LINE",
"474 213 LINE",
"359 220 LINE",
"39 210 LINE",
"39 0 LINE"
);
},
{
closed = 1;
nodes = (
"392 0 LINE",
"371 227 OFFCURVE",
"369 316 OFFCURVE",
"369 425 CURVE SMOOTH",
"369 617 OFFCURVE",
"369 728 OFFCURVE",
"392 900 CURVE",
"122 900 LINE",
"143 693 OFFCURVE",
"145 539 OFFCURVE",
"145 450 CURVE SMOOTH",
"145 270 OFFCURVE",
"145 192 OFFCURVE",
"122 0 CURVE"
);
},
{
closed = 1;
nodes = (
"474 710 LINE",
"474 900 LINE",
"39 900 LINE",
"39 690 LINE",
"154 683 LINE"
);
}
);
width = 862;
},
{
associatedMasterId = "051A6F9D-4810-4A2B-9A38-EB5980E546A5";
layerId = "C8CA1978-872E-4B28-92C5-F31B3E22BEBD";
leftMetricsKey = "=30";
rightMetricsKey = "=20";
name = "Apr 8 20, 16:14";
paths = (
{
closed = 1;
nodes = (
"857 0 LINE",
"837 156 OFFCURVE",
"837 191 OFFCURVE",
"837 257 CURVE SMOOTH",
"837 389 OFFCURVE",
"761 437 OFFCURVE",
"604 448 CURVE",
"598 429 LINE",
"802 438 OFFCURVE",
"856 580 OFFCURVE",
"856 658 CURVE SMOOTH",
"856 805 OFFCURVE",
"742 910 OFFCURVE",
"511 910 CURVE SMOOTH",
"316 910 OFFCURVE",
"246 875 OFFCURVE",
"202 854 CURVE",
"297 584 LINE",
"339 622 OFFCURVE",
"409 668 OFFCURVE",
"516 668 CURVE SMOOTH",
"597 668 OFFCURVE",
"645 635 OFFCURVE",
"645 581 CURVE SMOOTH",
"645 530 OFFCURVE",
"612 496 OFFCURVE",
"552 496 CURVE SMOOTH",
"342 496 LINE",
"361 298 LINE",
"401 320 OFFCURVE",
"487 321 OFFCURVE",
"500 321 CURVE SMOOTH",
"556 321 OFFCURVE",
"606 303 OFFCURVE",
"606 187 CURVE SMOOTH",
"606 161 OFFCURVE",
"606 86 OFFCURVE",
"596 0 CURVE"
);
},
{
closed = 1;
nodes = (
"488 0 LINE",
"488 213 LINE",
"373 220 LINE",
"53 210 LINE",
"53 0 LINE"
);
},
{
closed = 1;
nodes = (
"406 0 LINE",
"385 227 OFFCURVE",
"383 312 OFFCURVE",
"383 431 CURVE SMOOTH",
"383 620 OFFCURVE",
"383 728 OFFCURVE",
"406 900 CURVE",
"136 900 LINE",
"157 673 OFFCURVE",
"159 539 OFFCURVE",
"159 450 CURVE SMOOTH",
"159 270 OFFCURVE",
"159 192 OFFCURVE",
"136 0 CURVE"
);
},
{
closed = 1;
nodes = (
"924 0 LINE",
"924 213 LINE",
"829 220 LINE",
"672 210 LINE",
"672 0 LINE"
);
},
{
closed = 1;
nodes = (
"478 710 LINE",
"488 900 LINE",
"53 900 LINE",
"53 690 LINE",
"168 683 LINE"
);
}
);
visible = 1;
width = 900;
}
);
leftKerningGroup = I;
leftMetricsKey = I;
rightKerningGroup = P;
unicode = 0050;
},
{
color = 4;
glyphname = Q;
lastChange = "2020-04-16 19:02:46 +0000";
layers = (
{
associatedMasterId = "051A6F9D-4810-4A2B-9A38-EB5980E546A5";
components = (
{
name = O;
}
);
layerId = "5324EAF2-6457-42D2-8709-928EC896A693";
name = "Apr 16 20, 11:57";
paths = (
{
closed = 1;
nodes = (
"539 -295 OFFCURVE",
"602 -277 OFFCURVE",
"633 -249 CURVE",
"633 -91 LINE",
"578 -91 LINE",
"540 -91 OFFCURVE",
"514 -75 OFFCURVE",
"514 -45 CURVE SMOOTH",
"514 -18 OFFCURVE",
"540 0 OFFCURVE",
"578 24 CURVE",
"492 24 LINE",
"360 -18 OFFCURVE",
"316 -90 OFFCURVE",
"316 -165 CURVE SMOOTH",
"316 -243 OFFCURVE",
"380 -295 OFFCURVE",
"476 -295 CURVE SMOOTH"
);
}
);
width = 910;
},
{
components = (
{
name = O;
}
);
layerId = "051A6F9D-4810-4A2B-9A38-EB5980E546A5";
paths = (
{
closed = 1;
nodes = (
"444 -165 OFFCURVE",
"541 -287 OFFCURVE",
"769 -287 CURVE",
"809 -28 LINE",
"466 5 LINE",
"404 2 LINE"
);
}
);
width = 910;
},
{
associatedMasterId = "051A6F9D-4810-4A2B-9A38-EB5980E546A5";
components = (
{
name = O;
}
);
layerId = "541936FF-A553-4A5F-B496-F884D256FBA2";
name = "Apr 16 20, 11:57";
paths = (
{
closed = 1;
nodes = (
"552 -49 OFFCURVE",
"474 -6 OFFCURVE",
"450 43 CURVE",
"379 42 LINE",
"379 -235 OFFCURVE",
"507 -295 OFFCURVE",
"614 -295 CURVE SMOOTH",
"743 -295 OFFCURVE",
"825 -209 OFFCURVE",
"874 -88 CURVE",
"779 2 LINE",
"734 -31 OFFCURVE",
"684 -49 OFFCURVE",
"632 -49 CURVE SMOOTH"
);
}
);
width = 917;
}
);
leftKerningGroup = O;
leftMetricsKey = O;
rightKerningGroup = O;
rightMetricsKey = O;
unicode = 0051;
},
{
color = 4;
glyphname = R;
lastChange = "2020-04-16 21:22:22 +0000";
layers = (
{
layerId = "051A6F9D-4810-4A2B-9A38-EB5980E546A5";
rightMetricsKey = "=30";
paths = (
{
closed = 1;
nodes = (
"833 0 LINE",
"813 156 OFFCURVE",
"813 191 OFFCURVE",
"813 257 CURVE SMOOTH",
"813 389 OFFCURVE",
"737 437 OFFCURVE",
"580 448 CURVE",
"574 429 LINE",
"778 438 OFFCURVE",
"832 580 OFFCURVE",
"832 658 CURVE SMOOTH",
"832 805 OFFCURVE",
"718 910 OFFCURVE",
"497 910 CURVE SMOOTH",
"302 910 OFFCURVE",
"232 875 OFFCURVE",
"188 854 CURVE",
"283 584 LINE",
"325 622 OFFCURVE",
"395 668 OFFCURVE",
"502 668 CURVE SMOOTH",
"573 668 OFFCURVE",
"621 635 OFFCURVE",
"621 581 CURVE SMOOTH",
"621 530 OFFCURVE",
"588 496 OFFCURVE",
"528 496 CURVE SMOOTH",
"328 496 LINE",
"347 298 LINE",
"387 320 OFFCURVE",
"443 321 OFFCURVE",
"476 321 CURVE SMOOTH",
"532 321 OFFCURVE",
"582 303 OFFCURVE",
"582 187 CURVE SMOOTH",
"582 161 OFFCURVE",
"582 86 OFFCURVE",
"572 0 CURVE"
);
},
{
closed = 1;
nodes = (
"474 0 LINE",
"474 213 LINE",
"359 220 LINE",
"39 210 LINE",
"39 0 LINE"
);
},
{
closed = 1;
nodes = (
"392 0 LINE",
"371 227 OFFCURVE",
"369 312 OFFCURVE",
"369 431 CURVE SMOOTH",
"369 620 OFFCURVE",
"369 728 OFFCURVE",
"392 900 CURVE",
"122 900 LINE",
"143 673 OFFCURVE",
"145 539 OFFCURVE",
"145 450 CURVE SMOOTH",
"145 270 OFFCURVE",
"145 192 OFFCURVE",
"122 0 CURVE"
);
},
{
closed = 1;
nodes = (
"900 0 LINE",
"900 213 LINE",
"805 220 LINE",
"648 210 LINE",
"648 0 LINE"
);
},
{
closed = 1;
nodes = (
"464 710 LINE",
"474 900 LINE",
"39 900 LINE",
"39 690 LINE",
"154 683 LINE"
);
}
);
width = 930;
},
{
associatedMasterId = "051A6F9D-4810-4A2B-9A38-EB5980E546A5";
layerId = "0DE3128D-AE6B-4F4B-8978-2AD49C80F6E2";
rightMetricsKey = "=30";
name = "Apr 8 20, 17:27";
paths = (
{
closed = 1;
nodes = (
"953 0 LINE",
"953 203 LINE",
"837 210 LINE",
"532 200 LINE",
"532 0 LINE"
);
},
{
closed = 1;
nodes = (
"483 0 LINE",
"483 203 LINE",
"367 210 LINE",
"32 200 LINE",
"32 0 LINE"
);
},
{
closed = 1;
nodes = (
"400 0 LINE",
"379 207 OFFCURVE",
"377 366 OFFCURVE",
"377 525 CURVE SMOOTH",
"377 641 OFFCURVE",
"378 732 OFFCURVE",
"400 900 CURVE",
"114 900 LINE",
"135 693 OFFCURVE",
"137 539 OFFCURVE",
"137 450 CURVE SMOOTH",
"137 270 OFFCURVE",
"137 172 OFFCURVE",
"114 0 CURVE"
);
},
{
closed = 1;
nodes = (
"481 700 LINE",
"481 900 LINE",
"30 900 LINE",
"30 700 LINE",
"146 693 LINE"
);
},
{
closed = 1;
nodes = (
"225 454 OFFCURVE",
"275 405 OFFCURVE",
"363 375 CURVE",
"368 328 LINE",
"408 350 OFFCURVE",
"484 351 OFFCURVE",
"507 351 CURVE SMOOTH",
"573 351 OFFCURVE",
"613 333 OFFCURVE",
"613 217 CURVE SMOOTH",
"613 191 OFFCURVE",
"613 116 OFFCURVE",
"593 0 CURVE",
"887 0 LINE",
"857 156 OFFCURVE",
"857 191 OFFCURVE",
"857 257 CURVE SMOOTH",
"857 349 OFFCURVE",
"835 403 OFFCURVE",
"732 435 CURVE",
"698 399 LINE",
"847 448 OFFCURVE",
"880 534 OFFCURVE",
"880 617 CURVE SMOOTH",
"880 760 OFFCURVE",
"782 910 OFFCURVE",
"536 910 CURVE SMOOTH",
"345 910 OFFCURVE",
"241 820 OFFCURVE",
"196 704 CURVE",
"291 593 LINE",
"334 633 OFFCURVE",
"411 678 OFFCURVE",
"513 678 CURVE SMOOTH",
"599 678 OFFCURVE",
"659 646 OFFCURVE",
"659 590 CURVE SMOOTH",
"659 534 OFFCURVE",
"599 505 OFFCURVE",
"513 505 CURVE SMOOTH",
"411 505 OFFCURVE",
"334 541 OFFCURVE",
"291 581 CURVE",
"196 526 LINE"
);
}
);
width = 983;
},
{
associatedMasterId = "051A6F9D-4810-4A2B-9A38-EB5980E546A5";
layerId = "C6EFA0EA-D3D3-4ECC-A3D5-242B52A817F8";
rightMetricsKey = "=30";
name = "Apr 15 20, 20:27";
paths = (
{
closed = 1;
nodes = (
"843 0 LINE",
"823 156 OFFCURVE",
"823 191 OFFCURVE",
"823 257 CURVE SMOOTH",
"823 389 OFFCURVE",
"747 437 OFFCURVE",
"590 448 CURVE",
"584 429 LINE",
"788 438 OFFCURVE",
"842 580 OFFCURVE",
"842 658 CURVE SMOOTH",
"842 805 OFFCURVE",
"715 910 OFFCURVE",
"534 910 CURVE SMOOTH",
"327 910 OFFCURVE",
"232 815 OFFCURVE",
"188 734 CURVE",
"283 584 LINE",
"325 622 OFFCURVE",
"395 668 OFFCURVE",
"512 668 CURVE SMOOTH",
"583 668 OFFCURVE",
"631 638 OFFCURVE",
"631 582 CURVE SMOOTH",
"631 531 OFFCURVE",
"598 496 OFFCURVE",
"538 496 CURVE SMOOTH",
"328 496 LINE",
"347 298 LINE",
"387 320 OFFCURVE",
"473 321 OFFCURVE",
"486 321 CURVE SMOOTH",
"542 321 OFFCURVE",
"592 303 OFFCURVE",
"592 187 CURVE SMOOTH",
"592 161 OFFCURVE",
"592 86 OFFCURVE",
"582 0 CURVE"
);
},
{
closed = 1;
nodes = (
"474 0 LINE",
"474 213 LINE",
"359 220 LINE",
"39 210 LINE",
"39 0 LINE"
);
},
{
closed = 1;
nodes = (
"392 0 LINE",
"371 227 OFFCURVE",
"369 312 OFFCURVE",
"369 431 CURVE SMOOTH",
"369 620 OFFCURVE",
"369 728 OFFCURVE",
"392 900 CURVE",
"122 900 LINE",
"143 673 OFFCURVE",
"145 539 OFFCURVE",
"145 450 CURVE SMOOTH",
"145 270 OFFCURVE",
"145 192 OFFCURVE",
"122 0 CURVE"
);
},
{
closed = 1;
nodes = (
"910 0 LINE",
"910 213 LINE",
"815 220 LINE",
"658 210 LINE",
"658 0 LINE"
);
},
{
closed = 1;
nodes = (
"474 710 LINE",
"474 900 LINE",
"39 900 LINE",
"39 690 LINE",
"154 683 LINE"
);
}
);
width = 940;
}
);
leftKerningGroup = I;
leftMetricsKey = I;
rightKerningGroup = R;
unicode = 0052;
},
{
color = 4;
glyphname = S;
lastChange = "2020-04-15 22:29:25 +0000";
layers = (
{
anchors = (
{
name = top;
position = "{392, 900}";
}
);
layerId = "051A6F9D-4810-4A2B-9A38-EB5980E546A5";
leftMetricsKey = "=41";
rightMetricsKey = "=27";
paths = (
{
closed = 1;
nodes = (
"168 26 LINE",
"168 303 LINE",
"41 303 LINE",
"41 38 LINE"
);
},
{
closed = 1;
nodes = (
"421 655 OFFCURVE",
"455 640 OFFCURVE",
"482 617 CURVE",
"691 617 LINE",
"691 828 LINE",
"641 872 OFFCURVE",
"525 910 OFFCURVE",
"389 910 CURVE SMOOTH",
"181 910 OFFCURVE",
"42 798 OFFCURVE",
"42 629 CURVE SMOOTH",
"42 447 OFFCURVE",
"171 414 OFFCURVE",
"355 386 CURVE SMOOTH",
"447 372 OFFCURVE",
"504 371 OFFCURVE",
"504 314 CURVE SMOOTH",
"504 274 OFFCURVE",
"484 241 OFFCURVE",
"368 241 CURVE SMOOTH",
"300 241 OFFCURVE",
"214 260 OFFCURVE",
"168 303 CURVE",
"41 38 LINE",
"150 -4 OFFCURVE",
"307 -15 OFFCURVE",
"363 -15 CURVE SMOOTH",
"589 -15 OFFCURVE",
"739 97 OFFCURVE",
"739 265 CURVE SMOOTH",
"739 453 OFFCURVE",
"568 493 OFFCURVE",
"441 511 CURVE SMOOTH",
"322 528 OFFCURVE",
"281 545 OFFCURVE",
"281 597 CURVE SMOOTH",
"281 640 OFFCURVE",
"325 655 OFFCURVE",
"368 655 CURVE SMOOTH"
);
}
);
width = 766;
},
{
anchors = (
{
name = top;
position = "{409, 900}";
}
);
associatedMasterId = "051A6F9D-4810-4A2B-9A38-EB5980E546A5";
layerId = "FEFFF54A-A209-46A6-9F56-09103A750A01";
leftMetricsKey = "=30";
rightMetricsKey = "=30";
name = "Apr 8 20, 17:31";
paths = (
{
closed = 1;
nodes = (
"687 -15 OFFCURVE",
"766 134 OFFCURVE",
"766 272 CURVE SMOOTH",
"766 485 OFFCURVE",
"596 511 OFFCURVE",
"468 529 CURVE SMOOTH",
"317 550 OFFCURVE",
"278 561 OFFCURVE",
"278 616 CURVE SMOOTH",
"278 645 OFFCURVE",
"305 673 OFFCURVE",
"398 673 CURVE SMOOTH",
"482 673 OFFCURVE",
"558 644 OFFCURVE",
"592 615 CURVE",
"719 864 LINE",
"610 899 OFFCURVE",
"491 910 OFFCURVE",
"407 910 CURVE SMOOTH",
"125 910 OFFCURVE",
"39 767 OFFCURVE",
"39 635 CURVE SMOOTH",
"39 465 OFFCURVE",
"162 425 OFFCURVE",
"372 396 CURVE SMOOTH",
"472 382 OFFCURVE",
"531 379 OFFCURVE",
"531 321 CURVE SMOOTH",
"531 283 OFFCURVE",
"511 251 OFFCURVE",
"386 251 CURVE SMOOTH",
"289 251 OFFCURVE",
"203 270 OFFCURVE",
"157 313 CURVE",
"30 38 LINE",
"139 -4 OFFCURVE",
"296 -15 OFFCURVE",
"380 -15 CURVE SMOOTH"
);
},
{
closed = 1;
nodes = (
"157 26 LINE",
"157 313 LINE",
"30 313 LINE",
"30 38 LINE"
);
},
{
closed = 1;
nodes = (
"719 615 LINE",
"719 864 LINE",
"592 869 LINE",
"592 615 LINE"
);
}
);
visible = 1;
width = 796;
}
);
leftKerningGroup = S;
rightKerningGroup = S;
unicode = 0053;
},
{
color = 4;
glyphname = T;
lastChange = "2020-04-16 18:50:24 +0000";
layers = (
{
layerId = "051A6F9D-4810-4A2B-9A38-EB5980E546A5";
leftMetricsKey = "=26";
rightMetricsKey = "=26";
paths = (
{
closed = 1;
nodes = (
"545 0 LINE",
"524 227 OFFCURVE",
"522 342 OFFCURVE",
"522 451 CURVE SMOOTH",
"522 620 OFFCURVE",
"522 718 OFFCURVE",
"545 900 CURVE",
"275 900 LINE",
"296 683 OFFCURVE",
"298 549 OFFCURVE",
"298 450 CURVE SMOOTH",
"298 270 OFFCURVE",
"298 192 OFFCURVE",
"275 0 CURVE"
);
},
{
closed = 1;
nodes = (
"627 0 LINE",
"627 213 LINE",
"512 220 LINE",
"192 210 LINE",
"192 0 LINE"
);
},
{
closed = 1;
nodes = (
"148 605 LINE",
"178 662 OFFCURVE",
"233 674 OFFCURVE",
"271 674 CURVE",
"531 674 LINE SMOOTH",
"579 674 OFFCURVE",
"640 665 OFFCURVE",
"670 605 CURVE",
"793 605 LINE",
"793 900 LINE",
"26 900 LINE",
"26 605 LINE"
);
}
);
width = 819;
},
{
associatedMasterId = "051A6F9D-4810-4A2B-9A38-EB5980E546A5";
layerId = "591CEEA5-3779-45C4-AC51-FF079A1F6139";
leftMetricsKey = "=20";
rightMetricsKey = "=14";
name = "Apr 8 20, 17:17";
paths = (
{
closed = 1;
nodes = (
"544 0 LINE",
"523 207 OFFCURVE",
"521 342 OFFCURVE",
"521 451 CURVE SMOOTH",
"521 610 OFFCURVE",
"521 736 OFFCURVE",
"544 900 CURVE",
"258 900 LINE",
"279 703 OFFCURVE",
"281 539 OFFCURVE",
"281 450 CURVE SMOOTH",
"281 270 OFFCURVE",
"281 172 OFFCURVE",
"258 0 CURVE"
);
},
{
closed = 1;
nodes = (
"627 0 LINE",
"627 203 LINE",
"511 210 LINE",
"176 200 LINE",
"176 0 LINE"
);
},
{
closed = 1;
nodes = (
"132 635 LINE",
"132 802 LINE",
"20 802 LINE",
"20 635 LINE"
);
},
{
closed = 1;
nodes = (
"162 692 OFFCURVE",
"227 701 OFFCURVE",
"275 703 CURVE",
"282 834 LINE",
"233 834 OFFCURVE",
"116 827 OFFCURVE",
"20 802 CURVE",
"132 635 LINE"
);
},
{
closed = 1;
nodes = (
"787 703 LINE",
"787 900 LINE",
"20 900 LINE",
"20 708 LINE",
"286 703 LINE"
);
},
{
closed = 1;
nodes = (
"787 805 LINE",
"674 805 LINE",
"674 635 LINE",
"787 635 LINE"
);
},
{
closed = 1;
nodes = (
"787 805 LINE",
"690 830 OFFCURVE",
"567 837 OFFCURVE",
"518 837 CURVE",
"525 703 LINE",
"573 704 OFFCURVE",
"644 695 OFFCURVE",
"674 635 CURVE"
);
}
);
visible = 1;
width = 801;
}
);
leftKerningGroup = T;
rightKerningGroup = T;
unicode = 0054;
},
{
color = 4;
glyphname = U;
lastChange = "2020-10-20 16:39:44 +0000";
layers = (
{
anchors = (
{
name = top;
position = "{521, 900}";
}
);
layerId = "051A6F9D-4810-4A2B-9A38-EB5980E546A5";
leftMetricsKey = "=30";
rightMetricsKey = "=30";
paths = (
{
closed = 1;
nodes = (
"747 -15 OFFCURVE",
"904 139 OFFCURVE",
"904 431 CURVE SMOOTH",
"904 600 OFFCURVE",
"904 708 OFFCURVE",
"927 900 CURVE",
"658 900 LINE",
"679 673 OFFCURVE",
"681 508 OFFCURVE",
"681 399 CURVE SMOOTH",
"681 298 OFFCURVE",
"620 231 OFFCURVE",
"513 231 CURVE SMOOTH",
"427 231 OFFCURVE",
"359 276 OFFCURVE",
"359 388 CURVE SMOOTH",
"359 599 OFFCURVE",
"359 708 OFFCURVE",
"382 900 CURVE",
"113 900 LINE",
"135 660 OFFCURVE",
"136 515 OFFCURVE",
"136 393 CURVE SMOOTH",
"136 160 OFFCURVE",
"258 -15 OFFCURVE",
"510 -15 CURVE SMOOTH"
);
},
{
closed = 1;
nodes = (
"464 690 LINE",
"464 900 LINE",
"30 900 LINE",
"30 690 LINE",
"145 683 LINE"
);
},
{
closed = 1;
nodes = (
"1009 690 LINE",
"1009 900 LINE",
"575 900 LINE",
"575 690 LINE",
"690 683 LINE"
);
}
);
width = 1039;
},
{
associatedMasterId = "051A6F9D-4810-4A2B-9A38-EB5980E546A5";
layerId = "EC56B9EE-36EE-4831-8462-754ACF125395";
leftMetricsKey = "=30";
rightMetricsKey = "=30";
name = "Apr 8 20, 15:24";
paths = (
{
closed = 1;
nodes = (
"752 -15 OFFCURVE",
"923 173 OFFCURVE",
"923 442 CURVE SMOOTH",
"923 636 OFFCURVE",
"824 868 OFFCURVE",
"577 868 CURVE SMOOTH",
"354 868 OFFCURVE",
"159 689 OFFCURVE",
"159 394 CURVE SMOOTH",
"159 184 OFFCURVE",
"266 -15 OFFCURVE",
"502 -15 CURVE SMOOTH"
);
},
{
closed = 1;
nodes = (
"453 231 OFFCURVE",
"365 302 OFFCURVE",
"365 421 CURVE SMOOTH",
"365 531 OFFCURVE",
"441 623 OFFCURVE",
"547 623 CURVE SMOOTH",
"640 623 OFFCURVE",
"717 554 OFFCURVE",
"717 433 CURVE SMOOTH",
"717 323 OFFCURVE",
"641 231 OFFCURVE",
"536 231 CURVE SMOOTH"
);
}
);
visible = 1;
width = 1080;
},
{
associatedMasterId = "051A6F9D-4810-4A2B-9A38-EB5980E546A5";
layerId = "7B4C366A-64C0-47AB-9A4B-308F04AB9F8D";
leftMetricsKey = "=30";
rightMetricsKey = "=30";
name = "Apr 15 20, 20:19";
paths = (
{
closed = 1;
nodes = (
"732 -15 OFFCURVE",
"904 149 OFFCURVE",
"904 441 CURVE SMOOTH",
"904 610 OFFCURVE",
"904 708 OFFCURVE",
"927 900 CURVE",
"658 900 LINE",
"679 673 OFFCURVE",
"681 518 OFFCURVE",
"681 407 CURVE SMOOTH",
"681 305 OFFCURVE",
"617 231 OFFCURVE",
"521 231 CURVE SMOOTH",
"424 231 OFFCURVE",
"359 283 OFFCURVE",
"359 396 CURVE SMOOTH",
"359 609 OFFCURVE",
"359 708 OFFCURVE",
"382 900 CURVE",
"113 900 LINE",
"135 660 OFFCURVE",
"136 525 OFFCURVE",
"136 403 CURVE SMOOTH",
"136 170 OFFCURVE",
"260 -15 OFFCURVE",
"505 -15 CURVE SMOOTH"
);
},
{
closed = 1;
nodes = (
"464 690 LINE",
"464 900 LINE",
"30 900 LINE",
"30 690 LINE",
"145 683 LINE"
);
},
{
closed = 1;
nodes = (
"1009 690 LINE",
"1009 900 LINE",
"575 900 LINE",
"575 690 LINE",
"690 683 LINE"
);
}
);
width = 1039;
}
);
leftKerningGroup = U;
rightKerningGroup = U;
unicode = 0055;
},
{
color = 4;
glyphname = V;
lastChange = "2020-04-16 22:10:00 +0000";
layers = (
{
layerId = "051A6F9D-4810-4A2B-9A38-EB5980E546A5";
leftMetricsKey = "=25";
rightMetricsKey = "=25";
paths = (
{
closed = 1;
nodes = (
"579 0 LINE",
"664 238 OFFCURVE",
"757 483 OFFCURVE",
"852 709 CURVE",
"697 719 LINE",
"642 541 OFFCURVE",
"570 366 OFFCURVE",
"503 198 CURVE",
"543 196 LINE",
"476 368 OFFCURVE",
"409 557 OFFCURVE",
"356 729 CURVE",
"88 729 LINE",
"180 486 OFFCURVE",
"269 243 OFFCURVE",
"351 0 CURVE"
);
},
{
closed = 1;
nodes = (
"443 690 LINE",
"443 900 LINE",
"25 900 LINE",
"25 690 LINE",
"363 680 LINE"
);
},
{
closed = 1;
nodes = (
"924 690 LINE",
"924 900 LINE",
"604 900 LINE",
"604 690 LINE",
"692 680 LINE"
);
}
);
width = 949;
},
{
associatedMasterId = "051A6F9D-4810-4A2B-9A38-EB5980E546A5";
layerId = "B957F9DC-4FC7-4C6F-929D-133D5E5E8B01";
leftMetricsKey = "=30";
rightMetricsKey = "=30";
name = "Apr 9 20, 14:23";
paths = (
{
closed = 1;
nodes = (
"617 0 LINE",
"695 236 OFFCURVE",
"791 473 OFFCURVE",
"886 709 CURVE",
"694 709 LINE",
"642 541 OFFCURVE",
"580 366 OFFCURVE",
"508 198 CURVE",
"585 206 LINE",
"515 378 OFFCURVE",
"460 557 OFFCURVE",
"414 729 CURVE",
"112 729 LINE",
"212 486 OFFCURVE",
"295 243 OFFCURVE",
"369 0 CURVE"
);
},
{
closed = 1;
nodes = (
"502 707 LINE",
"502 900 LINE",
"30 900 LINE",
"30 710 LINE",
"422 701 LINE"
);
},
{
closed = 1;
nodes = (
"961 710 LINE",
"961 900 LINE",
"628 900 LINE",
"628 707 LINE",
"706 700 LINE"
);
}
);
width = 991;
}
);
leftKerningGroup = V;
rightKerningGroup = V;
unicode = 0056;
},
{
color = 4;
glyphname = W;
lastChange = "2020-04-16 22:10:04 +0000";
layers = (
{
associatedMasterId = "051A6F9D-4810-4A2B-9A38-EB5980E546A5";
layerId = "0D97B04A-D443-4720-969B-9A9200888484";
name = "Aug 24 18, 11:29";
width = 600;
},
{
associatedMasterId = "051A6F9D-4810-4A2B-9A38-EB5980E546A5";
guideLines = (
{
position = "{778, 226}";
},
{
position = "{778, -11}";
},
{
position = "{831, -448}";
showMeasurement = 1;
}
);
layerId = "B2EE0F1B-9787-4A14-9425-C6A9F26DF42E";
leftMetricsKey = "=30";
rightMetricsKey = "=30";
name = "Apr 9 20, 14:24";
paths = (
{
closed = 1;
nodes = (
"634 0 LINE",
"712 236 OFFCURVE",
"815 473 OFFCURVE",
"910 709 CURVE",
"718 709 LINE",
"666 541 OFFCURVE",
"597 352 OFFCURVE",
"525 184 CURVE",
"602 192 LINE",
"532 364 OFFCURVE",
"484 557 OFFCURVE",
"438 729 CURVE",
"172 729 LINE",
"272 486 OFFCURVE",
"348 243 OFFCURVE",
"422 0 CURVE"
);
},
{
closed = 1;
nodes = (
"526 707 LINE",
"526 900 LINE",
"90 900 LINE",
"90 710 LINE",
"446 701 LINE"
);
},
{
closed = 1;
nodes = (
"1091 0 LINE",
"1169 236 OFFCURVE",
"1252 473 OFFCURVE",
"1337 709 CURVE",
"1145 709 LINE",
"1103 541 OFFCURVE",
"1054 352 OFFCURVE",
"982 184 CURVE",
"1059 192 LINE",
"989 364 OFFCURVE",
"951 557 OFFCURVE",
"905 729 CURVE",
"640 729 LINE",
"740 486 OFFCURVE",
"806 243 OFFCURVE",
"880 0 CURVE"
);
},
{
closed = 1;
nodes = (
"1020 707 LINE",
"1020 900 LINE",
"585 900 LINE",
"585 710 LINE",
"940 701 LINE"
);
},
{
closed = 1;
nodes = (
"1412 710 LINE",
"1412 900 LINE",
"1079 900 LINE",
"1079 707 LINE",
"1157 700 LINE"
);
}
);
visible = 1;
width = 1442;
},
{
associatedMasterId = "051A6F9D-4810-4A2B-9A38-EB5980E546A5";
guideLines = (
{
position = "{778, 226}";
},
{
position = "{778, -11}";
},
{
position = "{831, -448}";
showMeasurement = 1;
}
);
layerId = "999423AE-47EC-42AC-B98E-FAF1F69825BB";
leftMetricsKey = "=30";
rightMetricsKey = "=30";
name = "Apr 9 20, 14:33";
paths = (
{
closed = 1;
nodes = (
"611 0 LINE",
"687 236 OFFCURVE",
"772 473 OFFCURVE",
"867 709 CURVE",
"712 719 LINE",
"657 541 OFFCURVE",
"601 366 OFFCURVE",
"535 198 CURVE",
"609 196 LINE",
"545 368 OFFCURVE",
"488 557 OFFCURVE",
"442 729 CURVE",
"182 729 LINE",
"264 486 OFFCURVE",
"342 243 OFFCURVE",
"425 0 CURVE"
);
},
{
closed = 1;
nodes = (
"529 690 LINE",
"529 900 LINE",
"119 900 LINE",
"119 687 LINE",
"449 680 LINE"
);
},
{
closed = 1;
nodes = (
"648 787 LINE",
"720 543 OFFCURVE",
"816 209 OFFCURVE",
"879 0 CURVE",
"1073 0 LINE",
"1149 236 OFFCURVE",
"1233 473 OFFCURVE",
"1325 709 CURVE",
"1170 719 LINE",
"1118 541 OFFCURVE",
"1063 366 OFFCURVE",
"997 198 CURVE",
"1071 196 LINE",
"1019 336 OFFCURVE",
"949 601 OFFCURVE",
"905 787 CURVE"
);
},
{
closed = 1;
nodes = (
"1397 690 LINE",
"1397 900 LINE",
"1077 900 LINE",
"1077 687 LINE",
"1165 680 LINE"
);
}
);
width = 1442;
},
{
guideLines = (
{
position = "{709, 226}";
},
{
position = "{709, -11}";
},
{
position = "{762, -448}";
showMeasurement = 1;
}
);
layerId = "051A6F9D-4810-4A2B-9A38-EB5980E546A5";
paths = (
{
closed = 1;
nodes = (
"535 0 LINE",
"611 236 OFFCURVE",
"696 473 OFFCURVE",
"788 709 CURVE",
"633 719 LINE",
"578 541 OFFCURVE",
"525 366 OFFCURVE",
"459 198 CURVE",
"533 196 LINE",
"469 368 OFFCURVE",
"404 557 OFFCURVE",
"355 729 CURVE",
"88 729 LINE",
"176 486 OFFCURVE",
"259 243 OFFCURVE",
"342 0 CURVE"
);
},
{
closed = 1;
nodes = (
"442 690 LINE",
"442 900 LINE",
"25 900 LINE",
"25 690 LINE",
"362 680 LINE"
);
},
{
closed = 1;
nodes = (
"942 690 LINE",
"942 900 LINE",
"522 900 LINE",
"522 690 LINE",
"620 680 LINE"
);
},
{
closed = 1;
nodes = (
"1007 0 LINE",
"1083 236 OFFCURVE",
"1177 473 OFFCURVE",
"1266 709 CURVE",
"1111 719 LINE",
"1059 541 OFFCURVE",
"997 366 OFFCURVE",
"931 198 CURVE",
"1005 196 LINE",
"941 368 OFFCURVE",
"888 557 OFFCURVE",
"852 729 CURVE",
"577 729 LINE",
"662 486 OFFCURVE",
"730 243 OFFCURVE",
"803 0 CURVE"
);
},
{
closed = 1;
nodes = (
"1338 690 LINE",
"1338 900 LINE",
"1018 900 LINE",
"1018 690 LINE",
"1106 680 LINE"
);
}
);
width = 1363;
}
);
leftKerningGroup = V;
leftMetricsKey = V;
rightKerningGroup = V;
rightMetricsKey = V;
unicode = 0057;
},
{
color = 4;
glyphname = X;
lastChange = "2020-04-16 03:15:21 +0000";
layers = (
{
layerId = "051A6F9D-4810-4A2B-9A38-EB5980E546A5";
leftMetricsKey = "=20";
rightMetricsKey = "=13";
paths = (
{
closed = 1;
nodes = (
"411 280 OFFCURVE",
"616 494 OFFCURVE",
"884 709 CURVE",
"674 709 LINE",
"485 524 OFFCURVE",
"291 338 OFFCURVE",
"57 153 CURVE",
"179 65 LINE"
);
},
{
closed = 1;
nodes = (
"951 119 LINE",
"752 342 OFFCURVE",
"557 546 OFFCURVE",
"411 729 CURVE",
"79 729 LINE",
"289 523 OFFCURVE",
"487 317 OFFCURVE",
"630 111 CURVE"
);
},
{
closed = 1;
nodes = (
"505 689 LINE",
"505 900 LINE",
"41 900 LINE",
"41 687 LINE",
"395 680 LINE"
);
},
{
closed = 1;
nodes = (
"936 690 LINE",
"936 900 LINE",
"581 900 LINE",
"581 689 LINE",
"669 680 LINE"
);
},
{
closed = 1;
nodes = (
"968 0 LINE",
"968 213 LINE",
"599 220 LINE",
"489 210 LINE",
"489 0 LINE"
);
},
{
closed = 1;
nodes = (
"411 0 LINE",
"411 213 LINE",
"274 220 LINE",
"20 210 LINE",
"20 0 LINE"
);
}
);
width = 981;
},
{
associatedMasterId = "051A6F9D-4810-4A2B-9A38-EB5980E546A5";
layerId = "8722BB7D-ED1A-4061-8FA1-F2D7721B962B";
leftMetricsKey = "=20";
rightMetricsKey = "=13";
name = "Apr 9 20, 14:41";
paths = (
{
closed = 1;
nodes = (
"532 707 LINE",
"532 900 LINE",
"20 900 LINE",
"20 710 LINE",
"432 701 LINE"
);
},
{
closed = 1;
nodes = (
"1012 0 LINE",
"1012 203 LINE",
"816 210 LINE",
"511 200 LINE",
"511 0 LINE"
);
},
{
closed = 1;
nodes = (
"426 280 OFFCURVE",
"668 494 OFFCURVE",
"940 709 CURVE",
"708 709 LINE",
"498 524 OFFCURVE",
"288 338 OFFCURVE",
"58 153 CURVE",
"194 65 LINE"
);
},
{
closed = 1;
nodes = (
"1003 710 LINE",
"1003 900 LINE",
"632 900 LINE",
"632 707 LINE",
"710 700 LINE"
);
},
{
closed = 1;
nodes = (
"21 190 LINE",
"21 0 LINE",
"401 0 LINE",
"401 193 LINE",
"323 200 LINE"
);
},
{
closed = 1;
nodes = (
"991 119 LINE",
"782 322 OFFCURVE",
"593 526 OFFCURVE",
"424 729 CURVE",
"82 729 LINE",
"295 523 OFFCURVE",
"487 317 OFFCURVE",
"660 111 CURVE"
);
}
);
visible = 1;
width = 1025;
}
);
leftKerningGroup = X;
rightKerningGroup = X;
unicode = 0058;
},
{
color = 4;
glyphname = Y;
lastChange = "2020-10-20 16:36:32 +0000";
layers = (
{
anchors = (
{
name = top;
position = "{474, 900}";
}
);
layerId = "051A6F9D-4810-4A2B-9A38-EB5980E546A5";
leftMetricsKey = "=25";
rightMetricsKey = "=22";
paths = (
{
closed = 1;
nodes = (
"563 0 LINE",
"551 128 OFFCURVE",
"545 220 OFFCURVE",
"542 291 CURVE",
"560 464 OFFCURVE",
"640 587 OFFCURVE",
"779 709 CURVE",
"608 719 LINE",
"539 646 OFFCURVE",
"499 551 OFFCURVE",
"472 447 CURVE",
"487 447 LINE",
"465 552 OFFCURVE",
"424 655 OFFCURVE",
"350 729 CURVE",
"59 729 LINE",
"141 627 OFFCURVE",
"282 476 OFFCURVE",
"315 291 CURVE",
"313 200 OFFCURVE",
"308 123 OFFCURVE",
"293 0 CURVE"
);
},
{
closed = 1;
nodes = (
"645 0 LINE",
"645 213 LINE",
"530 220 LINE",
"210 210 LINE",
"210 0 LINE"
);
},
{
closed = 1;
nodes = (
"447 689 LINE",
"447 900 LINE",
"25 900 LINE",
"25 687 LINE",
"357 680 LINE"
);
},
{
closed = 1;
nodes = (
"831 690 LINE",
"831 900 LINE",
"515 900 LINE",
"515 689 LINE",
"603 680 LINE"
);
}
);
width = 853;
},
{
associatedMasterId = "051A6F9D-4810-4A2B-9A38-EB5980E546A5";
layerId = "204413DA-3619-4AB5-92C3-B88BD88DDF59";
leftMetricsKey = "=30";
rightMetricsKey = "=30";
name = "Apr 9 20, 14:33";
paths = (
{
closed = 1;
nodes = (
"619 0 LINE",
"603 117 OFFCURVE",
"596 234 OFFCURVE",
"596 351 CURVE",
"356 350 LINE",
"355 233 OFFCURVE",
"348 117 OFFCURVE",
"333 0 CURVE"
);
},
{
closed = 1;
nodes = (
"702 0 LINE",
"702 203 LINE",
"586 210 LINE",
"251 200 LINE",
"251 0 LINE"
);
},
{
closed = 1;
nodes = (
"594 310 LINE",
"668 443 OFFCURVE",
"742 576 OFFCURVE",
"833 709 CURVE",
"641 709 LINE",
"599 615 OFFCURVE",
"551 492 OFFCURVE",
"486 398 CURVE",
"563 406 LINE",
"503 504 OFFCURVE",
"454 631 OFFCURVE",
"414 729 CURVE",
"112 729 LINE",
"203 589 OFFCURVE",
"284 450 OFFCURVE",
"355 310 CURVE"
);
},
{
closed = 1;
nodes = (
"502 707 LINE",
"502 900 LINE",
"30 900 LINE",
"30 710 LINE",
"422 701 LINE"
);
},
{
closed = 1;
nodes = (
"908 710 LINE",
"908 900 LINE",
"575 900 LINE",
"575 707 LINE",
"653 700 LINE"
);
}
);
visible = 1;
width = 938;
}
);
leftKerningGroup = Y;
rightKerningGroup = Y;
unicode = 0059;
},
{
color = 4;
glyphname = Z;
lastChange = "2020-04-15 22:27:43 +0000";
layers = (
{
anchors = (
{
name = top;
position = "{417, 900}";
}
);
layerId = "051A6F9D-4810-4A2B-9A38-EB5980E546A5";
leftMetricsKey = "=+20";
rightMetricsKey = "=+30";
paths = (
{
closed = 1;
nodes = (
"744 0 LINE",
"744 312 LINE",
"621 312 LINE",
"591 247 OFFCURVE",
"520 240 OFFCURVE",
"482 238 CURVE",
"319 238 LINE",
"448 396 OFFCURVE",
"580 554 OFFCURVE",
"733 712 CURVE",
"713 900 LINE",
"65 900 LINE",
"65 595 LINE",
"187 595 LINE",
"217 652 OFFCURVE",
"272 664 OFFCURVE",
"310 664 CURVE SMOOTH",
"441 664 LINE",
"315 505 OFFCURVE",
"178 347 OFFCURVE",
"20 188 CURVE",
"40 0 LINE"
);
}
);
width = 774;
},
{
anchors = (
{
name = top;
position = "{421, 900}";
}
);
associatedMasterId = "051A6F9D-4810-4A2B-9A38-EB5980E546A5";
layerId = "329680EE-DD34-4DA0-9955-C58C4F46ACD1";
leftMetricsKey = "=10";
rightMetricsKey = "=20";
name = "Apr 8 20, 17:45";
paths = (
{
closed = 1;
nodes = (
"148 624 LINE",
"178 685 OFFCURVE",
"249 692 OFFCURVE",
"297 693 CURVE",
"777 696 LINE",
"777 900 LINE",
"35 900 LINE",
"35 624 LINE"
);
},
{
closed = 1;
nodes = (
"457 367 OFFCURVE",
"619 533 OFFCURVE",
"777 696 CURVE",
"465 696 LINE",
"337 533 OFFCURVE",
"178 367 OFFCURVE",
"10 203 CURVE",
"331 203 LINE"
);
},
{
closed = 1;
nodes = (
"674 276 LINE",
"644 211 OFFCURVE",
"573 207 OFFCURVE",
"525 206 CURVE",
"10 203 LINE",
"10 0 LINE",
"787 0 LINE",
"787 276 LINE"
);
}
);
width = 807;
}
);
leftKerningGroup = Z;
rightKerningGroup = Z;
unicode = 005A;
},
{
color = 4;
glyphname = a;
lastChange = "2020-10-20 16:36:39 +0000";
layers = (
{
anchors = (
{
name = ogonek;
position = "{782, 0}";
},
{
name = top;
position = "{394, 690}";
}
);
layerId = "051A6F9D-4810-4A2B-9A38-EB5980E546A5";
paths = (
{
closed = 1;
nodes = (
"782 0 LINE",
"782 159 LINE",
"699 217 LINE",
"697 360 OFFCURVE",
"698 384 OFFCURVE",
"700 442 CURVE",
"700 602 OFFCURVE",
"632 705 OFFCURVE",
"365 705 CURVE SMOOTH",
"303 705 OFFCURVE",
"172 698 OFFCURVE",
"76 673 CURVE",
"76 448 LINE",
"188 448 LINE",
"215 468 OFFCURVE",
"288 484 OFFCURVE",
"347 484 CURVE SMOOTH",
"482 484 OFFCURVE",
"482 411 OFFCURVE",
"482 353 CURVE SMOOTH",
"481 149 LINE",
"477 0 LINE"
);
},
{
closed = 1;
nodes = (
"367 -15 OFFCURVE",
"466 63 OFFCURVE",
"499 179 CURVE",
"491 282 LINE",
"457 238 OFFCURVE",
"391 219 OFFCURVE",
"341 219 CURVE SMOOTH",
"324 219 OFFCURVE",
"244 223 OFFCURVE",
"244 272 CURVE SMOOTH",
"244 310 OFFCURVE",
"303 326 OFFCURVE",
"353 326 CURVE SMOOTH",
"387 326 OFFCURVE",
"455 318 OFFCURVE",
"497 295 CURVE",
"505 363 LINE",
"459 403 OFFCURVE",
"387 416 OFFCURVE",
"334 416 CURVE SMOOTH",
"218 416 OFFCURVE",
"29 364 OFFCURVE",
"29 182 CURVE SMOOTH",
"29 61 OFFCURVE",
"108 -15 OFFCURVE",
"241 -15 CURVE SMOOTH"
);
}
);
width = 801;
},
{
associatedMasterId = "051A6F9D-4810-4A2B-9A38-EB5980E546A5";
layerId = "7390AC67-6503-402F-ACD0-1630257E3E9C";
name = "Aug 27 18, 16:53";
paths = (
{
closed = 1;
nodes = (
"382 -11 OFFCURVE",
"472 19 OFFCURVE",
"513 88 CURVE",
"513 0 LINE",
"723 0 LINE",
"723 442 LINE SMOOTH",
"723 607 OFFCURVE",
"654 705 OFFCURVE",
"365 705 CURVE SMOOTH",
"310 705 OFFCURVE",
"174 698 OFFCURVE",
"78 673 CURVE",
"190 478 LINE",
"220 500 OFFCURVE",
"299 514 OFFCURVE",
"351 514 CURVE SMOOTH",
"438 514 OFFCURVE",
"509 499 OFFCURVE",
"509 362 CURVE SMOOTH",
"509 282 LINE",
"483 244 OFFCURVE",
"425 226 OFFCURVE",
"360 226 CURVE SMOOTH",
"320 226 OFFCURVE",
"246 233 OFFCURVE",
"246 293 CURVE SMOOTH",
"246 344 OFFCURVE",
"305 357 OFFCURVE",
"363 357 CURVE SMOOTH",
"410 357 OFFCURVE",
"472 350 OFFCURVE",
"519 304 CURVE",
"527 390 LINE",
"481 430 OFFCURVE",
"410 443 OFFCURVE",
"344 443 CURVE SMOOTH",
"220 443 OFFCURVE",
"20 420 OFFCURVE",
"20 216 CURVE SMOOTH",
"20 46 OFFCURVE",
"159 -11 OFFCURVE",
"288 -11 CURVE SMOOTH"
);
},
{
closed = 1;
nodes = (
"805 0 LINE",
"805 160 LINE",
"639 250 LINE",
"639 0 LINE"
);
},
{
closed = 1;
nodes = (
"78 478 LINE",
"190 478 LINE",
"190 673 LINE",
"78 673 LINE"
);
}
);
width = 825;
}
);
leftKerningGroup = a;
rightKerningGroup = a;
unicode = 0061;
},
{
color = 4;
glyphname = ae;
lastChange = "2020-10-20 16:42:18 +0000";
layers = (
{
layerId = "051A6F9D-4810-4A2B-9A38-EB5980E546A5";
paths = (
{
closed = 1;
nodes = (
"630 442 LINE",
"610 592 OFFCURVE",
"565 705 OFFCURVE",
"365 705 CURVE SMOOTH",
"303 705 OFFCURVE",
"172 698 OFFCURVE",
"76 673 CURVE",
"76 448 LINE",
"188 448 LINE",
"215 468 OFFCURVE",
"288 484 OFFCURVE",
"347 484 CURVE SMOOTH",
"482 484 OFFCURVE",
"482 411 OFFCURVE",
"482 353 CURVE SMOOTH",
"481 213 LINE"
);
},
{
closed = 1;
nodes = (
"367 -15 OFFCURVE",
"516 63 OFFCURVE",
"559 189 CURVE",
"491 282 LINE",
"457 238 OFFCURVE",
"391 219 OFFCURVE",
"341 219 CURVE SMOOTH",
"324 219 OFFCURVE",
"244 223 OFFCURVE",
"244 272 CURVE SMOOTH",
"244 310 OFFCURVE",
"303 326 OFFCURVE",
"353 326 CURVE SMOOTH",
"387 326 OFFCURVE",
"455 318 OFFCURVE",
"497 295 CURVE",
"505 363 LINE",
"459 403 OFFCURVE",
"387 416 OFFCURVE",
"334 416 CURVE SMOOTH",
"218 416 OFFCURVE",
"29 364 OFFCURVE",
"29 182 CURVE SMOOTH",
"29 61 OFFCURVE",
"108 -15 OFFCURVE",
"241 -15 CURVE SMOOTH"
);
},
{
closed = 1;
nodes = (
"1002 -15 OFFCURVE",
"1113 73 OFFCURVE",
"1160 192 CURVE",
"1065 274 LINE",
"1020 245 OFFCURVE",
"954 225 OFFCURVE",
"867 225 CURVE SMOOTH",
"744 225 OFFCURVE",
"687 271 OFFCURVE",
"687 353 CURVE SMOOTH",
"687 430 OFFCURVE",
"742 482 OFFCURVE",
"835 482 CURVE SMOOTH",
"911 482 OFFCURVE",
"969 440 OFFCURVE",
"969 363 CURVE SMOOTH",
"969 341 OFFCURVE",
"964 323 OFFCURVE",
"954 305 CURVE",
"1175 305 LINE",
"1178 323 OFFCURVE",
"1180 347 OFFCURVE",
"1180 371 CURVE SMOOTH",
"1180 528 OFFCURVE",
"1097 705 OFFCURVE",
"861 705 CURVE SMOOTH",
"641 705 OFFCURVE",
"482 550 OFFCURVE",
"482 325 CURVE SMOOTH",
"482 149 OFFCURVE",
"580 -15 OFFCURVE",
"824 -15 CURVE SMOOTH"
);
},
{
closed = 1;
nodes = (
"1113 305 LINE",
"1113 392 LINE",
"600 392 LINE",
"600 305 LINE"
);
}
);
width = 1225;
}
);
leftMetricsKey = a;
rightMetricsKey = e;
unicode = 00E6;
},
{
color = 4;
glyphname = b;
lastChange = "2020-04-16 21:24:19 +0000";
layers = (
{
layerId = "051A6F9D-4810-4A2B-9A38-EB5980E546A5";
rightMetricsKey = "=o";
paths = (
{
closed = 1;
nodes = (
"689 -13 OFFCURVE",
"812 92 OFFCURVE",
"812 361 CURVE SMOOTH",
"812 509 OFFCURVE",
"763 700 OFFCURVE",
"567 700 CURVE SMOOTH",
"367 700 OFFCURVE",
"231 478 OFFCURVE",
"233 375 CURVE",
"253 302 LINE",
"281 396 OFFCURVE",
"391 452 OFFCURVE",
"475 452 CURVE SMOOTH",
"553 452 OFFCURVE",
"608 412 OFFCURVE",
"608 351 CURVE SMOOTH",
"608 288 OFFCURVE",
"553 238 OFFCURVE",
"469 238 CURVE SMOOTH",
"428 238 OFFCURVE",
"374 253 OFFCURVE",
"333 283 CURVE",
"337 253 LINE",
"309 168 OFFCURVE",
"372 -13 OFFCURVE",
"555 -13 CURVE SMOOTH"
);
},
{
closed = 1;
nodes = (
"177 0 LINE",
"361 0 LINE",
"341 197 OFFCURVE",
"339 570 OFFCURVE",
"339 837 CURVE",
"343 990 LINE",
"157 969 LINE",
"39 962 LINE",
"39 783 LINE",
"128 781 LINE",
"129 541 OFFCURVE",
"129 247 OFFCURVE",
"113 69 CURVE"
);
}
);
width = 857;
},
{
associatedMasterId = "051A6F9D-4810-4A2B-9A38-EB5980E546A5";
layerId = "82AF764F-B077-45BF-A79A-1C808AF02227";
rightMetricsKey = "=o+10";
name = "Aug 27 18, 16:51";
paths = (
{
closed = 1;
nodes = (
"653 -11 OFFCURVE",
"797 122 OFFCURVE",
"797 358 CURVE SMOOTH",
"797 510 OFFCURVE",
"737 703 OFFCURVE",
"484 703 CURVE SMOOTH",
"380 703 OFFCURVE",
"256 661 OFFCURVE",
"237 586 CURVE",
"237 372 LINE",
"266 436 OFFCURVE",
"371 468 OFFCURVE",
"444 468 CURVE SMOOTH",
"519 468 OFFCURVE",
"586 435 OFFCURVE",
"586 358 CURVE SMOOTH",
"586 287 OFFCURVE",
"530 226 OFFCURVE",
"431 226 CURVE SMOOTH",
"375 226 OFFCURVE",
"307 245 OFFCURVE",
"291 253 CURVE",
"279 10 LINE",
"286 4 OFFCURVE",
"389 -11 OFFCURVE",
"456 -11 CURVE SMOOTH"
);
},
{
closed = 1;
nodes = (
"194 0 LINE",
"194 250 LINE",
"28 160 LINE",
"28 0 LINE"
);
},
{
closed = 1;
nodes = (
"324 0 LINE",
"324 1040 LINE",
"10 1030 LINE",
"10 840 LINE",
"110 840 LINE",
"110 0 LINE"
);
}
);
width = 837;
}
);
leftKerningGroup = b;
rightKerningGroup = o;
unicode = 0062;
},
{
color = 4;
glyphname = c;
lastChange = "2020-10-20 19:10:22 +0000";
layers = (
{
anchors = (
{
name = bottom;
position = "{367, 0}";
},
{
name = top;
position = "{409, 690}";
}
);
layerId = "051A6F9D-4810-4A2B-9A38-EB5980E546A5";
rightMetricsKey = "=17";
paths = (
{
closed = 1;
nodes = (
"533 -15 OFFCURVE",
"645 73 OFFCURVE",
"691 192 CURVE",
"596 282 LINE",
"557 253 OFFCURVE",
"495 231 OFFCURVE",
"416 231 CURVE SMOOTH",
"293 231 OFFCURVE",
"238 280 OFFCURVE",
"238 350 CURVE SMOOTH",
"238 419 OFFCURVE",
"293 470 OFFCURVE",
"389 470 CURVE SMOOTH",
"445 470 OFFCURVE",
"512 455 OFFCURVE",
"539 434 CURVE",
"651 673 LINE",
"555 696 OFFCURVE",
"474 705 OFFCURVE",
"412 705 CURVE SMOOTH",
"131 705 OFFCURVE",
"33 511 OFFCURVE",
"33 328 CURVE SMOOTH",
"33 145 OFFCURVE",
"131 -15 OFFCURVE",
"362 -15 CURVE SMOOTH"
);
},
{
closed = 1;
nodes = (
"651 434 LINE",
"651 673 LINE",
"539 673 LINE",
"539 434 LINE"
);
}
);
width = 708;
},
{
associatedMasterId = "051A6F9D-4810-4A2B-9A38-EB5980E546A5";
layerId = "DF636A54-C804-4E01-97CB-81B8BB51EFE4";
name = "Aug 24 18, 16:25";
paths = (
{
closed = 1;
nodes = (
"748 296 LINE",
"777 506 OFFCURVE",
"675 705 OFFCURVE",
"394 705 CURVE SMOOTH",
"110 705 OFFCURVE",
"30 501 OFFCURVE",
"30 340 CURVE SMOOTH",
"30 179 OFFCURVE",
"110 -15 OFFCURVE",
"392 -15 CURVE SMOOTH",
"593 -15 OFFCURVE",
"680 76 OFFCURVE",
"735 185 CURVE",
"627 262 LINE",
"572 225 OFFCURVE",
"499 210 OFFCURVE",
"417 210 CURVE SMOOTH",
"300 210 OFFCURVE",
"241 262 OFFCURVE",
"241 337 CURVE SMOOTH",
"241 427 OFFCURVE",
"298 468 OFFCURVE",
"389 468 CURVE SMOOTH",
"480 468 OFFCURVE",
"537 426 OFFCURVE",
"537 338 CURVE SMOOTH",
"537 315 OFFCURVE",
"532 304 OFFCURVE",
"522 296 CURVE"
);
}
);
width = 600;
},
{
associatedMasterId = "051A6F9D-4810-4A2B-9A38-EB5980E546A5";
layerId = "288E0C37-BF3A-4F5C-BB39-160379640F32";
name = "Aug 24 18, 16:28";
paths = (
{
closed = 1;
nodes = (
"603 -15 OFFCURVE",
"700 82 OFFCURVE",
"735 181 CURVE",
"627 273 LINE",
"572 236 OFFCURVE",
"499 221 OFFCURVE",
"417 221 CURVE SMOOTH",
"300 221 OFFCURVE",
"241 273 OFFCURVE",
"241 343 CURVE SMOOTH",
"241 413 OFFCURVE",
"300 465 OFFCURVE",
"417 465 CURVE SMOOTH",
"499 465 OFFCURVE",
"572 450 OFFCURVE",
"627 413 CURVE",
"735 505 LINE",
"700 604 OFFCURVE",
"603 705 OFFCURVE",
"412 705 CURVE SMOOTH",
"110 705 OFFCURVE",
"30 511 OFFCURVE",
"30 340 CURVE SMOOTH",
"30 175 OFFCURVE",
"110 -15 OFFCURVE",
"412 -15 CURVE SMOOTH"
);
}
);
width = 755;
},
{
associatedMasterId = "051A6F9D-4810-4A2B-9A38-EB5980E546A5";
layerId = "821FA550-5E21-4549-87ED-E2B9E0F0D2BC";
name = "Aug 27 18, 17:17";
paths = (
{
closed = 1;
nodes = (
"603 -15 OFFCURVE",
"700 82 OFFCURVE",
"735 181 CURVE",
"627 273 LINE",
"572 236 OFFCURVE",
"499 221 OFFCURVE",
"417 221 CURVE SMOOTH",
"300 221 OFFCURVE",
"241 273 OFFCURVE",
"241 343 CURVE SMOOTH",
"241 432 OFFCURVE",
"300 485 OFFCURVE",
"427 483 CURVE SMOOTH",
"498 482 OFFCURVE",
"557 469 OFFCURVE",
"587 447 CURVE",
"699 673 LINE",
"603 696 OFFCURVE",
"507 705 OFFCURVE",
"452 705 CURVE SMOOTH",
"110 705 OFFCURVE",
"30 511 OFFCURVE",
"30 340 CURVE SMOOTH",
"30 175 OFFCURVE",
"110 -15 OFFCURVE",
"412 -15 CURVE SMOOTH"
);
},
{
closed = 1;
nodes = (
"699 447 LINE",
"699 673 LINE",
"587 673 LINE",
"587 447 LINE"
);
}
);
width = 755;
}
);
leftKerningGroup = o;
leftMetricsKey = o;
rightKerningGroup = c;
unicode = 0063;
},
{
color = 4;
glyphname = d;
lastChange = "2020-04-16 02:58:00 +0000";
layers = (
{
layerId = "051A6F9D-4810-4A2B-9A38-EB5980E546A5";
paths = (
{
closed = 1;
nodes = (
"483 -13 OFFCURVE",
"543 168 OFFCURVE",
"515 253 CURVE",
"519 283 LINE",
"478 253 OFFCURVE",
"424 236 OFFCURVE",
"363 236 CURVE SMOOTH",
"294 236 OFFCURVE",
"237 276 OFFCURVE",
"238 337 CURVE SMOOTH",
"239 400 OFFCURVE",
"298 450 OFFCURVE",
"393 450 CURVE SMOOTH",
"456 450 OFFCURVE",
"524 431 OFFCURVE",
"539 423 CURVE",
"569 488 LINE",
"558 506 OFFCURVE",
"505 700 OFFCURVE",
"330 700 CURVE SMOOTH",
"163 700 OFFCURVE",
"33 561 OFFCURVE",
"33 306 CURVE SMOOTH",
"33 113 OFFCURVE",
"132 -13 OFFCURVE",
"282 -13 CURVE SMOOTH"
);
},
{
closed = 1;
nodes = (
"803 0 LINE",
"803 159 LINE",
"637 269 LINE",
"637 0 LINE"
);
},
{
closed = 1;
nodes = (
"733 0 LINE",
"713 199 OFFCURVE",
"711 570 OFFCURVE",
"711 837 CURVE",
"715 990 LINE",
"530 969 LINE",
"412 962 LINE",
"412 783 LINE",
"501 781 LINE",
"503 615 OFFCURVE",
"503 323 OFFCURVE",
"499 0 CURVE"
);
}
);
width = 833;
},
{
associatedMasterId = "051A6F9D-4810-4A2B-9A38-EB5980E546A5";
layerId = "0C208315-C1F4-475D-822B-2E58CC543ABD";
rightMetricsKey = "=30";
name = "Apr 8 20, 13:21";
paths = (
{
closed = 1;
nodes = (
"482 -15 OFFCURVE",
"648 199 OFFCURVE",
"618 313 CURVE",
"598 346 LINE",
"531 247 OFFCURVE",
"450 238 OFFCURVE",
"405 238 CURVE SMOOTH",
"307 238 OFFCURVE",
"249 280 OFFCURVE",
"249 344 CURVE SMOOTH",
"249 409 OFFCURVE",
"310 455 OFFCURVE",
"399 455 CURVE SMOOTH",
"475 455 OFFCURVE",
"511 422 OFFCURVE",
"545 385 CURVE",
"564 471 LINE",
"584 541 OFFCURVE",
"510 703 OFFCURVE",
"334 703 CURVE SMOOTH",
"166 703 OFFCURVE",
"39 566 OFFCURVE",
"39 333 CURVE SMOOTH",
"39 179 OFFCURVE",
"94 -15 OFFCURVE",
"301 -15 CURVE SMOOTH"
);
},
{
closed = 1;
nodes = (
"817 0 LINE",
"817 159 LINE",
"651 269 LINE",
"651 0 LINE"
);
},
{
closed = 1;
nodes = (
"555 0 LINE",
"747 0 LINE",
"727 199 OFFCURVE",
"725 570 OFFCURVE",
"725 837 CURVE",
"729 990 LINE",
"542 969 LINE",
"424 962 LINE",
"424 781 LINE",
"513 781 LINE",
"513 518 OFFCURVE",
"513 203 OFFCURVE",
"513 53 CURVE"
);
}
);
visible = 1;
width = 847;
}
);
leftKerningGroup = o;
leftMetricsKey = o;
rightKerningGroup = l;
rightMetricsKey = l;
unicode = 0064;
},
{
color = 4;
glyphname = e;
lastChange = "2020-10-20 19:22:04 +0000";
layers = (
{
associatedMasterId = "051A6F9D-4810-4A2B-9A38-EB5980E546A5";
layerId = "BB231011-DA60-4D22-9246-8563B5360AD3";
name = "Aug 27 18, 17:12";
paths = (
{
closed = 1;
nodes = (
"582 -15 OFFCURVE",
"743 140 OFFCURVE",
"743 362 CURVE SMOOTH",
"743 522 OFFCURVE",
"660 705 OFFCURVE",
"424 705 CURVE SMOOTH",
"219 705 OFFCURVE",
"45 565 OFFCURVE",
"45 322 CURVE SMOOTH",
"45 149 OFFCURVE",
"133 -15 OFFCURVE",
"361 -15 CURVE SMOOTH"
);
},
{
closed = 1;
nodes = (
"314 237 OFFCURVE",
"256 279 OFFCURVE",
"256 341 CURVE SMOOTH",
"256 402 OFFCURVE",
"312 454 OFFCURVE",
"398 454 CURVE SMOOTH",
"474 454 OFFCURVE",
"532 412 OFFCURVE",
"532 350 CURVE SMOOTH",
"532 289 OFFCURVE",
"476 237 OFFCURVE",
"390 237 CURVE SMOOTH"
);
}
);
visible = 1;
width = 783;
},
{
anchors = (
{
name = ogonek;
position = "{587, 0}";
}
);
associatedMasterId = "051A6F9D-4810-4A2B-9A38-EB5980E546A5";
layerId = "6A2C2BED-EAFD-4793-9E41-7FE030A1BB4C";
name = "Apr 15 20, 19:57";
paths = (
{
closed = 1;
nodes = (
"563 -15 OFFCURVE",
"666 76 OFFCURVE",
"711 192 CURVE",
"616 267 LINE",
"573 238 OFFCURVE",
"517 218 OFFCURVE",
"428 218 CURVE SMOOTH",
"302 218 OFFCURVE",
"244 264 OFFCURVE",
"244 346 CURVE SMOOTH",
"244 423 OFFCURVE",
"300 475 OFFCURVE",
"386 475 CURVE SMOOTH",
"462 475 OFFCURVE",
"520 433 OFFCURVE",
"520 355 CURVE SMOOTH",
"520 336 OFFCURVE",
"515 316 OFFCURVE",
"505 298 CURVE",
"726 298 LINE",
"729 316 OFFCURVE",
"731 340 OFFCURVE",
"731 362 CURVE SMOOTH",
"731 522 OFFCURVE",
"648 705 OFFCURVE",
"412 705 CURVE SMOOTH",
"207 705 OFFCURVE",
"33 565 OFFCURVE",
"33 322 CURVE SMOOTH",
"33 149 OFFCURVE",
"121 -15 OFFCURVE",
"369 -15 CURVE SMOOTH"
);
},
{
closed = 1;
nodes = (
"688 298 LINE",
"688 385 LINE",
"175 385 LINE",
"175 298 LINE"
);
}
);
width = 776;
},
{
anchors = (
{
name = ogonek;
position = "{587, 0}";
}
);
associatedMasterId = "051A6F9D-4810-4A2B-9A38-EB5980E546A5";
layerId = "7C8CE2BF-019B-464F-BA5E-834BC2F01C28";
name = "Apr 15 20, 19:59";
paths = (
{
closed = 1;
nodes = (
"533 -15 OFFCURVE",
"627 27 OFFCURVE",
"702 143 CURVE",
"645 256 LINE",
"582 227 OFFCURVE",
"517 218 OFFCURVE",
"428 218 CURVE SMOOTH",
"295 218 OFFCURVE",
"238 264 OFFCURVE",
"238 346 CURVE SMOOTH",
"238 423 OFFCURVE",
"293 475 OFFCURVE",
"386 475 CURVE SMOOTH",
"462 475 OFFCURVE",
"520 433 OFFCURVE",
"520 355 CURVE SMOOTH",
"520 336 OFFCURVE",
"515 316 OFFCURVE",
"505 298 CURVE",
"726 298 LINE",
"729 316 OFFCURVE",
"731 340 OFFCURVE",
"731 362 CURVE SMOOTH",
"731 522 OFFCURVE",
"648 705 OFFCURVE",
"412 705 CURVE SMOOTH",
"207 705 OFFCURVE",
"33 565 OFFCURVE",
"33 322 CURVE SMOOTH",
"33 149 OFFCURVE",
"121 -15 OFFCURVE",
"369 -15 CURVE SMOOTH"
);
},
{
closed = 1;
nodes = (
"688 298 LINE",
"688 385 LINE",
"175 385 LINE",
"175 298 LINE"
);
}
);
width = 776;
},
{
anchors = (
{
name = ogonek;
position = "{587, 0}";
},
{
name = top;
position = "{398, 690}";
}
);
layerId = "051A6F9D-4810-4A2B-9A38-EB5980E546A5";
paths = (
{
closed = 1;
nodes = (
"553 -15 OFFCURVE",
"664 73 OFFCURVE",
"711 192 CURVE",
"616 274 LINE",
"571 245 OFFCURVE",
"505 225 OFFCURVE",
"418 225 CURVE SMOOTH",
"295 225 OFFCURVE",
"238 271 OFFCURVE",
"238 353 CURVE SMOOTH",
"238 430 OFFCURVE",
"293 482 OFFCURVE",
"386 482 CURVE SMOOTH",
"462 482 OFFCURVE",
"520 440 OFFCURVE",
"520 363 CURVE SMOOTH",
"520 341 OFFCURVE",
"515 323 OFFCURVE",
"505 305 CURVE",
"726 305 LINE",
"729 323 OFFCURVE",
"731 347 OFFCURVE",
"731 371 CURVE SMOOTH",
"731 528 OFFCURVE",
"648 705 OFFCURVE",
"412 705 CURVE SMOOTH",
"192 705 OFFCURVE",
"33 550 OFFCURVE",
"33 325 CURVE SMOOTH",
"33 149 OFFCURVE",
"131 -15 OFFCURVE",
"375 -15 CURVE SMOOTH"
);
},
{
closed = 1;
nodes = (
"688 305 LINE",
"688 392 LINE",
"175 392 LINE",
"175 305 LINE"
);
}
);
width = 776;
}
);
leftKerningGroup = o;
leftMetricsKey = o;
rightKerningGroup = o;
rightMetricsKey = o;
unicode = 0065;
},
{
color = 8;
glyphname = eogonek;
lastChange = "2020-04-16 22:03:00 +0000";
layers = (
{
layerId = "051A6F9D-4810-4A2B-9A38-EB5980E546A5";
paths = (
{
closed = 1;
nodes = (
"516 -295 OFFCURVE",
"586 -274 OFFCURVE",
"618 -249 CURVE",
"618 -91 LINE",
"563 -91 LINE SMOOTH",
"525 -91 OFFCURVE",
"499 -75 OFFCURVE",
"499 -44 CURVE SMOOTH",
"499 -8 OFFCURVE",
"531 9 OFFCURVE",
"561 24 CURVE SMOOTH",
"641 65 OFFCURVE",
"682 117 OFFCURVE",
"711 192 CURVE",
"616 267 LINE",
"573 238 OFFCURVE",
"517 218 OFFCURVE",
"428 218 CURVE SMOOTH",
"321 218 OFFCURVE",
"263 251 OFFCURVE",
"248 311 CURVE",
"245 370 LINE",
"256 433 OFFCURVE",
"309 475 OFFCURVE",
"386 475 CURVE SMOOTH",
"452 475 OFFCURVE",
"504 444 OFFCURVE",
"517 385 CURVE",
"203 385 LINE",
"206 298 LINE",
"726 298 LINE",
"729 316 OFFCURVE",
"731 340 OFFCURVE",
"731 362 CURVE SMOOTH",
"731 522 OFFCURVE",
"648 705 OFFCURVE",
"412 705 CURVE SMOOTH",
"207 705 OFFCURVE",
"33 565 OFFCURVE",
"33 322 CURVE SMOOTH",
"33 149 OFFCURVE",
"121 -14 OFFCURVE",
"349 -14 CURVE SMOOTH",
"377 -14 OFFCURVE",
"393 -12 OFFCURVE",
"418 -6 CURVE",
"332 -51 OFFCURVE",
"285 -98 OFFCURVE",
"285 -165 CURVE SMOOTH",
"285 -250 OFFCURVE",
"355 -295 OFFCURVE",
"451 -295 CURVE SMOOTH"
);
}
);
width = 776;
}
);
leftKerningGroup = o;
leftMetricsKey = e;
rightKerningGroup = o;
rightMetricsKey = e;
unicode = 0119;
},
{
color = 4;
glyphname = f;
lastChange = "2020-04-15 22:59:04 +0000";
layers = (
{
layerId = "051A6F9D-4810-4A2B-9A38-EB5980E546A5";
leftMetricsKey = "=+42";
paths = (
{
closed = 1;
nodes = (
"366 1 LINE",
"346 198 OFFCURVE",
"344 346 OFFCURVE",
"344 703 CURVE SMOOTH",
"344 753 OFFCURVE",
"359 782 OFFCURVE",
"399 782 CURVE SMOOTH",
"426 782 OFFCURVE",
"445 759 OFFCURVE",
"455 747 CURVE",
"567 970 LINE",
"493 996 OFFCURVE",
"432 1002 OFFCURVE",
"387 1002 CURVE SMOOTH",
"213 1002 OFFCURVE",
"120 927 OFFCURVE",
"124 757 CURVE",
"124 517 OFFCURVE",
"132 163 OFFCURVE",
"108 1 CURVE"
);
},
{
closed = 1;
nodes = (
"521 0 LINE",
"521 193 LINE",
"334 200 LINE",
"42 190 LINE",
"42 0 LINE"
);
},
{
closed = 1;
nodes = (
"521 497 LINE",
"521 690 LINE",
"172 690 LINE",
"42 674 LINE",
"42 497 LINE"
);
},
{
closed = 1;
nodes = (
"567 747 LINE",
"567 970 LINE",
"455 970 LINE",
"455 747 LINE"
);
}
);
width = 541;
}
);
leftKerningGroup = f;
rightKerningGroup = f;
unicode = 0066;
},
{
color = 4;
glyphname = g;
lastChange = "2020-04-16 21:30:16 +0000";
layers = (
{
layerId = "051A6F9D-4810-4A2B-9A38-EB5980E546A5";
paths = (
{
closed = 1;
nodes = (
"596 -295 OFFCURVE",
"728 -216 OFFCURVE",
"728 -75 CURVE SMOOTH",
"728 96 OFFCURVE",
"536 123 OFFCURVE",
"388 148 CURVE SMOOTH",
"305 162 OFFCURVE",
"240 177 OFFCURVE",
"189 235 CURVE",
"261 196 OFFCURVE",
"326 190 OFFCURVE",
"372 190 CURVE SMOOTH",
"601 190 OFFCURVE",
"671 336 OFFCURVE",
"671 440 CURVE SMOOTH",
"671 536 OFFCURVE",
"612 705 OFFCURVE",
"368 705 CURVE SMOOTH",
"152 705 OFFCURVE",
"51 572 OFFCURVE",
"51 363 CURVE SMOOTH",
"51 185 OFFCURVE",
"130 75 OFFCURVE",
"329 38 CURVE SMOOTH",
"430 19 OFFCURVE",
"506 16 OFFCURVE",
"506 -25 CURVE SMOOTH",
"506 -56 OFFCURVE",
"461 -71 OFFCURVE",
"380 -71 CURVE SMOOTH",
"320 -71 OFFCURVE",
"267 -63 OFFCURVE",
"244 -48 CURVE",
"243 -8 LINE",
"242 32 LINE",
"56 32 LINE",
"44 -11 OFFCURVE",
"41 -46 OFFCURVE",
"41 -69 CURVE SMOOTH",
"41 -215 OFFCURVE",
"158 -295 OFFCURVE",
"378 -295 CURVE SMOOTH"
);
},
{
closed = 1;
nodes = (
"280 373 OFFCURVE",
"238 405 OFFCURVE",
"238 448 CURVE SMOOTH",
"238 490 OFFCURVE",
"280 522 OFFCURVE",
"365 522 CURVE SMOOTH",
"452 522 OFFCURVE",
"495 489 OFFCURVE",
"495 447 CURVE SMOOTH",
"495 404 OFFCURVE",
"452 373 OFFCURVE",
"367 373 CURVE SMOOTH"
);
},
{
closed = 1;
nodes = (
"740 501 LINE",
"740 690 LINE",
"457 690 LINE",
"527 501 LINE"
);
}
);
width = 785;
},
{
associatedMasterId = "051A6F9D-4810-4A2B-9A38-EB5980E546A5";
layerId = "3FBC4DC8-4158-440D-8066-9928AA864E97";
name = "Aug 28 18, 09:47";
paths = (
{
closed = 1;
nodes = (
"584 -358 OFFCURVE",
"751 -280 OFFCURVE",
"751 -123 CURVE SMOOTH",
"751 42 OFFCURVE",
"567 60 OFFCURVE",
"488 71 CURVE SMOOTH",
"392 84 OFFCURVE",
"339 99 OFFCURVE",
"290 138 CURVE",
"225 142 LINE",
"261 121 OFFCURVE",
"342 114 OFFCURVE",
"392 114 CURVE SMOOTH",
"633 114 OFFCURVE",
"704 280 OFFCURVE",
"704 399 CURVE SMOOTH",
"704 514 OFFCURVE",
"639 705 OFFCURVE",
"371 705 CURVE SMOOTH",
"108 705 OFFCURVE",
"27 520 OFFCURVE",
"27 362 CURVE SMOOTH",
"27 156 OFFCURVE",
"166 7 OFFCURVE",
"403 -35 CURVE SMOOTH",
"461 -45 OFFCURVE",
"525 -51 OFFCURVE",
"525 -83 CURVE SMOOTH",
"525 -116 OFFCURVE",
"453 -121 OFFCURVE",
"388 -121 CURVE SMOOTH",
"273 -121 OFFCURVE",
"223 -105 OFFCURVE",
"212 -75 CURVE",
"232 -58 LINE",
"231 -18 LINE",
"45 -18 LINE",
"33 -61 OFFCURVE",
"30 -96 OFFCURVE",
"30 -121 CURVE SMOOTH",
"30 -261 OFFCURVE",
"126 -358 OFFCURVE",
"367 -358 CURVE SMOOTH"
);
},
{
closed = 1;
nodes = (
"264 310 OFFCURVE",
"216 346 OFFCURVE",
"216 410 CURVE SMOOTH",
"216 473 OFFCURVE",
"264 509 OFFCURVE",
"371 509 CURVE SMOOTH",
"480 509 OFFCURVE",
"528 472 OFFCURVE",
"528 409 CURVE SMOOTH",
"528 345 OFFCURVE",
"480 310 OFFCURVE",
"373 310 CURVE SMOOTH"
);
},
{
closed = 1;
nodes = (
"745 490 LINE",
"745 690 LINE",
"439 690 LINE",
"509 490 LINE"
);
}
);
width = 771;
},
{
associatedMasterId = "051A6F9D-4810-4A2B-9A38-EB5980E546A5";
layerId = "BF105A1A-1A89-4BB6-84BA-6A7ECD0C1723";
name = "Apr 15 20, 20:03";
paths = (
{
closed = 1;
nodes = (
"598 -295 OFFCURVE",
"728 -216 OFFCURVE",
"728 -75 CURVE SMOOTH",
"728 80 OFFCURVE",
"541 100 OFFCURVE",
"388 124 CURVE SMOOTH",
"301 137 OFFCURVE",
"220 156 OFFCURVE",
"172 215 CURVE",
"244 176 OFFCURVE",
"316 170 OFFCURVE",
"362 170 CURVE SMOOTH",
"614 170 OFFCURVE",
"677 323 OFFCURVE",
"677 431 CURVE SMOOTH",
"677 536 OFFCURVE",
"618 705 OFFCURVE",
"366 705 CURVE SMOOTH",
"128 705 OFFCURVE",
"37 554 OFFCURVE",
"37 386 CURVE SMOOTH",
"37 172 OFFCURVE",
"124 70 OFFCURVE",
"356 25 CURVE SMOOTH",
"434 10 OFFCURVE",
"506 9 OFFCURVE",
"506 -23 CURVE SMOOTH",
"506 -56 OFFCURVE",
"460 -71 OFFCURVE",
"383 -71 CURVE SMOOTH",
"319 -71 OFFCURVE",
"267 -63 OFFCURVE",
"244 -48 CURVE",
"243 -8 LINE",
"242 32 LINE",
"56 32 LINE",
"44 -11 OFFCURVE",
"41 -46 OFFCURVE",
"41 -71 CURVE SMOOTH",
"41 -215 OFFCURVE",
"160 -295 OFFCURVE",
"374 -295 CURVE SMOOTH"
);
},
{
closed = 1;
nodes = (
"266 362 OFFCURVE",
"224 394 OFFCURVE",
"224 437 CURVE SMOOTH",
"224 479 OFFCURVE",
"266 511 OFFCURVE",
"361 511 CURVE SMOOTH",
"458 511 OFFCURVE",
"501 478 OFFCURVE",
"501 436 CURVE SMOOTH",
"501 393 OFFCURVE",
"458 362 OFFCURVE",
"363 362 CURVE SMOOTH"
);
},
{
closed = 1;
nodes = (
"766 501 LINE",
"766 690 LINE",
"463 690 LINE",
"533 501 LINE"
);
}
);
width = 790;
}
);
leftKerningGroup = g;
rightKerningGroup = g;
unicode = 0067;
},
{
color = 4;
glyphname = h;
lastChange = "2020-04-16 21:28:49 +0000";
layers = (
{
layerId = "051A6F9D-4810-4A2B-9A38-EB5980E546A5";
paths = (
{
closed = 1;
nodes = (
"393 0 LINE",
"393 193 LINE",
"307 200 LINE",
"18 190 LINE",
"18 0 LINE"
);
},
{
closed = 1;
nodes = (
"341 0 LINE",
"327 196 OFFCURVE",
"319 569 OFFCURVE",
"319 837 CURVE",
"323 990 LINE",
"136 969 LINE",
"18 962 LINE",
"18 783 LINE",
"107 781 LINE",
"107 499 OFFCURVE",
"107 162 OFFCURVE",
"83 0 CURVE"
);
},
{
closed = 1;
nodes = (
"770 0 LINE",
"740 156 OFFCURVE",
"740 311 OFFCURVE",
"740 467 CURVE SMOOTH",
"740 593 OFFCURVE",
"699 705 OFFCURVE",
"563 705 CURVE SMOOTH",
"494 705 OFFCURVE",
"364 680 OFFCURVE",
"310 481 CURVE",
"318 390 LINE",
"365 449 OFFCURVE",
"422 453 OFFCURVE",
"445 453 CURVE SMOOTH",
"486 453 OFFCURVE",
"526 434 OFFCURVE",
"526 347 CURVE",
"526 231 OFFCURVE",
"526 116 OFFCURVE",
"506 0 CURVE"
);
},
{
closed = 1;
nodes = (
"833 0 LINE",
"833 190 LINE",
"536 200 LINE",
"458 193 LINE",
"458 0 LINE"
);
}
);
width = 858;
}
);
leftKerningGroup = l;
leftMetricsKey = l;
rightKerningGroup = n;
rightMetricsKey = n;
unicode = 0068;
},
{
color = 4;
glyphname = i;
lastChange = "2020-04-15 22:59:04 +0000";
layers = (
{
layerId = "051A6F9D-4810-4A2B-9A38-EB5980E546A5";
paths = (
{
closed = 1;
nodes = (
"280 732 OFFCURVE",
"376 791 OFFCURVE",
"376 895 CURVE SMOOTH",
"376 966 OFFCURVE",
"331 1040 OFFCURVE",
"243 1040 CURVE SMOOTH",
"164 1040 OFFCURVE",
"68 981 OFFCURVE",
"68 877 CURVE SMOOTH",
"68 806 OFFCURVE",
"113 732 OFFCURVE",
"201 732 CURVE SMOOTH"
);
},
{
closed = 1;
nodes = (
"439 0 LINE",
"439 193 LINE",
"334 200 LINE",
"45 190 LINE",
"45 0 LINE"
);
},
{
closed = 1;
nodes = (
"368 0 LINE",
"348 197 OFFCURVE",
"346 394 OFFCURVE",
"346 541 CURVE",
"350 694 LINE",
"163 673 LINE",
"45 666 LINE",
"45 487 LINE",
"134 485 LINE",
"134 323 OFFCURVE",
"134 162 OFFCURVE",
"110 0 CURVE"
);
}
);
width = 469;
},
{
associatedMasterId = "051A6F9D-4810-4A2B-9A38-EB5980E546A5";
layerId = "DD963C37-2E6A-4222-B10E-D9EBE77C96AF";
name = "Aug 27 18, 16:39";
paths = (
{
closed = 1;
nodes = (
"353 690 LINE",
"44 680 LINE",
"44 490 LINE",
"137 490 LINE",
"137 0 LINE",
"351 0 LINE",
"351 591 LINE"
);
},
{
closed = 1;
nodes = (
"44 190 LINE",
"44 0 LINE",
"451 0 LINE",
"451 193 LINE",
"341 200 LINE"
);
},
{
closed = 1;
nodes = (
"289 752 OFFCURVE",
"379 820 OFFCURVE",
"379 906 CURVE SMOOTH",
"379 992 OFFCURVE",
"332 1060 OFFCURVE",
"246 1060 CURVE SMOOTH",
"161 1060 OFFCURVE",
"71 992 OFFCURVE",
"71 906 CURVE SMOOTH",
"71 820 OFFCURVE",
"118 752 OFFCURVE",
"204 752 CURVE SMOOTH"
);
}
);
width = 471;
}
);
leftKerningGroup = i;
leftMetricsKey = n;
rightKerningGroup = i;
rightMetricsKey = l;
unicode = 0069;
},
{
color = 4;
glyphname = idotless;
lastChange = "2020-10-20 16:37:45 +0000";
layers = (
{
anchors = (
{
name = top;
position = "{214, 690}";
}
);
layerId = "051A6F9D-4810-4A2B-9A38-EB5980E546A5";
paths = (
{
closed = 1;
nodes = (
"439 0 LINE",
"439 193 LINE",
"334 200 LINE",
"45 190 LINE",
"45 0 LINE"
);
},
{
closed = 1;
nodes = (
"368 0 LINE",
"348 197 OFFCURVE",
"346 394 OFFCURVE",
"346 541 CURVE",
"350 694 LINE",
"163 673 LINE",
"45 666 LINE",
"45 487 LINE",
"134 485 LINE",
"134 323 OFFCURVE",
"134 162 OFFCURVE",
"110 0 CURVE"
);
}
);
width = 469;
}
);
leftMetricsKey = i;
rightMetricsKey = i;
unicode = 0131;
},
{
color = 4;
glyphname = j;
lastChange = "2020-04-16 03:38:35 +0000";
layers = (
{
layerId = "051A6F9D-4810-4A2B-9A38-EB5980E546A5";
paths = (
{
closed = 1;
nodes = (
"48 -276 OFFCURVE",
"99 -295 OFFCURVE",
"171 -295 CURVE SMOOTH",
"268 -295 OFFCURVE",
"350 -247 OFFCURVE",
"344 -104 CURVE SMOOTH",
"332 193 OFFCURVE",
"334 526 OFFCURVE",
"342 694 CURVE",
"149 673 LINE",
"31 666 LINE",
"31 486 LINE",
"121 484 LINE",
"125 362 OFFCURVE",
"123 221 OFFCURVE",
"123 155 CURVE SMOOTH",
"123 37 OFFCURVE",
"120 -27 OFFCURVE",
"118 -45 CURVE",
"20 -45 LINE",
"20 -269 LINE"
);
},
{
closed = 1;
nodes = (
"266 732 OFFCURVE",
"362 791 OFFCURVE",
"362 895 CURVE SMOOTH",
"362 966 OFFCURVE",
"317 1040 OFFCURVE",
"229 1040 CURVE SMOOTH",
"150 1040 OFFCURVE",
"54 981 OFFCURVE",
"54 877 CURVE SMOOTH",
"54 806 OFFCURVE",
"99 732 OFFCURVE",
"187 732 CURVE SMOOTH"
);
}
);
width = 396;
},
{
associatedMasterId = "051A6F9D-4810-4A2B-9A38-EB5980E546A5";
layerId = "D3C29EBB-5371-4A40-840D-DD6C301C5B5A";
name = "Aug 28 18, 16:34";
paths = (
{
closed = 1;
nodes = (
"580 -366 OFFCURVE",
"650 -248 OFFCURVE",
"650 -141 CURVE SMOOTH",
"650 18 OFFCURVE",
"496 39 OFFCURVE",
"387 55 CURVE SMOOTH",
"298 68 OFFCURVE",
"272 85 OFFCURVE",
"272 115 CURVE SMOOTH",
"272 138 OFFCURVE",
"288 160 OFFCURVE",
"353 160 CURVE SMOOTH",
"398 160 OFFCURVE",
"466 145 OFFCURVE",
"496 122 CURVE",
"608 318 LINE",
"512 345 OFFCURVE",
"407 354 OFFCURVE",
"332 354 CURVE SMOOTH",
"76 354 OFFCURVE",
"8 249 OFFCURVE",
"8 138 CURVE SMOOTH",
"8 -1 OFFCURVE",
"113 -27 OFFCURVE",
"302 -51 CURVE SMOOTH",
"373 -60 OFFCURVE",
"425 -65 OFFCURVE",
"425 -102 CURVE SMOOTH",
"425 -125 OFFCURVE",
"406 -149 OFFCURVE",
"309 -149 CURVE SMOOTH",
"232 -149 OFFCURVE",
"152 -134 OFFCURVE",
"112 -108 CURVE",
"0 -324 LINE",
"96 -357 OFFCURVE",
"235 -366 OFFCURVE",
"310 -366 CURVE SMOOTH"
);
},
{
closed = 1;
nodes = (
"112 -334 LINE",
"112 -108 LINE",
"0 -108 LINE",
"0 -324 LINE"
);
},
{
closed = 1;
nodes = (
"608 122 LINE",
"608 318 LINE",
"496 322 LINE",
"496 122 LINE"
);
}
);
width = 600;
}
);
leftKerningGroup = j;
rightKerningGroup = j;
unicode = 006A;
},
{
color = 4;
glyphname = k;
lastChange = "2020-04-16 03:04:47 +0000";
layers = (
{
layerId = "051A6F9D-4810-4A2B-9A38-EB5980E546A5";
paths = (
{
closed = 1;
nodes = (
"341 0 LINE",
"321 197 OFFCURVE",
"319 570 OFFCURVE",
"319 837 CURVE",
"323 990 LINE",
"136 969 LINE",
"18 962 LINE",
"18 783 LINE",
"107 781 LINE",
"107 499 OFFCURVE",
"107 162 OFFCURVE",
"83 0 CURVE"
);
},
{
closed = 1;
nodes = (
"394 0 LINE",
"394 193 LINE",
"307 200 LINE",
"18 190 LINE",
"18 0 LINE"
);
},
{
closed = 1;
nodes = (
"816 0 LINE",
"816 190 LINE",
"536 200 LINE",
"458 193 LINE",
"458 0 LINE"
);
},
{
closed = 1;
nodes = (
"766 0 LINE",
"736 156 OFFCURVE",
"736 191 OFFCURVE",
"736 247 CURVE SMOOTH",
"736 410 OFFCURVE",
"635 425 OFFCURVE",
"545 425 CURVE SMOOTH",
"509 425 OFFCURVE",
"440 429 OFFCURVE",
"308 328 CURVE",
"306 213 LINE",
"345 251 OFFCURVE",
"393 272 OFFCURVE",
"442 272 CURVE SMOOTH",
"490 272 OFFCURVE",
"522 246 OFFCURVE",
"522 207 CURVE",
"522 191 OFFCURVE",
"522 116 OFFCURVE",
"502 0 CURVE"
);
},
{
closed = 1;
nodes = (
"450 369 LINE",
"675 497 LINE",
"786 502 LINE",
"786 690 LINE",
"395 690 LINE",
"395 501 LINE",
"498 497 LINE",
"295 370 LINE",
"280 257 LINE"
);
}
);
width = 826;
}
);
leftKerningGroup = l;
leftMetricsKey = l;
rightKerningGroup = k;
unicode = 006B;
},
{
color = 4;
glyphname = l;
lastChange = "2020-04-16 21:28:01 +0000";
layers = (
{
layerId = "051A6F9D-4810-4A2B-9A38-EB5980E546A5";
paths = (
{
closed = 1;
nodes = (
"412 0 LINE",
"412 193 LINE",
"307 200 LINE",
"18 190 LINE",
"18 0 LINE"
);
},
{
closed = 1;
nodes = (
"341 0 LINE",
"327 196 OFFCURVE",
"319 569 OFFCURVE",
"319 837 CURVE",
"323 990 LINE",
"136 969 LINE",
"18 962 LINE",
"18 783 LINE",
"107 781 LINE",
"107 499 OFFCURVE",
"107 162 OFFCURVE",
"83 0 CURVE"
);
}
);
width = 442;
},
{
associatedMasterId = "051A6F9D-4810-4A2B-9A38-EB5980E546A5";
layerId = "6411ECCE-F731-4CA0-A498-D4C2DA67D18D";
name = "Aug 27 18, 16:40";
paths = (
{
closed = 1;
nodes = (
"441 0 LINE",
"441 193 LINE",
"337 200 LINE",
"43 190 LINE",
"43 0 LINE"
);
},
{
closed = 1;
nodes = (
"371 0 LINE",
"351 197 OFFCURVE",
"349 394 OFFCURVE",
"349 541 CURVE",
"353 694 LINE",
"166 673 LINE",
"44 666 LINE",
"44 485 LINE",
"137 485 LINE",
"137 323 OFFCURVE",
"137 162 OFFCURVE",
"113 0 CURVE"
);
}
);
width = 437;
}
);
leftKerningGroup = l;
rightKerningGroup = l;
unicode = 006C;
},
{
color = 4;
glyphname = lslash;
lastChange = "2020-10-20 16:29:45 +0000";
layers = (
{
components = (
{
locked = 1;
name = l;
transform = "{1, 0, 0, 1, 68, 0}";
}
);
layerId = "051A6F9D-4810-4A2B-9A38-EB5980E546A5";
leftMetricsKey = "=-1";
rightMetricsKey = "=-18";
paths = (
{
closed = 1;
nodes = (
"280 451 LINE",
"577 589 LINE",
"577 630 LINE",
"468 735 LINE",
"296 548 LINE",
"-1 410 LINE",
"-1 369 LINE",
"108 264 LINE"
);
}
);
width = 559;
}
);
leftKerningGroup = lslash;
rightKerningGroup = lslash;
unicode = 0142;
},
{
color = 4;
glyphname = m;
lastChange = "2020-04-15 22:59:04 +0000";
layers = (
{
guideLines = (
{
position = "{908, 118}";
showMeasurement = 1;
},
{
position = "{836, 398}";
}
);
layerId = "051A6F9D-4810-4A2B-9A38-EB5980E546A5";
leftMetricsKey = "=n";
paths = (
{
closed = 1;
nodes = (
"779 0 LINE",
"749 156 OFFCURVE",
"749 311 OFFCURVE",
"749 467 CURVE SMOOTH",
"749 593 OFFCURVE",
"703 705 OFFCURVE",
"573 705 CURVE SMOOTH",
"459 705 OFFCURVE",
"354 619 OFFCURVE",
"308 404 CURVE",
"321 350 LINE",
"344 392 OFFCURVE",
"374 453 OFFCURVE",
"450 453 CURVE SMOOTH",
"495 453 OFFCURVE",
"535 434 OFFCURVE",
"535 347 CURVE",
"535 231 OFFCURVE",
"535 116 OFFCURVE",
"515 0 CURVE"
);
},
{
closed = 1;
nodes = (
"413 0 LINE",
"413 193 LINE",
"335 200 LINE",
"45 190 LINE",
"45 0 LINE"
);
},
{
closed = 1;
nodes = (
"369 0 LINE",
"349 197 OFFCURVE",
"347 394 OFFCURVE",
"347 541 CURVE",
"351 694 LINE",
"164 673 LINE",
"46 666 LINE",
"46 487 LINE",
"135 485 LINE",
"135 323 OFFCURVE",
"135 162 OFFCURVE",
"111 0 CURVE"
);
},
{
closed = 1;
nodes = (
"814 0 LINE",
"814 190 LINE",
"549 200 LINE",
"471 193 LINE",
"471 0 LINE"
);
},
{
closed = 1;
nodes = (
"1180 0 LINE",
"1150 156 OFFCURVE",
"1150 311 OFFCURVE",
"1150 467 CURVE SMOOTH",
"1150 594 OFFCURVE",
"1102 705 OFFCURVE",
"966 705 CURVE SMOOTH",
"854 705 OFFCURVE",
"760 629 OFFCURVE",
"730 476 CURVE",
"736 380 LINE",
"783 440 OFFCURVE",
"825 453 OFFCURVE",
"855 453 CURVE SMOOTH",
"896 453 OFFCURVE",
"936 436 OFFCURVE",
"936 347 CURVE",
"936 231 OFFCURVE",
"936 116 OFFCURVE",
"916 0 CURVE"
);
},
{
closed = 1;
nodes = (
"1243 0 LINE",
"1243 190 LINE",
"950 200 LINE",
"872 193 LINE",
"872 0 LINE"
);
}
);
width = 1268;
},
{
associatedMasterId = "051A6F9D-4810-4A2B-9A38-EB5980E546A5";
guideLines = (
{
position = "{759, 391}";
},
{
position = "{759, 559}";
}
);
layerId = "B65A20FF-8045-411A-963D-969F0C1CC2E0";
leftMetricsKey = "=n";
name = "Aug 24 18, 16:04";
paths = (
{
closed = 1;
nodes = (
"865 705 OFFCURVE",
"756 639 OFFCURVE",
"723 483 CURVE",
"732 357 LINE",
"760 439 OFFCURVE",
"830 453 OFFCURVE",
"863 453 CURVE SMOOTH",
"939 453 OFFCURVE",
"989 398 OFFCURVE",
"989 305 CURVE SMOOTH",
"989 225 OFFCURVE",
"946 190 OFFCURVE",
"924 190 CURVE",
"877 190 LINE",
"877 0 LINE",
"1223 0 LINE",
"1223 190 LINE",
"1118 190 LINE",
"1186 241 OFFCURVE",
"1215 330 OFFCURVE",
"1215 403 CURVE SMOOTH",
"1215 630 OFFCURVE",
"1076 705 OFFCURVE",
"972 705 CURVE SMOOTH"
);
},
{
closed = 1;
nodes = (
"786 0 LINE",
"756 156 OFFCURVE",
"756 311 OFFCURVE",
"756 467 CURVE SMOOTH",
"756 593 OFFCURVE",
"715 705 OFFCURVE",
"575 705 CURVE SMOOTH",
"464 705 OFFCURVE",
"357 627 OFFCURVE",
"310 458 CURVE",
"318 350 LINE",
"355 449 OFFCURVE",
"424 453 OFFCURVE",
"455 453 CURVE SMOOTH",
"502 453 OFFCURVE",
"542 434 OFFCURVE",
"542 347 CURVE",
"542 231 OFFCURVE",
"542 116 OFFCURVE",
"522 0 CURVE"
);
},
{
closed = 1;
nodes = (
"415 0 LINE",
"415 193 LINE",
"337 200 LINE",
"43 190 LINE",
"43 0 LINE"
);
},
{
closed = 1;
nodes = (
"371 0 LINE",
"351 197 OFFCURVE",
"349 394 OFFCURVE",
"349 541 CURVE",
"353 694 LINE",
"166 673 LINE",
"44 666 LINE",
"44 485 LINE",
"137 485 LINE",
"137 323 OFFCURVE",
"137 162 OFFCURVE",
"113 0 CURVE"
);
},
{
closed = 1;
nodes = (
"821 0 LINE",
"821 190 LINE",
"556 200 LINE",
"478 193 LINE",
"478 0 LINE"
);
}
);
width = 1239;
},
{
associatedMasterId = "051A6F9D-4810-4A2B-9A38-EB5980E546A5";
guideLines = (
{
position = "{741, 391}";
},
{
position = "{741, 453}";
}
);
layerId = "AD92D9A7-246F-4433-B63D-411AA9349C64";
leftMetricsKey = "=n";
name = "Aug 27 18, 16:37";
paths = (
{
closed = 1;
nodes = (
"353 690 LINE",
"44 680 LINE",
"44 490 LINE",
"137 490 LINE",
"137 0 LINE",
"351 0 LINE",
"351 591 LINE"
);
},
{
closed = 1;
nodes = (
"44 190 LINE",
"44 0 LINE",
"419 0 LINE",
"419 193 LINE",
"341 200 LINE"
);
},
{
closed = 1;
nodes = (
"367 416 OFFCURVE",
"400 453 OFFCURVE",
"464 453 CURVE SMOOTH",
"508 453 OFFCURVE",
"548 435 OFFCURVE",
"548 347 CURVE",
"548 0 LINE",
"762 0 LINE",
"762 467 LINE SMOOTH",
"762 593 OFFCURVE",
"717 705 OFFCURVE",
"568 705 CURVE SMOOTH",
"472 705 OFFCURVE",
"380 658 OFFCURVE",
"336 581 CURVE",
"344 390 LINE"
);
},
{
closed = 1;
nodes = (
"484 193 LINE",
"484 0 LINE",
"833 0 LINE",
"833 190 LINE",
"562 200 LINE"
);
},
{
closed = 1;
nodes = (
"860 705 OFFCURVE",
"755 654 OFFCURVE",
"723 553 CURVE",
"745 357 LINE",
"773 439 OFFCURVE",
"841 453 OFFCURVE",
"871 453 CURVE SMOOTH",
"930 453 OFFCURVE",
"989 398 OFFCURVE",
"989 305 CURVE SMOOTH",
"989 225 OFFCURVE",
"946 190 OFFCURVE",
"924 190 CURVE",
"877 190 LINE",
"877 0 LINE",
"1223 0 LINE",
"1223 190 LINE",
"1118 190 LINE",
"1186 241 OFFCURVE",
"1215 330 OFFCURVE",
"1215 403 CURVE SMOOTH",
"1215 630 OFFCURVE",
"1066 705 OFFCURVE",
"953 705 CURVE SMOOTH"
);
}
);
width = 1235;
}
);
leftKerningGroup = n;
leftMetricsKey = n;
rightKerningGroup = n;
rightMetricsKey = n;
unicode = 006D;
},
{
color = 4;
glyphname = n;
lastChange = "2020-04-15 22:56:32 +0000";
layers = (
{
anchors = (
{
name = top;
position = "{485, 690}";
}
);
guideLines = (
{
angle = 90;
position = "{41, 627}";
}
);
layerId = "051A6F9D-4810-4A2B-9A38-EB5980E546A5";
paths = (
{
closed = 1;
nodes = (
"793 0 LINE",
"763 156 OFFCURVE",
"763 311 OFFCURVE",
"763 467 CURVE SMOOTH",
"763 593 OFFCURVE",
"722 705 OFFCURVE",
"586 705 CURVE SMOOTH",
"517 705 OFFCURVE",
"387 680 OFFCURVE",
"333 481 CURVE",
"341 390 LINE",
"388 449 OFFCURVE",
"445 453 OFFCURVE",
"468 453 CURVE SMOOTH",
"509 453 OFFCURVE",
"549 434 OFFCURVE",
"549 347 CURVE",
"549 231 OFFCURVE",
"549 116 OFFCURVE",
"529 0 CURVE"
);
},
{
closed = 1;
nodes = (
"416 0 LINE",
"416 193 LINE",
"338 200 LINE",
"45 190 LINE",
"45 0 LINE"
);
},
{
closed = 1;
nodes = (
"368 0 LINE",
"340 197 OFFCURVE",
"346 394 OFFCURVE",
"346 541 CURVE",
"350 694 LINE",
"163 673 LINE",
"45 666 LINE",
"45 487 LINE",
"134 485 LINE",
"134 323 OFFCURVE",
"134 162 OFFCURVE",
"110 0 CURVE"
);
},
{
closed = 1;
nodes = (
"856 0 LINE",
"856 190 LINE",
"559 200 LINE",
"481 193 LINE",
"481 0 LINE"
);
}
);
width = 881;
},
{
associatedMasterId = "051A6F9D-4810-4A2B-9A38-EB5980E546A5";
guideLines = (
{
position = "{54, 627}";
}
);
layerId = "08F5CA87-394A-42B9-87A7-D70BB4E06DA1";
name = "Aug 27 18, 16:24";
paths = (
{
closed = 1;
nodes = (
"353 690 LINE",
"44 680 LINE",
"44 490 LINE",
"137 490 LINE",
"137 0 LINE",
"351 0 LINE",
"351 591 LINE"
);
},
{
closed = 1;
nodes = (
"44 190 LINE",
"44 0 LINE",
"419 0 LINE",
"419 193 LINE",
"341 200 LINE"
);
},
{
closed = 1;
nodes = (
"391 449 OFFCURVE",
"450 453 OFFCURVE",
"477 453 CURVE SMOOTH",
"538 453 OFFCURVE",
"578 434 OFFCURVE",
"578 347 CURVE",
"578 0 LINE",
"792 0 LINE",
"792 467 LINE SMOOTH",
"792 593 OFFCURVE",
"751 706 OFFCURVE",
"571 706 CURVE SMOOTH",
"490 706 OFFCURVE",
"390 680 OFFCURVE",
"336 601 CURVE",
"344 390 LINE"
);
},
{
closed = 1;
nodes = (
"514 193 LINE",
"514 0 LINE",
"885 0 LINE",
"885 190 LINE",
"592 200 LINE"
);
}
);
width = 905;
}
);
leftKerningGroup = n;
rightKerningGroup = n;
unicode = 006E;
},
{
color = 4;
glyphname = o;
lastChange = "2020-04-16 21:26:54 +0000";
layers = (
{
anchors = (
{
name = top;
position = "{409, 690}";
}
);
layerId = "051A6F9D-4810-4A2B-9A38-EB5980E546A5";
paths = (
{
closed = 1;
nodes = (
"570 -15 OFFCURVE",
"731 140 OFFCURVE",
"731 362 CURVE SMOOTH",
"731 522 OFFCURVE",
"648 705 OFFCURVE",
"412 705 CURVE SMOOTH",
"207 705 OFFCURVE",
"33 565 OFFCURVE",
"33 322 CURVE SMOOTH",
"33 149 OFFCURVE",
"121 -15 OFFCURVE",
"349 -15 CURVE SMOOTH"
);
},
{
closed = 1;
nodes = (
"292 237 OFFCURVE",
"236 279 OFFCURVE",
"236 341 CURVE SMOOTH",
"236 402 OFFCURVE",
"290 454 OFFCURVE",
"384 454 CURVE SMOOTH",
"468 454 OFFCURVE",
"526 412 OFFCURVE",
"526 350 CURVE SMOOTH",
"526 289 OFFCURVE",
"470 237 OFFCURVE",
"376 237 CURVE SMOOTH"
);
}
);
width = 776;
}
);
leftKerningGroup = o;
rightKerningGroup = o;
unicode = 006F;
},
{
color = 4;
glyphname = oe;
lastChange = "2020-10-20 16:42:44 +0000";
layers = (
{
layerId = "051A6F9D-4810-4A2B-9A38-EB5980E546A5";
paths = (
{
closed = 1;
nodes = (
"1046 -15 OFFCURVE",
"1157 73 OFFCURVE",
"1204 192 CURVE",
"1109 274 LINE",
"1064 245 OFFCURVE",
"998 225 OFFCURVE",
"911 225 CURVE SMOOTH",
"788 225 OFFCURVE",
"731 271 OFFCURVE",
"731 353 CURVE SMOOTH",
"731 430 OFFCURVE",
"786 482 OFFCURVE",
"879 482 CURVE SMOOTH",
"955 482 OFFCURVE",
"1013 440 OFFCURVE",
"1013 363 CURVE SMOOTH",
"1013 341 OFFCURVE",
"1008 323 OFFCURVE",
"998 305 CURVE",
"1219 305 LINE",
"1222 323 OFFCURVE",
"1224 347 OFFCURVE",
"1224 371 CURVE SMOOTH",
"1224 528 OFFCURVE",
"1141 705 OFFCURVE",
"905 705 CURVE SMOOTH",
"685 705 OFFCURVE",
"546 550 OFFCURVE",
"546 325 CURVE SMOOTH",
"546 149 OFFCURVE",
"624 -15 OFFCURVE",
"868 -15 CURVE SMOOTH"
);
},
{
closed = 1;
nodes = (
"570 -15 OFFCURVE",
"711 140 OFFCURVE",
"711 362 CURVE SMOOTH",
"711 522 OFFCURVE",
"648 705 OFFCURVE",
"412 705 CURVE SMOOTH",
"207 705 OFFCURVE",
"33 565 OFFCURVE",
"33 322 CURVE SMOOTH",
"33 149 OFFCURVE",
"121 -15 OFFCURVE",
"349 -15 CURVE SMOOTH"
);
},
{
closed = 1;
nodes = (
"292 237 OFFCURVE",
"236 279 OFFCURVE",
"236 341 CURVE SMOOTH",
"236 402 OFFCURVE",
"290 454 OFFCURVE",
"384 454 CURVE SMOOTH",
"468 454 OFFCURVE",
"526 412 OFFCURVE",
"526 350 CURVE SMOOTH",
"526 289 OFFCURVE",
"470 237 OFFCURVE",
"376 237 CURVE SMOOTH"
);
},
{
closed = 1;
nodes = (
"1181 305 LINE",
"1181 392 LINE",
"668 392 LINE",
"668 305 LINE"
);
}
);
width = 1269;
}
);
leftMetricsKey = o;
rightMetricsKey = e;
unicode = 0153;
},
{
color = 4;
glyphname = p;
lastChange = "2020-04-16 21:26:47 +0000";
layers = (
{
layerId = "051A6F9D-4810-4A2B-9A38-EB5980E546A5";
leftMetricsKey = "=28";
paths = (
{
closed = 1;
nodes = (
"657 -13 OFFCURVE",
"798 92 OFFCURVE",
"798 361 CURVE SMOOTH",
"798 509 OFFCURVE",
"749 700 OFFCURVE",
"553 700 CURVE SMOOTH",
"353 700 OFFCURVE",
"217 466 OFFCURVE",
"219 363 CURVE",
"239 302 LINE",
"267 396 OFFCURVE",
"377 452 OFFCURVE",
"461 452 CURVE SMOOTH",
"530 452 OFFCURVE",
"587 412 OFFCURVE",
"587 351 CURVE SMOOTH",
"587 288 OFFCURVE",
"530 238 OFFCURVE",
"455 238 CURVE SMOOTH",
"414 238 OFFCURVE",
"360 253 OFFCURVE",
"319 283 CURVE",
"303 233 LINE",
"275 148 OFFCURVE",
"340 -13 OFFCURVE",
"523 -13 CURVE SMOOTH"
);
},
{
closed = 1;
nodes = (
"466 -280 LINE",
"466 -87 LINE",
"317 -80 LINE",
"28 -90 LINE",
"28 -280 LINE"
);
},
{
closed = 1;
nodes = (
"351 -280 LINE",
"331 -83 OFFCURVE",
"329 236 OFFCURVE",
"329 541 CURVE",
"333 694 LINE",
"146 673 LINE",
"28 666 LINE",
"28 487 LINE",
"117 485 LINE",
"117 153 OFFCURVE",
"117 -118 OFFCURVE",
"93 -280 CURVE"
);
}
);
width = 843;
},
{
associatedMasterId = "051A6F9D-4810-4A2B-9A38-EB5980E546A5";
layerId = "60C5A2FA-DCE3-420E-AC12-F574FC777342";
name = "Aug 27 18, 16:45";
paths = (
{
closed = 1;
nodes = (
"647 -11 OFFCURVE",
"791 122 OFFCURVE",
"791 358 CURVE SMOOTH",
"791 510 OFFCURVE",
"731 703 OFFCURVE",
"508 703 CURVE SMOOTH",
"354 703 OFFCURVE",
"230 580 OFFCURVE",
"211 505 CURVE",
"231 372 LINE",
"260 436 OFFCURVE",
"365 468 OFFCURVE",
"438 468 CURVE SMOOTH",
"513 468 OFFCURVE",
"580 435 OFFCURVE",
"580 358 CURVE SMOOTH",
"580 287 OFFCURVE",
"524 226 OFFCURVE",
"425 226 CURVE SMOOTH",
"369 226 OFFCURVE",
"301 245 OFFCURVE",
"285 253 CURVE",
"273 10 LINE",
"280 4 OFFCURVE",
"383 -11 OFFCURVE",
"450 -11 CURVE SMOOTH"
);
},
{
closed = 1;
nodes = (
"319 690 LINE",
"10 680 LINE",
"10 490 LINE",
"103 490 LINE",
"103 -350 LINE",
"317 -350 LINE",
"317 591 LINE"
);
},
{
closed = 1;
nodes = (
"10 -160 LINE",
"10 -350 LINE",
"417 -350 LINE",
"417 -157 LINE",
"307 -150 LINE"
);
}
);
width = 821;
},
{
associatedMasterId = "051A6F9D-4810-4A2B-9A38-EB5980E546A5";
layerId = "7B3BE8C8-8980-4CEA-926B-97E21046A448";
name = "Apr 8 20, 13:25";
paths = (
{
closed = 1;
nodes = (
"672 -15 OFFCURVE",
"799 122 OFFCURVE",
"799 361 CURVE SMOOTH",
"799 509 OFFCURVE",
"750 703 OFFCURVE",
"550 703 CURVE SMOOTH",
"350 703 OFFCURVE",
"214 478 OFFCURVE",
"216 355 CURVE",
"236 302 LINE",
"264 396 OFFCURVE",
"374 454 OFFCURVE",
"458 454 CURVE SMOOTH",
"528 454 OFFCURVE",
"585 414 OFFCURVE",
"585 351 CURVE SMOOTH",
"585 288 OFFCURVE",
"528 238 OFFCURVE",
"432 238 CURVE SMOOTH",
"373 238 OFFCURVE",
"306 257 OFFCURVE",
"290 265 CURVE",
"188 120 LINE",
"209 102 OFFCURVE",
"349 -15 OFFCURVE",
"504 -15 CURVE SMOOTH"
);
},
{
closed = 1;
nodes = (
"458 -280 LINE",
"458 -87 LINE",
"309 -80 LINE",
"15 -90 LINE",
"15 -280 LINE"
);
},
{
closed = 1;
nodes = (
"343 -280 LINE",
"323 -83 OFFCURVE",
"321 236 OFFCURVE",
"321 541 CURVE",
"325 694 LINE",
"138 673 LINE",
"16 666 LINE",
"16 485 LINE",
"109 485 LINE",
"109 153 OFFCURVE",
"109 -118 OFFCURVE",
"85 -280 CURVE"
);
}
);
width = 834;
}
);
leftKerningGroup = p;
leftMetricsKey = l;
rightKerningGroup = o;
rightMetricsKey = o;
unicode = 0070;
},
{
color = 4;
glyphname = q;
lastChange = "2020-04-15 22:59:04 +0000";
layers = (
{
layerId = "051A6F9D-4810-4A2B-9A38-EB5980E546A5";
paths = (
{
closed = 1;
nodes = (
"807 -280 LINE",
"807 -87 LINE",
"702 -80 LINE",
"368 -90 LINE",
"368 -280 LINE"
);
},
{
closed = 1;
nodes = (
"736 -280 LINE",
"716 -83 OFFCURVE",
"717 224 OFFCURVE",
"717 541 CURVE",
"721 694 LINE",
"529 681 LINE",
"502 485 LINE",
"502 153 OFFCURVE",
"502 -118 OFFCURVE",
"478 -280 CURVE"
);
},
{
closed = 1;
nodes = (
"483 -13 OFFCURVE",
"543 168 OFFCURVE",
"515 253 CURVE",
"519 283 LINE",
"478 253 OFFCURVE",
"425 236 OFFCURVE",
"368 236 CURVE SMOOTH",
"299 236 OFFCURVE",
"243 276 OFFCURVE",
"244 337 CURVE SMOOTH",
"245 400 OFFCURVE",
"303 450 OFFCURVE",
"398 450 CURVE SMOOTH",
"457 450 OFFCURVE",
"524 431 OFFCURVE",
"539 423 CURVE",
"569 488 LINE",
"558 506 OFFCURVE",
"505 700 OFFCURVE",
"330 700 CURVE SMOOTH",
"163 700 OFFCURVE",
"33 561 OFFCURVE",
"33 306 CURVE SMOOTH",
"33 113 OFFCURVE",
"132 -13 OFFCURVE",
"282 -13 CURVE SMOOTH"
);
}
);
width = 798;
}
);
leftKerningGroup = o;
leftMetricsKey = o;
rightKerningGroup = q;
unicode = 0071;
},
{
color = 4;
glyphname = r;
lastChange = "2020-04-16 21:29:03 +0000";
layers = (
{
layerId = "051A6F9D-4810-4A2B-9A38-EB5980E546A5";
paths = (
{
closed = 1;
nodes = (
"499 0 LINE",
"499 193 LINE",
"339 200 LINE",
"45 190 LINE",
"45 0 LINE"
);
},
{
closed = 1;
nodes = (
"351 368 OFFCURVE",
"389 443 OFFCURVE",
"463 443 CURVE SMOOTH",
"496 443 OFFCURVE",
"516 428 OFFCURVE",
"527 414 CURVE",
"639 673 LINE",
"603 696 OFFCURVE",
"577 705 OFFCURVE",
"546 705 CURVE SMOOTH",
"384 705 OFFCURVE",
"329 511 OFFCURVE",
"319 340 CURVE",
"333 286 LINE"
);
},
{
closed = 1;
nodes = (
"639 414 LINE",
"639 673 LINE",
"541 673 LINE",
"527 414 LINE"
);
},
{
closed = 1;
nodes = (
"368 0 LINE",
"340 197 OFFCURVE",
"346 394 OFFCURVE",
"346 541 CURVE",
"350 694 LINE",
"163 673 LINE",
"45 666 LINE",
"45 487 LINE",
"134 485 LINE",
"134 323 OFFCURVE",
"134 162 OFFCURVE",
"110 0 CURVE"
);
}
);
width = 660;
},
{
associatedMasterId = "051A6F9D-4810-4A2B-9A38-EB5980E546A5";
layerId = "805D6C42-8326-4C0C-895B-82ED9F5AB49F";
name = "Aug 27 18, 16:41";
paths = (
{
closed = 1;
nodes = (
"350 375 OFFCURVE",
"390 445 OFFCURVE",
"467 445 CURVE SMOOTH",
"498 445 OFFCURVE",
"527 429 OFFCURVE",
"537 407 CURVE",
"649 673 LINE",
"613 696 OFFCURVE",
"587 705 OFFCURVE",
"542 705 CURVE SMOOTH",
"360 705 OFFCURVE",
"310 511 OFFCURVE",
"310 340 CURVE",
"350 286 LINE"
);
},
{
closed = 1;
nodes = (
"451 0 LINE",
"451 193 LINE",
"341 200 LINE",
"44 190 LINE",
"44 0 LINE"
);
},
{
closed = 1;
nodes = (
"351 0 LINE",
"351 591 LINE",
"353 690 LINE",
"44 680 LINE",
"44 490 LINE",
"137 490 LINE",
"137 0 LINE"
);
},
{
closed = 1;
nodes = (
"649 407 LINE",
"649 673 LINE",
"537 673 LINE",
"537 407 LINE"
);
}
);
width = 654;
},
{
associatedMasterId = "051A6F9D-4810-4A2B-9A38-EB5980E546A5";
layerId = "F960CDD0-BFD3-4511-A965-0EADE9497ADF";
name = "Aug 27 18, 16:41";
paths = (
{
closed = 1;
nodes = (
"822 0 LINE",
"792 156 OFFCURVE",
"792 311 OFFCURVE",
"792 467 CURVE SMOOTH",
"792 593 OFFCURVE",
"751 705 OFFCURVE",
"591 705 CURVE SMOOTH",
"520 705 OFFCURVE",
"390 680 OFFCURVE",
"336 511 CURVE",
"344 390 LINE",
"391 449 OFFCURVE",
"450 453 OFFCURVE",
"477 453 CURVE SMOOTH",
"538 453 OFFCURVE",
"578 434 OFFCURVE",
"578 347 CURVE",
"578 231 OFFCURVE",
"578 116 OFFCURVE",
"558 0 CURVE"
);
},
{
closed = 1;
nodes = (
"415 0 LINE",
"415 193 LINE",
"337 200 LINE",
"43 190 LINE",
"43 0 LINE"
);
},
{
closed = 1;
nodes = (
"371 0 LINE",
"351 197 OFFCURVE",
"349 394 OFFCURVE",
"349 541 CURVE",
"353 694 LINE",
"166 673 LINE",
"44 666 LINE",
"44 485 LINE",
"137 485 LINE",
"137 323 OFFCURVE",
"137 162 OFFCURVE",
"113 0 CURVE"
);
}
);
width = 654;
}
);
leftKerningGroup = n;
leftMetricsKey = n;
rightKerningGroup = r;
unicode = 0072;
},
{
color = 4;
glyphname = s;
lastChange = "2020-04-15 22:56:37 +0000";
layers = (
{
anchors = (
{
name = top;
position = "{342, 690}";
}
);
layerId = "051A6F9D-4810-4A2B-9A38-EB5980E546A5";
paths = (
{
closed = 1;
nodes = (
"568 -15 OFFCURVE",
"640 103 OFFCURVE",
"640 206 CURVE SMOOTH",
"640 361 OFFCURVE",
"477 373 OFFCURVE",
"378 390 CURVE SMOOTH",
"321 400 OFFCURVE",
"282 411 OFFCURVE",
"282 438 CURVE SMOOTH",
"282 459 OFFCURVE",
"308 474 OFFCURVE",
"359 474 CURVE SMOOTH",
"408 474 OFFCURVE",
"453 460 OFFCURVE",
"486 436 CURVE",
"598 669 LINE",
"502 696 OFFCURVE",
"408 705 OFFCURVE",
"337 705 CURVE SMOOTH",
"117 705 OFFCURVE",
"48 609 OFFCURVE",
"48 502 CURVE SMOOTH",
"48 367 OFFCURVE",
"149 343 OFFCURVE",
"301 311 CURVE SMOOTH",
"349 301 OFFCURVE",
"401 297 OFFCURVE",
"401 257 CURVE SMOOTH",
"401 233 OFFCURVE",
"372 217 OFFCURVE",
"309 217 CURVE SMOOTH",
"252 217 OFFCURVE",
"189 232 OFFCURVE",
"149 258 CURVE",
"37 27 LINE",
"133 -6 OFFCURVE",
"254 -15 OFFCURVE",
"314 -15 CURVE SMOOTH"
);
},
{
closed = 1;
nodes = (
"149 258 LINE",
"37 258 LINE",
"37 27 LINE",
"149 17 LINE"
);
},
{
closed = 1;
nodes = (
"598 436 LINE",
"598 669 LINE",
"486 673 LINE",
"486 436 LINE"
);
}
);
width = 653;
},
{
associatedMasterId = "051A6F9D-4810-4A2B-9A38-EB5980E546A5";
layerId = "1D130678-9889-423B-BBCA-E36DD65A57DE";
name = "Aug 24 18, 16:44";
paths = (
{
closed = 1;
nodes = (
"584 -16 OFFCURVE",
"751 62 OFFCURVE",
"751 219 CURVE SMOOTH",
"751 378 OFFCURVE",
"581 401 OFFCURVE",
"488 413 CURVE SMOOTH",
"365 429 OFFCURVE",
"304 415 OFFCURVE",
"304 462 CURVE SMOOTH",
"304 484 OFFCURVE",
"317 506 OFFCURVE",
"437 503 CURVE SMOOTH",
"507 501 OFFCURVE",
"561 492 OFFCURVE",
"597 467 CURVE",
"709 673 LINE",
"613 696 OFFCURVE",
"514 705 OFFCURVE",
"420 705 CURVE SMOOTH",
"112 705 OFFCURVE",
"40 609 OFFCURVE",
"40 501 CURVE SMOOTH",
"40 362 OFFCURVE",
"159 346 OFFCURVE",
"403 307 CURVE SMOOTH",
"463 297 OFFCURVE",
"525 290 OFFCURVE",
"525 259 CURVE SMOOTH",
"525 226 OFFCURVE",
"454 221 OFFCURVE",
"389 221 CURVE SMOOTH",
"273 221 OFFCURVE",
"223 237 OFFCURVE",
"212 267 CURVE",
"232 284 LINE",
"231 324 LINE",
"45 324 LINE",
"33 281 OFFCURVE",
"30 246 OFFCURVE",
"30 221 CURVE SMOOTH",
"30 81 OFFCURVE",
"126 -16 OFFCURVE",
"367 -16 CURVE SMOOTH"
);
},
{
closed = 1;
nodes = (
"709 467 LINE",
"709 673 LINE",
"597 673 LINE",
"597 467 LINE"
);
}
);
width = 600;
}
);
leftKerningGroup = s;
rightKerningGroup = s;
unicode = 0073;
},
{
color = 6;
glyphname = germandbls;
lastChange = "2020-10-20 19:25:13 +0000";
layers = (
{
layerId = "051A6F9D-4810-4A2B-9A38-EB5980E546A5";
paths = (
{
closed = 1;
nodes = (
"768 -15 OFFCURVE",
"878 88 OFFCURVE",
"878 243 CURVE SMOOTH",
"878 469 OFFCURVE",
"641 490 OFFCURVE",
"641 593 CURVE SMOOTH",
"641 654 OFFCURVE",
"720 710 OFFCURVE",
"720 798 CURVE SMOOTH",
"720 938 OFFCURVE",
"595 1002 OFFCURVE",
"434 1002 CURVE SMOOTH",
"248 1002 OFFCURVE",
"122 916 OFFCURVE",
"123 707 CURVE SMOOTH",
"124 580 OFFCURVE",
"130 370 OFFCURVE",
"122 193 CURVE",
"42 190 LINE",
"42 0 LINE",
"366 0 LINE",
"346 197 OFFCURVE",
"344 346 OFFCURVE",
"344 683 CURVE SMOOTH",
"344 750 OFFCURVE",
"372 782 OFFCURVE",
"423 782 CURVE SMOOTH",
"464 782 OFFCURVE",
"495 761 OFFCURVE",
"495 720 CURVE SMOOTH",
"495 678 OFFCURVE",
"434 626 OFFCURVE",
"434 553 CURVE SMOOTH",
"434 476 OFFCURVE",
"476 423 OFFCURVE",
"564 360 CURVE SMOOTH",
"592 340 OFFCURVE",
"637 315 OFFCURVE",
"637 276 CURVE SMOOTH",
"637 246 OFFCURVE",
"615 217 OFFCURVE",
"582 217 CURVE SMOOTH",
"559 217 OFFCURVE",
"536 232 OFFCURVE",
"521 258 CURVE",
"409 258 LINE",
"409 27 LINE",
"515 -9 OFFCURVE",
"559 -15 OFFCURVE",
"602 -15 CURVE SMOOTH"
);
},
{
closed = 1;
nodes = (
"281 497 LINE",
"281 690 LINE",
"172 690 LINE",
"42 674 LINE",
"42 497 LINE"
);
}
);
width = 891;
}
);
leftMetricsKey = f;
rightMetricsKey = s;
unicode = 00DF;
},
{
color = 4;
glyphname = t;
lastChange = "2020-04-15 22:09:37 +0000";
layers = (
{
layerId = "051A6F9D-4810-4A2B-9A38-EB5980E546A5";
paths = (
{
closed = 1;
nodes = (
"453 -15 OFFCURVE",
"525 114 OFFCURVE",
"544 190 CURVE",
"449 280 LINE",
"425 258 OFFCURVE",
"400 234 OFFCURVE",
"366 234 CURVE SMOOTH",
"316 234 OFFCURVE",
"303 262 OFFCURVE",
"302 313 CURVE SMOOTH",
"299 461 OFFCURVE",
"297 579 OFFCURVE",
"297 707 CURVE",
"302 846 LINE",
"107 825 LINE",
"82 681 LINE",
"82 535 OFFCURVE",
"80 358 OFFCURVE",
"74 202 CURVE SMOOTH",
"68 39 OFFCURVE",
"141 -15 OFFCURVE",
"287 -15 CURVE SMOOTH"
);
},
{
closed = 1;
nodes = (
"476 497 LINE",
"476 690 LINE",
"129 690 LINE",
"-1 674 LINE",
"-1 497 LINE"
);
}
);
width = 557;
}
);
leftKerningGroup = t;
rightKerningGroup = t;
unicode = 0074;
},
{
color = 4;
glyphname = u;
lastChange = "2020-10-20 16:36:52 +0000";
layers = (
{
anchors = (
{
name = top;
position = "{394, 690}";
}
);
layerId = "051A6F9D-4810-4A2B-9A38-EB5980E546A5";
rightMetricsKey = "=n";
paths = (
{
closed = 1;
nodes = (
"346 -16 OFFCURVE",
"466 10 OFFCURVE",
"520 199 CURVE",
"512 300 LINE",
"465 241 OFFCURVE",
"416 237 OFFCURVE",
"389 237 CURVE SMOOTH",
"344 237 OFFCURVE",
"304 256 OFFCURVE",
"304 353 CURVE",
"304 459 OFFCURVE",
"304 574 OFFCURVE",
"311 694 CURVE",
"114 673 LINE",
"-4 666 LINE",
"-4 487 LINE",
"87 485 LINE",
"91 407 OFFCURVE",
"91 315 OFFCURVE",
"91 223 CURVE SMOOTH",
"91 97 OFFCURVE",
"125 -16 OFFCURVE",
"275 -16 CURVE SMOOTH"
);
},
{
closed = 1;
nodes = (
"788 -1 LINE",
"788 159 LINE",
"626 269 LINE",
"626 -1 LINE"
);
},
{
closed = 1;
nodes = (
"704 205 LINE",
"703 367 OFFCURVE",
"704 528 OFFCURVE",
"716 694 CURVE",
"519 673 LINE",
"401 666 LINE",
"401 487 LINE",
"490 485 LINE",
"496 362 OFFCURVE",
"494 245 OFFCURVE",
"494 149 CURVE",
"490 0 LINE",
"679 -1 LINE"
);
}
);
width = 813;
},
{
associatedMasterId = "051A6F9D-4810-4A2B-9A38-EB5980E546A5";
layerId = "8D4D978A-2BB4-4FC3-854E-302090E851E1";
rightMetricsKey = "=n";
name = "Aug 27 18, 16:42";
paths = (
{
closed = 1;
nodes = (
"411 -11 OFFCURVE",
"481 9 OFFCURVE",
"525 88 CURVE",
"525 0 LINE",
"735 0 LINE",
"735 690 LINE",
"428 680 LINE",
"428 490 LINE",
"521 490 LINE",
"521 302 LINE",
"494 243 OFFCURVE",
"441 226 OFFCURVE",
"404 226 CURVE",
"363 226 OFFCURVE",
"323 245 OFFCURVE",
"323 332 CURVE",
"323 690 LINE",
"15 680 LINE",
"15 490 LINE",
"109 490 LINE",
"109 212 LINE SMOOTH",
"109 86 OFFCURVE",
"180 -11 OFFCURVE",
"340 -11 CURVE SMOOTH"
);
},
{
closed = 1;
nodes = (
"817 0 LINE",
"817 160 LINE",
"651 270 LINE",
"651 0 LINE"
);
}
);
width = 837;
}
);
leftKerningGroup = u;
rightKerningGroup = u;
unicode = 0075;
},
{
color = 4;
glyphname = v;
lastChange = "2020-04-16 21:36:51 +0000";
layers = (
{
layerId = "051A6F9D-4810-4A2B-9A38-EB5980E546A5";
paths = (
{
closed = 1;
nodes = (
"134 497 LINE",
"202 334 OFFCURVE",
"279 163 OFFCURVE",
"350 0 CURVE",
"547 0 LINE",
"614 173 OFFCURVE",
"680 344 OFFCURVE",
"748 497 CURVE",
"845 502 LINE",
"845 690 LINE",
"540 690 LINE",
"540 501 LINE",
"612 497 LINE",
"571 382 OFFCURVE",
"552 331 OFFCURVE",
"497 206 CURVE",
"528 214 LINE",
"476 319 OFFCURVE",
"453 382 OFFCURVE",
"410 497 CURVE",
"476 502 LINE",
"476 690 LINE",
"37 690 LINE",
"37 501 LINE"
);
}
);
width = 865;
}
);
leftKerningGroup = v;
rightKerningGroup = v;
unicode = 0076;
},
{
color = 4;
glyphname = w;
lastChange = "2020-04-16 20:45:23 +0000";
layers = (
{
layerId = "051A6F9D-4810-4A2B-9A38-EB5980E546A5";
paths = (
{
closed = 1;
nodes = (
"976 -15 OFFCURVE",
"1099 109 OFFCURVE",
"1099 291 CURVE SMOOTH",
"1099 382 OFFCURVE",
"1055 465 OFFCURVE",
"984 497 CURVE",
"1103 502 LINE",
"1103 690 LINE",
"779 690 LINE",
"779 501 LINE",
"857 496 OFFCURVE",
"903 446 OFFCURVE",
"903 376 CURVE SMOOTH",
"903 286 OFFCURVE",
"849 230 OFFCURVE",
"768 230 CURVE SMOOTH",
"747 230 OFFCURVE",
"722 235 OFFCURVE",
"701 252 CURVE",
"701 389 OFFCURVE",
"702 543 OFFCURVE",
"711 694 CURVE",
"517 673 LINE",
"395 666 LINE",
"395 487 LINE",
"488 485 LINE",
"488 361 OFFCURVE",
"486 243 OFFCURVE",
"484 149 CURVE SMOOTH",
"481 0 LINE",
"601 0 LINE",
"669 -9 OFFCURVE",
"733 -15 OFFCURVE",
"807 -15 CURVE SMOOTH"
);
},
{
closed = 1;
nodes = (
"342 -16 OFFCURVE",
"462 10 OFFCURVE",
"526 209 CURVE",
"508 260 LINE",
"471 241 OFFCURVE",
"431 237 OFFCURVE",
"411 237 CURVE SMOOTH",
"370 237 OFFCURVE",
"323 254 OFFCURVE",
"323 353 CURVE",
"323 459 OFFCURVE",
"323 574 OFFCURVE",
"333 694 CURVE",
"138 673 LINE",
"20 666 LINE",
"20 487 LINE",
"106 485 LINE",
"109 407 OFFCURVE",
"108 315 OFFCURVE",
"108 223 CURVE SMOOTH",
"108 97 OFFCURVE",
"149 -16 OFFCURVE",
"280 -16 CURVE SMOOTH"
);
}
);
width = 1151;
},
{
associatedMasterId = "051A6F9D-4810-4A2B-9A38-EB5980E546A5";
layerId = "2707F5A4-F872-4330-8EE4-4A2216A15C2D";
name = "Apr 16 20, 12:51";
paths = (
{
closed = 1;
nodes = (
"976 -15 OFFCURVE",
"1099 109 OFFCURVE",
"1099 291 CURVE SMOOTH",
"1099 382 OFFCURVE",
"1068 457 OFFCURVE",
"998 497 CURVE",
"1113 502 LINE",
"1113 690 LINE",
"773 690 LINE",
"773 501 LINE",
"851 496 OFFCURVE",
"903 446 OFFCURVE",
"903 376 CURVE SMOOTH",
"903 293 OFFCURVE",
"849 237 OFFCURVE",
"768 237 CURVE SMOOTH",
"747 237 OFFCURVE",
"722 242 OFFCURVE",
"701 259 CURVE",
"701 396 OFFCURVE",
"702 543 OFFCURVE",
"711 694 CURVE",
"517 673 LINE",
"395 666 LINE",
"395 487 LINE",
"488 485 LINE",
"488 361 OFFCURVE",
"486 243 OFFCURVE",
"484 149 CURVE SMOOTH",
"481 0 LINE",
"651 -1 LINE",
"709 -10 OFFCURVE",
"773 -15 OFFCURVE",
"807 -15 CURVE SMOOTH"
);
},
{
closed = 1;
nodes = (
"342 -15 OFFCURVE",
"462 10 OFFCURVE",
"516 209 CURVE",
"508 260 LINE",
"471 241 OFFCURVE",
"431 237 OFFCURVE",
"411 237 CURVE SMOOTH",
"370 237 OFFCURVE",
"323 254 OFFCURVE",
"323 353 CURVE",
"323 459 OFFCURVE",
"323 574 OFFCURVE",
"333 694 CURVE",
"138 673 LINE",
"20 666 LINE",
"20 487 LINE",
"106 485 LINE",
"109 407 OFFCURVE",
"108 315 OFFCURVE",
"108 223 CURVE SMOOTH",
"108 97 OFFCURVE",
"149 -15 OFFCURVE",
"280 -15 CURVE SMOOTH"
);
}
);
width = 1151;
}
);
leftKerningGroup = u;
rightKerningGroup = w;
unicode = 0077;
},
{
color = 4;
glyphname = x;
lastChange = "2020-04-16 03:15:55 +0000";
layers = (
{
associatedMasterId = "051A6F9D-4810-4A2B-9A38-EB5980E546A5";
layerId = "DE19099B-1087-4F3E-8398-EFDAD7C3926A";
name = "Aug 28 18, 09:18";
paths = (
{
closed = 1;
nodes = (
"865 0 LINE",
"865 200 LINE",
"768 200 LINE",
"401 490 LINE",
"427 490 LINE",
"427 690 LINE",
"6 690 LINE",
"6 490 LINE",
"96 490 LINE",
"476 200 LINE",
"444 200 LINE",
"444 0 LINE"
);
},
{
closed = 1;
nodes = (
"809 490 LINE",
"809 690 LINE",
"739 690 LINE",
"-38 131 LINE",
"-38 0 LINE",
"111 0 LINE"
);
}
);
width = 879;
},
{
layerId = "051A6F9D-4810-4A2B-9A38-EB5980E546A5";
paths = (
{
closed = 1;
nodes = (
"892 0 LINE",
"892 193 LINE",
"822 198 LINE",
"732 255 OFFCURVE",
"625 322 OFFCURVE",
"535 388 CURVE",
"485 423 OFFCURVE",
"440 466 OFFCURVE",
"404 498 CURVE",
"459 502 LINE",
"459 690 LINE",
"27 690 LINE",
"27 501 LINE",
"92 498 LINE",
"187 431 OFFCURVE",
"285 364 OFFCURVE",
"375 299 CURVE",
"423 264 OFFCURVE",
"468 229 OFFCURVE",
"497 198 CURVE",
"439 193 LINE",
"439 0 LINE"
);
},
{
closed = 1;
nodes = (
"376 0 LINE",
"376 193 LINE",
"313 197 LINE",
"371 234 OFFCURVE",
"428 276 OFFCURVE",
"486 313 CURVE",
"585 376 OFFCURVE",
"687 434 OFFCURVE",
"799 498 CURVE",
"861 502 LINE",
"861 690 LINE",
"518 690 LINE",
"518 501 LINE",
"597 498 LINE",
"534 456 OFFCURVE",
"474 412 OFFCURVE",
"412 373 CURVE",
"314 312 OFFCURVE",
"211 257 OFFCURVE",
"101 197 CURVE",
"19 193 LINE",
"19 0 LINE"
);
}
);
width = 912;
}
);
leftKerningGroup = x;
rightKerningGroup = x;
unicode = 0078;
},
{
color = 4;
glyphname = y;
lastChange = "2020-10-20 16:36:55 +0000";
layers = (
{
anchors = (
{
name = top;
position = "{394, 690}";
}
);
layerId = "051A6F9D-4810-4A2B-9A38-EB5980E546A5";
paths = (
{
closed = 1;
nodes = (
"573 -294 OFFCURVE",
"732 -100 OFFCURVE",
"732 180 CURVE SMOOTH",
"732 397 OFFCURVE",
"732 528 OFFCURVE",
"746 694 CURVE",
"552 673 LINE",
"434 666 LINE",
"434 487 LINE",
"523 485 LINE",
"529 392 OFFCURVE",
"530 277 OFFCURVE",
"531 191 CURVE SMOOTH",
"532 64 OFFCURVE",
"504 -69 OFFCURVE",
"308 -69 CURVE SMOOTH",
"256 -69 OFFCURVE",
"192 -49 OFFCURVE",
"192 22 CURVE SMOOTH",
"192 61 OFFCURVE",
"215 87 OFFCURVE",
"229 100 CURVE",
"216 137 LINE",
"70 94 OFFCURVE",
"-3 9 OFFCURVE",
"-3 -85 CURVE SMOOTH",
"-3 -227 OFFCURVE",
"111 -294 OFFCURVE",
"278 -294 CURVE SMOOTH"
);
},
{
closed = 1;
nodes = (
"372 27 OFFCURVE",
"492 52 OFFCURVE",
"556 231 CURVE",
"538 330 LINE",
"491 271 OFFCURVE",
"442 267 OFFCURVE",
"415 267 CURVE SMOOTH",
"373 267 OFFCURVE",
"334 286 OFFCURVE",
"334 373 CURVE",
"334 459 OFFCURVE",
"334 574 OFFCURVE",
"344 694 CURVE",
"151 673 LINE",
"31 666 LINE",
"31 487 LINE",
"120 485 LINE",
"124 407 OFFCURVE",
"121 347 OFFCURVE",
"121 265 CURVE SMOOTH",
"121 139 OFFCURVE",
"161 27 OFFCURVE",
"301 27 CURVE SMOOTH"
);
}
);
width = 780;
},
{
associatedMasterId = "051A6F9D-4810-4A2B-9A38-EB5980E546A5";
layerId = "C42BDAA8-6024-4551-AB48-C3E24605C109";
name = "Aug 27 18, 16:58";
paths = (
{
closed = 1;
nodes = (
"361 -15 OFFCURVE",
"481 10 OFFCURVE",
"535 199 CURVE",
"527 300 LINE",
"480 241 OFFCURVE",
"431 237 OFFCURVE",
"404 237 CURVE SMOOTH",
"359 237 OFFCURVE",
"319 256 OFFCURVE",
"319 353 CURVE",
"319 459 OFFCURVE",
"319 574 OFFCURVE",
"326 694 CURVE",
"129 673 LINE",
"11 666 LINE",
"11 485 LINE",
"102 485 LINE",
"106 407 OFFCURVE",
"106 315 OFFCURVE",
"106 223 CURVE SMOOTH",
"106 97 OFFCURVE",
"140 -15 OFFCURVE",
"290 -15 CURVE SMOOTH"
);
},
{
closed = 1;
nodes = (
"803 -1 LINE",
"803 159 LINE",
"641 269 LINE",
"641 -1 LINE"
);
},
{
closed = 1;
nodes = (
"719 205 LINE",
"718 367 OFFCURVE",
"719 528 OFFCURVE",
"731 694 CURVE",
"534 673 LINE",
"416 666 LINE",
"416 485 LINE",
"505 485 LINE",
"511 362 OFFCURVE",
"509 245 OFFCURVE",
"509 149 CURVE",
"505 0 LINE",
"694 -1 LINE"
);
}
);
visible = 1;
width = 795;
}
);
leftKerningGroup = y;
rightKerningGroup = y;
rightMetricsKey = j;
unicode = 0079;
},
{
color = 4;
glyphname = z;
lastChange = "2020-04-15 22:56:42 +0000";
layers = (
{
anchors = (
{
name = top;
position = "{339, 690}";
}
);
layerId = "051A6F9D-4810-4A2B-9A38-EB5980E546A5";
leftMetricsKey = "=25";
rightMetricsKey = "=32";
paths = (
{
closed = 1;
nodes = (
"182 434 LINE",
"182 690 LINE",
"70 690 LINE",
"70 434 LINE"
);
},
{
closed = 1;
nodes = (
"370 323 OFFCURVE",
"493 423 OFFCURVE",
"625 524 CURVE",
"612 690 LINE",
"70 690 LINE",
"182 434 LINE",
"212 465 OFFCURVE",
"271 474 OFFCURVE",
"332 474 CURVE SMOOTH",
"400 474 LINE",
"285 373 OFFCURVE",
"160 273 OFFCURVE",
"25 172 CURVE",
"37 0 LINE",
"630 0 LINE",
"518 265 LINE",
"488 234 OFFCURVE",
"429 222 OFFCURVE",
"368 222 CURVE SMOOTH",
"258 222 LINE"
);
},
{
closed = 1;
nodes = (
"518 265 LINE",
"518 0 LINE",
"630 0 LINE",
"630 265 LINE"
);
}
);
width = 662;
},
{
anchors = (
{
name = top;
position = "{371, 690}";
}
);
associatedMasterId = "051A6F9D-4810-4A2B-9A38-EB5980E546A5";
layerId = "2BA4B4A3-402F-4A3A-A3EC-1DFA3037111B";
leftMetricsKey = "=25";
rightMetricsKey = "=25";
name = "Apr 8 20, 15:00";
paths = (
{
closed = 1;
nodes = (
"156 441 LINE",
"156 690 LINE",
"44 690 LINE",
"44 441 LINE"
);
},
{
closed = 1;
nodes = (
"370 309 OFFCURVE",
"476 377 OFFCURVE",
"592 474 CURVE",
"679 474 LINE",
"679 690 LINE",
"44 690 LINE",
"156 441 LINE",
"186 462 OFFCURVE",
"255 474 OFFCURVE",
"326 474 CURVE SMOOTH",
"420 474 LINE",
"324 377 OFFCURVE",
"221 309 OFFCURVE",
"85 222 CURVE",
"25 222 LINE",
"25 0 LINE",
"700 0 LINE",
"588 255 LINE",
"558 234 OFFCURVE",
"489 222 OFFCURVE",
"418 222 CURVE SMOOTH",
"263 222 LINE"
);
},
{
closed = 1;
nodes = (
"588 255 LINE",
"588 0 LINE",
"700 0 LINE",
"700 255 LINE"
);
}
);
width = 725;
}
);
leftKerningGroup = z;
rightKerningGroup = z;
unicode = 007A;
},
{
color = 4;
glyphname = w.ss01;
lastChange = "2020-04-16 22:02:00 +0000";
layers = (
{
layerId = "051A6F9D-4810-4A2B-9A38-EB5980E546A5";
paths = (
{
closed = 1;
nodes = (
"499 0 LINE",
"537 127 OFFCURVE",
"586 254 OFFCURVE",
"632 381 CURVE",
"542 418 LINE",
"598 282 OFFCURVE",
"650 142 OFFCURVE",
"698 0 CURVE",
"887 0 LINE",
"954 203 OFFCURVE",
"1000 344 OFFCURVE",
"1058 497 CURVE",
"1150 502 LINE",
"1150 690 LINE",
"844 690 LINE",
"844 501 LINE",
"926 497 LINE",
"889 365 OFFCURVE",
"871 317 OFFCURVE",
"807 145 CURVE",
"907 162 LINE",
"851 293 OFFCURVE",
"801 424 OFFCURVE",
"754 557 CURVE",
"564 557 LINE",
"521 418 OFFCURVE",
"468 281 OFFCURVE",
"414 146 CURVE",
"516 161 LINE",
"462 301 OFFCURVE",
"441 366 OFFCURVE",
"403 497 CURVE",
"479 502 LINE",
"479 690 LINE",
"37 690 LINE",
"37 501 LINE",
"134 497 LINE",
"194 334 OFFCURVE",
"260 163 OFFCURVE",
"319 0 CURVE"
);
}
);
width = 1170;
},
{
associatedMasterId = "051A6F9D-4810-4A2B-9A38-EB5980E546A5";
layerId = "2707F5A4-F872-4330-8EE4-4A2216A15C2D";
name = "Apr 16 20, 12:51";
paths = (
{
closed = 1;
nodes = (
"976 -15 OFFCURVE",
"1099 109 OFFCURVE",
"1099 291 CURVE SMOOTH",
"1099 382 OFFCURVE",
"1068 457 OFFCURVE",
"998 497 CURVE",
"1113 502 LINE",
"1113 690 LINE",
"773 690 LINE",
"773 501 LINE",
"851 496 OFFCURVE",
"903 446 OFFCURVE",
"903 376 CURVE SMOOTH",
"903 293 OFFCURVE",
"849 237 OFFCURVE",
"768 237 CURVE SMOOTH",
"747 237 OFFCURVE",
"722 242 OFFCURVE",
"701 259 CURVE",
"701 396 OFFCURVE",
"702 543 OFFCURVE",
"711 694 CURVE",
"517 673 LINE",
"395 666 LINE",
"395 487 LINE",
"488 485 LINE",
"488 361 OFFCURVE",
"486 243 OFFCURVE",
"484 149 CURVE SMOOTH",
"481 0 LINE",
"651 -1 LINE",
"709 -10 OFFCURVE",
"773 -15 OFFCURVE",
"807 -15 CURVE SMOOTH"
);
},
{
closed = 1;
nodes = (
"342 -15 OFFCURVE",
"462 10 OFFCURVE",
"516 209 CURVE",
"508 260 LINE",
"471 241 OFFCURVE",
"431 237 OFFCURVE",
"411 237 CURVE SMOOTH",
"370 237 OFFCURVE",
"323 254 OFFCURVE",
"323 353 CURVE",
"323 459 OFFCURVE",
"323 574 OFFCURVE",
"333 694 CURVE",
"138 673 LINE",
"20 666 LINE",
"20 487 LINE",
"106 485 LINE",
"109 407 OFFCURVE",
"108 315 OFFCURVE",
"108 223 CURVE SMOOTH",
"108 97 OFFCURVE",
"149 -15 OFFCURVE",
"280 -15 CURVE SMOOTH"
);
}
);
width = 1151;
}
);
leftKerningGroup = v;
leftMetricsKey = v;
rightKerningGroup = v;
rightMetricsKey = v;
},
{
color = 4;
glyphname = zero;
lastChange = "2020-04-16 21:20:57 +0000";
layers = (
{
layerId = "051A6F9D-4810-4A2B-9A38-EB5980E546A5";
leftMetricsKey = "=38";
rightMetricsKey = "=38";
paths = (
{
closed = 1;
nodes = (
"538 -15 OFFCURVE",
"680 155 OFFCURVE",
"680 467 CURVE SMOOTH",
"680 749 OFFCURVE",
"562 910 OFFCURVE",
"377 910 CURVE SMOOTH",
"183 910 OFFCURVE",
"38 732 OFFCURVE",
"38 417 CURVE SMOOTH",
"38 137 OFFCURVE",
"154 -15 OFFCURVE",
"341 -15 CURVE SMOOTH"
);
},
{
closed = 1;
nodes = (
"276 233 OFFCURVE",
"225 303 OFFCURVE",
"225 444 CURVE SMOOTH",
"225 568 OFFCURVE",
"278 663 OFFCURVE",
"363 663 CURVE SMOOTH",
"444 663 OFFCURVE",
"493 597 OFFCURVE",
"493 454 CURVE SMOOTH",
"493 339 OFFCURVE",
"442 233 OFFCURVE",
"358 233 CURVE SMOOTH"
);
}
);
width = 718;
}
);
leftKerningGroup = zero;
rightKerningGroup = zero;
unicode = 0030;
},
{
color = 4;
glyphname = one;
lastChange = "2020-04-16 21:20:57 +0000";
layers = (
{
layerId = "051A6F9D-4810-4A2B-9A38-EB5980E546A5";
leftMetricsKey = "=30";
rightMetricsKey = "=20";
paths = (
{
closed = 1;
nodes = (
"520 0 LINE",
"520 213 LINE",
"385 220 LINE",
"45 210 LINE",
"45 0 LINE"
);
},
{
closed = 1;
nodes = (
"163 650 LINE",
"170 565 OFFCURVE",
"171 520 OFFCURVE",
"171 460 CURVE SMOOTH",
"171 270 OFFCURVE",
"171 192 OFFCURVE",
"148 0 CURVE",
"418 0 LINE",
"397 227 OFFCURVE",
"395 342 OFFCURVE",
"395 461 CURVE SMOOTH",
"395 620 OFFCURVE",
"395 718 OFFCURVE",
"405 910 CURVE",
"30 893 LINE",
"30 683 LINE"
);
}
);
width = 540;
}
);
unicode = 0031;
},
{
color = 4;
glyphname = two;
lastChange = "2020-04-16 21:35:25 +0000";
layers = (
{
layerId = "051A6F9D-4810-4A2B-9A38-EB5980E546A5";
leftMetricsKey = "=17";
rightMetricsKey = "=21";
paths = (
{
closed = 1;
nodes = (
"595 0 LINE",
"595 283 LINE",
"476 283 LINE",
"447 218 OFFCURVE",
"378 211 OFFCURVE",
"342 209 CURVE",
"271 209 LINE",
"513 376 OFFCURVE",
"613 495 OFFCURVE",
"611 638 CURVE SMOOTH",
"609 804 OFFCURVE",
"497 911 OFFCURVE",
"324 911 CURVE SMOOTH",
"209 911 OFFCURVE",
"103 863 OFFCURVE",
"41 780 CURVE",
"41 624 LINE",
"231 624 LINE",
"248 641 OFFCURVE",
"274 661 OFFCURVE",
"310 661 CURVE SMOOTH",
"350 661 OFFCURVE",
"384 635 OFFCURVE",
"386 583 CURVE SMOOTH",
"389 500 OFFCURVE",
"277 392 OFFCURVE",
"17 178 CURVE",
"36 0 LINE"
);
}
);
width = 632;
},
{
associatedMasterId = "051A6F9D-4810-4A2B-9A38-EB5980E546A5";
layerId = "F582F435-B870-4F8C-B7DF-15ED0A11A620";
name = "Apr 13 20, 15:31";
paths = (
{
closed = 1;
nodes = (
"577 191 OFFCURVE",
"738 346 OFFCURVE",
"738 568 CURVE SMOOTH",
"738 728 OFFCURVE",
"655 911 OFFCURVE",
"419 911 CURVE SMOOTH",
"214 911 OFFCURVE",
"40 771 OFFCURVE",
"40 528 CURVE SMOOTH",
"40 355 OFFCURVE",
"128 191 OFFCURVE",
"356 191 CURVE SMOOTH"
);
},
{
closed = 1;
nodes = (
"309 443 OFFCURVE",
"251 485 OFFCURVE",
"251 547 CURVE SMOOTH",
"251 608 OFFCURVE",
"307 660 OFFCURVE",
"393 660 CURVE SMOOTH",
"469 660 OFFCURVE",
"527 618 OFFCURVE",
"527 556 CURVE SMOOTH",
"527 495 OFFCURVE",
"471 443 OFFCURVE",
"385 443 CURVE SMOOTH"
);
}
);
visible = 1;
width = 784;
}
);
unicode = 0032;
},
{
color = 4;
glyphname = three;
lastChange = "2020-04-16 21:20:57 +0000";
layers = (
{
layerId = "051A6F9D-4810-4A2B-9A38-EB5980E546A5";
leftMetricsKey = "=0";
rightMetricsKey = "=25";
paths = (
{
closed = 1;
nodes = (
"500 -15 OFFCURVE",
"634 111 OFFCURVE",
"634 278 CURVE SMOOTH",
"634 363 OFFCURVE",
"599 495 OFFCURVE",
"385 519 CURVE",
"349 463 LINE",
"546 495 OFFCURVE",
"603 582 OFFCURVE",
"603 676 CURVE SMOOTH",
"603 798 OFFCURVE",
"503 911 OFFCURVE",
"326 911 CURVE SMOOTH",
"209 911 OFFCURVE",
"95 858 OFFCURVE",
"36 780 CURVE",
"36 624 LINE",
"232 624 LINE",
"250 641 OFFCURVE",
"282 661 OFFCURVE",
"317 661 CURVE SMOOTH",
"356 661 OFFCURVE",
"391 637 OFFCURVE",
"391 598 CURVE SMOOTH",
"391 559 OFFCURVE",
"355 528 OFFCURVE",
"293 530 CURVE SMOOTH",
"215 532 LINE",
"215 365 LINE",
"318 370 LINE",
"371 370 OFFCURVE",
"414 348 OFFCURVE",
"414 302 CURVE SMOOTH",
"414 259 OFFCURVE",
"382 229 OFFCURVE",
"296 227 CURVE SMOOTH",
"212 225 OFFCURVE",
"126 253 OFFCURVE",
"87 282 CURVE",
"0 192 LINE",
"47 72 OFFCURVE",
"156 -15 OFFCURVE",
"312 -15 CURVE SMOOTH"
);
}
);
width = 659;
}
);
unicode = 0033;
},
{
color = 4;
glyphname = four;
lastChange = "2020-04-16 21:20:57 +0000";
layers = (
{
layerId = "051A6F9D-4810-4A2B-9A38-EB5980E546A5";
leftMetricsKey = "=6";
rightMetricsKey = "=19";
paths = (
{
closed = 1;
nodes = (
"592 0 LINE",
"571 217 OFFCURVE",
"569 272 OFFCURVE",
"569 441 CURVE SMOOTH",
"569 620 OFFCURVE",
"569 697 OFFCURVE",
"579 897 CURVE",
"321 917 LINE",
"6 353 LINE",
"47 183 LINE",
"682 183 LINE",
"682 400 LINE",
"188 400 LINE",
"340 681 LINE",
"347 606 OFFCURVE",
"345 520 OFFCURVE",
"345 430 CURVE SMOOTH",
"345 260 OFFCURVE",
"345 182 OFFCURVE",
"322 0 CURVE"
);
}
);
width = 701;
}
);
rightMetricsKey = "=+19";
unicode = 0034;
},
{
color = 4;
glyphname = five;
lastChange = "2020-04-16 21:20:57 +0000";
layers = (
{
associatedMasterId = "051A6F9D-4810-4A2B-9A38-EB5980E546A5";
layerId = "5C4E8C91-258F-480B-B003-A07AD84690BD";
rightMetricsKey = "=8";
name = "Apr 16 20, 14:11";
paths = (
{
closed = 1;
nodes = (
"485 -15 OFFCURVE",
"619 114 OFFCURVE",
"619 317 CURVE SMOOTH",
"619 415 OFFCURVE",
"590 603 OFFCURVE",
"336 603 CURVE SMOOTH",
"275 603 OFFCURVE",
"234 594 OFFCURVE",
"199 588 CURVE",
"222 685 LINE",
"555 685 LINE",
"555 949 LINE",
"443 949 LINE",
"413 912 OFFCURVE",
"368 900 OFFCURVE",
"320 900 CURVE SMOOTH",
"144 900 LINE",
"56 528 LINE",
"147 356 LINE",
"201 365 OFFCURVE",
"247 370 OFFCURVE",
"293 371 CURVE SMOOTH",
"366 373 OFFCURVE",
"419 350 OFFCURVE",
"419 306 CURVE SMOOTH",
"419 262 OFFCURVE",
"378 227 OFFCURVE",
"282 227 CURVE SMOOTH",
"203 227 OFFCURVE",
"131 253 OFFCURVE",
"90 282 CURVE",
"3 192 LINE",
"61 71 OFFCURVE",
"157 -15 OFFCURVE",
"301 -15 CURVE SMOOTH"
);
}
);
width = 627;
},
{
backgroundImage = {
crop = "{{0, 0}, {166, 235}}";
imagePath = "/var/folders/7q/8gwr47v15ll8xhrbwjp78fmc0000gn/T/TemporaryItems/(A Document Being Saved By screencaptureui 10)/Screen Shot 2020-04-16 at 1.49.13 PM.png";
locked = "1";
transform = "{4.90677, 0, 0, 5.25904, -81, -103}";
};
layerId = "051A6F9D-4810-4A2B-9A38-EB5980E546A5";
rightMetricsKey = "=8";
paths = (
{
closed = 1;
nodes = (
"483 -15 OFFCURVE",
"618 114 OFFCURVE",
"618 320 CURVE SMOOTH",
"618 420 OFFCURVE",
"586 605 OFFCURVE",
"343 605 CURVE SMOOTH",
"292 605 OFFCURVE",
"245 596 OFFCURVE",
"210 590 CURVE",
"216 685 LINE",
"554 685 LINE",
"554 941 LINE",
"450 941 LINE",
"420 904 OFFCURVE",
"375 892 OFFCURVE",
"327 892 CURVE SMOOTH",
"123 892 LINE",
"59 418 LINE",
"163 365 LINE",
"185 371 OFFCURVE",
"233 380 OFFCURVE",
"282 380 CURVE SMOOTH",
"366 380 OFFCURVE",
"418 353 OFFCURVE",
"418 304 CURVE SMOOTH",
"418 261 OFFCURVE",
"377 227 OFFCURVE",
"282 227 CURVE SMOOTH",
"200 227 OFFCURVE",
"128 253 OFFCURVE",
"87 282 CURVE",
"0 192 LINE",
"58 71 OFFCURVE",
"154 -15 OFFCURVE",
"301 -15 CURVE SMOOTH"
);
}
);
width = 626;
}
);
unicode = 0035;
},
{
color = 4;
glyphname = six;
lastChange = "2020-04-16 21:20:57 +0000";
layers = (
{
layerId = "051A6F9D-4810-4A2B-9A38-EB5980E546A5";
rightMetricsKey = "=28";
paths = (
{
closed = 1;
nodes = (
"517 -15 OFFCURVE",
"646 127 OFFCURVE",
"646 312 CURVE SMOOTH",
"646 479 OFFCURVE",
"540 597 OFFCURVE",
"409 597 CURVE SMOOTH",
"348 597 OFFCURVE",
"254 571 OFFCURVE",
"214 471 CURVE",
"227 491 LINE",
"228 619 OFFCURVE",
"318 676 OFFCURVE",
"399 676 CURVE SMOOTH",
"460 676 OFFCURVE",
"527 657 OFFCURVE",
"566 631 CURVE",
"643 721 LINE",
"592 845 OFFCURVE",
"497 910 OFFCURVE",
"374 910 CURVE SMOOTH",
"186 910 OFFCURVE",
"38 732 OFFCURVE",
"38 419 CURVE SMOOTH",
"38 143 OFFCURVE",
"153 -15 OFFCURVE",
"340 -15 CURVE SMOOTH"
);
},
{
closed = 1;
nodes = (
"296 234 OFFCURVE",
"245 270 OFFCURVE",
"245 323 CURVE SMOOTH",
"245 376 OFFCURVE",
"295 421 OFFCURVE",
"364 421 CURVE SMOOTH",
"425 421 OFFCURVE",
"474 385 OFFCURVE",
"474 332 CURVE SMOOTH",
"474 279 OFFCURVE",
"426 234 OFFCURVE",
"357 234 CURVE SMOOTH"
);
}
);
width = 674;
}
);
leftKerningGroup = zero;
leftMetricsKey = zero;
unicode = 0036;
},
{
color = 4;
glyphname = seven;
lastChange = "2020-04-16 21:35:23 +0000";
layers = (
{
layerId = "051A6F9D-4810-4A2B-9A38-EB5980E546A5";
leftMetricsKey = "=28";
rightMetricsKey = "=10";
paths = (
{
closed = 1;
nodes = (
"368 -16 OFFCURVE",
"442 28 OFFCURVE",
"442 122 CURVE SMOOTH",
"442 190 OFFCURVE",
"401 252 OFFCURVE",
"403 362 CURVE SMOOTH",
"406 520 OFFCURVE",
"487 610 OFFCURVE",
"626 692 CURVE",
"606 900 LINE",
"28 900 LINE",
"28 626 LINE",
"150 626 LINE",
"180 673 OFFCURVE",
"235 685 OFFCURVE",
"273 685 CURVE SMOOTH",
"464 685 LINE",
"265 601 OFFCURVE",
"143 399 OFFCURVE",
"143 190 CURVE SMOOTH",
"143 64 OFFCURVE",
"190 -16 OFFCURVE",
"298 -16 CURVE SMOOTH"
);
}
);
width = 636;
}
);
unicode = 0037;
},
{
color = 4;
glyphname = eight;
lastChange = "2020-04-16 21:20:57 +0000";
layers = (
{
layerId = "051A6F9D-4810-4A2B-9A38-EB5980E546A5";
leftMetricsKey = "=25";
rightMetricsKey = "=25";
paths = (
{
closed = 1;
nodes = (
"529 -15 OFFCURVE",
"670 115 OFFCURVE",
"670 275 CURVE SMOOTH",
"670 357 OFFCURVE",
"629 498 OFFCURVE",
"432 521 CURVE",
"452 452 LINE",
"605 481 OFFCURVE",
"636 596 OFFCURVE",
"636 666 CURVE SMOOTH",
"636 790 OFFCURVE",
"537 910 OFFCURVE",
"369 910 CURVE SMOOTH",
"191 910 OFFCURVE",
"74 775 OFFCURVE",
"74 648 CURVE SMOOTH",
"74 578 OFFCURVE",
"110 479 OFFCURVE",
"260 452 CURVE",
"263 512 LINE",
"57 459 OFFCURVE",
"25 339 OFFCURVE",
"25 253 CURVE SMOOTH",
"25 95 OFFCURVE",
"147 -15 OFFCURVE",
"330 -15 CURVE SMOOTH"
);
},
{
closed = 1;
nodes = (
"287 233 OFFCURVE",
"241 261 OFFCURVE",
"241 318 CURVE SMOOTH",
"241 375 OFFCURVE",
"287 404 OFFCURVE",
"348 404 CURVE SMOOTH",
"409 404 OFFCURVE",
"454 375 OFFCURVE",
"454 318 CURVE SMOOTH",
"454 261 OFFCURVE",
"409 233 OFFCURVE",
"348 233 CURVE SMOOTH"
);
},
{
closed = 1;
nodes = (
"322 518 OFFCURVE",
"280 534 OFFCURVE",
"280 590 CURVE SMOOTH",
"280 646 OFFCURVE",
"321 665 OFFCURVE",
"356 665 CURVE SMOOTH",
"390 665 OFFCURVE",
"432 646 OFFCURVE",
"432 591 CURVE SMOOTH",
"432 536 OFFCURVE",
"393 518 OFFCURVE",
"357 518 CURVE SMOOTH"
);
}
);
width = 695;
},
{
associatedMasterId = "051A6F9D-4810-4A2B-9A38-EB5980E546A5";
layerId = "AB6C3D14-B7FF-4C53-8616-BC46AFD38F86";
name = "Apr 9 20, 21:50";
paths = (
{
closed = 1;
nodes = (
"580 -15 OFFCURVE",
"722 155 OFFCURVE",
"722 467 CURVE SMOOTH",
"722 749 OFFCURVE",
"604 910 OFFCURVE",
"419 910 CURVE SMOOTH",
"225 910 OFFCURVE",
"80 732 OFFCURVE",
"80 417 CURVE SMOOTH",
"80 137 OFFCURVE",
"196 -15 OFFCURVE",
"383 -15 CURVE SMOOTH"
);
},
{
closed = 1;
nodes = (
"318 233 OFFCURVE",
"262 303 OFFCURVE",
"262 444 CURVE SMOOTH",
"262 568 OFFCURVE",
"320 663 OFFCURVE",
"405 663 CURVE SMOOTH",
"486 663 OFFCURVE",
"540 597 OFFCURVE",
"540 454 CURVE SMOOTH",
"540 339 OFFCURVE",
"484 233 OFFCURVE",
"400 233 CURVE SMOOTH"
);
}
);
visible = 1;
width = 830;
}
);
unicode = 0038;
},
{
color = 4;
glyphname = period;
lastChange = "2020-04-15 22:45:21 +0000";
layers = (
{
layerId = "051A6F9D-4810-4A2B-9A38-EB5980E546A5";
leftMetricsKey = "=37";
rightMetricsKey = "=37";
paths = (
{
closed = 1;
nodes = (
"273 -15 OFFCURVE",
"371 59 OFFCURVE",
"370 152 CURVE SMOOTH",
"369 245 OFFCURVE",
"320 319 OFFCURVE",
"226 319 CURVE SMOOTH",
"135 319 OFFCURVE",
"37 245 OFFCURVE",
"37 152 CURVE SMOOTH",
"37 59 OFFCURVE",
"88 -15 OFFCURVE",
"181 -15 CURVE SMOOTH"
);
}
);
width = 407;
}
);
leftKerningGroup = period;
rightKerningGroup = period;
unicode = 002E;
},
{
color = 4;
glyphname = comma;
lastChange = "2020-04-16 20:45:10 +0000";
layers = (
{
layerId = "051A6F9D-4810-4A2B-9A38-EB5980E546A5";
leftMetricsKey = "=31";
paths = (
{
closed = 1;
nodes = (
"59 -184 OFFCURVE",
"104 -203 OFFCURVE",
"161 -203 CURVE SMOOTH",
"332 -203 OFFCURVE",
"368 -29 OFFCURVE",
"368 80 CURVE SMOOTH",
"368 258 OFFCURVE",
"300 319 OFFCURVE",
"210 319 CURVE SMOOTH",
"140 319 OFFCURVE",
"52 261 OFFCURVE",
"52 162 CURVE SMOOTH",
"52 99 OFFCURVE",
"86 47 OFFCURVE",
"167 30 CURVE",
"31 0 LINE",
"31 -177 LINE"
);
}
);
width = 405;
},
{
associatedMasterId = "051A6F9D-4810-4A2B-9A38-EB5980E546A5";
layerId = "C8B12F52-DA11-4F97-94CF-6798E18265C0";
name = "Apr 9 20, 15:04";
paths = (
{
closed = 1;
nodes = (
"276 -15 OFFCURVE",
"374 59 OFFCURVE",
"373 152 CURVE SMOOTH",
"372 245 OFFCURVE",
"323 319 OFFCURVE",
"229 319 CURVE SMOOTH",
"138 319 OFFCURVE",
"40 245 OFFCURVE",
"40 152 CURVE SMOOTH",
"40 59 OFFCURVE",
"91 -15 OFFCURVE",
"184 -15 CURVE SMOOTH"
);
}
);
visible = 1;
width = 383;
}
);
leftKerningGroup = period;
leftMetricsKey = period;
rightKerningGroup = period;
rightMetricsKey = period;
unicode = 002C;
},
{
color = 4;
glyphname = semicolon;
lastChange = "2020-04-16 21:34:56 +0000";
layers = (
{
components = (
{
name = comma;
transform = "{1, 0, 0, 1, 6, 0}";
}
);
layerId = "051A6F9D-4810-4A2B-9A38-EB5980E546A5";
leftMetricsKey = "=37";
paths = (
{
closed = 1;
nodes = (
"274 397 OFFCURVE",
"364 465 OFFCURVE",
"363 551 CURVE SMOOTH",
"362 637 OFFCURVE",
"317 706 OFFCURVE",
"230 706 CURVE SMOOTH",
"146 706 OFFCURVE",
"56 637 OFFCURVE",
"56 551 CURVE SMOOTH",
"56 465 OFFCURVE",
"103 397 OFFCURVE",
"189 397 CURVE SMOOTH"
);
}
);
width = 415;
}
);
leftKerningGroup = colon;
leftMetricsKey = colon;
rightKerningGroup = colon;
rightMetricsKey = colon;
unicode = 003B;
},
{
color = 4;
glyphname = exclam;
lastChange = "2020-04-16 21:34:03 +0000";
layers = (
{
components = (
{
name = period;
}
);
layerId = "051A6F9D-4810-4A2B-9A38-EB5980E546A5";
leftMetricsKey = "=37";
rightMetricsKey = "=43";
paths = (
{
closed = 1;
nodes = (
"311 900 LINE",
"65 900 LINE",
"82 766 OFFCURVE",
"127 554 OFFCURVE",
"137 366 CURVE",
"278 366 LINE",
"287 520 OFFCURVE",
"321 722 OFFCURVE",
"347 854 CURVE"
);
}
);
width = 413;
}
);
unicode = 0021;
},
{
color = 4;
glyphname = question;
lastChange = "2020-04-15 22:51:58 +0000";
layers = (
{
components = (
{
name = period;
transform = "{1, 0, 0, 1, 74, 0}";
}
);
layerId = "051A6F9D-4810-4A2B-9A38-EB5980E546A5";
leftMetricsKey = "=37";
rightMetricsKey = "=32";
paths = (
{
closed = 1;
nodes = (
"352 366 LINE",
"352 417 LINE",
"535 445 OFFCURVE",
"616 525 OFFCURVE",
"616 648 CURVE SMOOTH",
"616 801 OFFCURVE",
"487 911 OFFCURVE",
"313 911 CURVE SMOOTH",
"204 911 OFFCURVE",
"87 872 OFFCURVE",
"37 828 CURVE",
"37 627 LINE",
"216 627 LINE",
"239 651 OFFCURVE",
"273 665 OFFCURVE",
"302 665 CURVE SMOOTH",
"341 665 OFFCURVE",
"380 641 OFFCURVE",
"380 596 CURVE SMOOTH",
"380 534 OFFCURVE",
"303 496 OFFCURVE",
"205 477 CURVE",
"215 366 LINE"
);
}
);
width = 648;
}
);
unicode = 003F;
},
{
color = 4;
glyphname = asterisk;
lastChange = "2020-04-15 22:53:58 +0000";
layers = (
{
layerId = "051A6F9D-4810-4A2B-9A38-EB5980E546A5";
paths = (
{
closed = 1;
nodes = (
"385 884 LINE",
"366 916 LINE",
"227 923 LINE",
"247 680 LINE",
"324 676 LINE"
);
},
{
closed = 1;
nodes = (
"496 635 LINE",
"524 660 LINE",
"499 798 LINE",
"267 724 LINE",
"280 648 LINE"
);
},
{
closed = 1;
nodes = (
"125 835 LINE",
"90 826 LINE",
"42 695 LINE",
"280 643 LINE",
"306 716 LINE"
);
},
{
closed = 1;
nodes = (
"83 584 LINE",
"78 548 LINE",
"186 458 LINE",
"315 665 LINE",
"257 714 LINE"
);
},
{
closed = 1;
nodes = (
"311 470 LINE",
"344 453 LINE",
"465 523 LINE",
"315 716 LINE",
"249 677 LINE"
);
}
);
width = 566;
},
{
associatedMasterId = "051A6F9D-4810-4A2B-9A38-EB5980E546A5";
layerId = "2141DB5F-3A74-4CD1-8D76-31B6A5C533D7";
name = "Apr 13 20, 08:41";
paths = (
{
closed = 1;
nodes = (
"312 686 LINE",
"332 751 OFFCURVE",
"376 812 OFFCURVE",
"376 834 CURVE SMOOTH",
"376 870 OFFCURVE",
"355 909 OFFCURVE",
"328 909 CURVE SMOOTH",
"295 909 OFFCURVE",
"268 857 OFFCURVE",
"268 835 CURVE SMOOTH",
"268 821 OFFCURVE",
"289 758 OFFCURVE",
"289 688 CURVE",
"232 729 OFFCURVE",
"206 762 OFFCURVE",
"186 782 CURVE SMOOTH",
"170 798 OFFCURVE",
"155 801 OFFCURVE",
"132 801 CURVE SMOOTH",
"107 801 OFFCURVE",
"80 788 OFFCURVE",
"80 763 CURVE SMOOTH",
"80 739 OFFCURVE",
"99 709 OFFCURVE",
"126 694 CURVE SMOOTH",
"146 683 OFFCURVE",
"196 693 OFFCURVE",
"277 668 CURVE",
"227 629 OFFCURVE",
"174 607 OFFCURVE",
"152 596 CURVE SMOOTH",
"130 585 OFFCURVE",
"122 547 OFFCURVE",
"122 526 CURVE SMOOTH",
"122 502 OFFCURVE",
"136 490 OFFCURVE",
"158 490 CURVE SMOOTH",
"180 490 OFFCURVE",
"205 496 OFFCURVE",
"222 515 CURVE SMOOTH",
"230 524 OFFCURVE",
"245 581 OFFCURVE",
"295 650 CURVE",
"315 592 OFFCURVE",
"317 536 OFFCURVE",
"322 515 CURVE SMOOTH",
"329 485 OFFCURVE",
"370 458 OFFCURVE",
"395 458 CURVE SMOOTH",
"417 458 OFFCURVE",
"430 480 OFFCURVE",
"430 507 CURVE SMOOTH",
"430 521 OFFCURVE",
"427 537 OFFCURVE",
"420 553 CURVE SMOOTH",
"415 565 OFFCURVE",
"364 598 OFFCURVE",
"316 663 CURVE",
"386 663 OFFCURVE",
"442 645 OFFCURVE",
"461 645 CURVE SMOOTH",
"491 645 OFFCURVE",
"535 679 OFFCURVE",
"535 707 CURVE SMOOTH",
"535 732 OFFCURVE",
"498 752 OFFCURVE",
"462 752 CURVE SMOOTH",
"431 752 OFFCURVE",
"405 715 OFFCURVE",
"312 686 CURVE"
);
}
);
visible = 1;
width = 600;
}
);
unicode = 002A;
},
{
color = 4;
glyphname = numbersign;
lastChange = "2020-04-15 23:02:43 +0000";
layers = (
{
layerId = "051A6F9D-4810-4A2B-9A38-EB5980E546A5";
paths = (
{
closed = 1;
nodes = (
"413 0 LINE",
"425 111 OFFCURVE",
"460 303 OFFCURVE",
"497 480 CURVE SMOOTH",
"526 617 OFFCURVE",
"573 810 OFFCURVE",
"609 920 CURVE",
"343 919 LINE",
"331 809 OFFCURVE",
"296 617 OFFCURVE",
"267 480 CURVE SMOOTH",
"230 303 OFFCURVE",
"183 111 OFFCURVE",
"147 0 CURVE"
);
},
{
closed = 1;
nodes = (
"813 0 LINE",
"825 111 OFFCURVE",
"860 303 OFFCURVE",
"897 480 CURVE SMOOTH",
"926 617 OFFCURVE",
"973 810 OFFCURVE",
"1009 920 CURVE",
"743 919 LINE",
"731 809 OFFCURVE",
"696 617 OFFCURVE",
"667 480 CURVE SMOOTH",
"630 303 OFFCURVE",
"583 111 OFFCURVE",
"547 0 CURVE"
);
},
{
closed = 1;
nodes = (
"1003 170 LINE",
"1043 361 LINE",
"70 361 LINE",
"30 170 LINE"
);
},
{
closed = 1;
nodes = (
"1084 558 LINE",
"1124 749 LINE",
"151 749 LINE",
"111 558 LINE"
);
}
);
width = 1154;
}
);
unicode = 0023;
},
{
color = 4;
glyphname = slash;
lastChange = "2020-04-16 21:34:27 +0000";
layers = (
{
layerId = "051A6F9D-4810-4A2B-9A38-EB5980E546A5";
paths = (
{
closed = 1;
nodes = (
"245 -156 LINE",
"342 216 OFFCURVE",
"459 598 OFFCURVE",
"596 990 CURVE",
"325 990 LINE",
"228 618 OFFCURVE",
"111 236 OFFCURVE",
"-26 -156 CURVE"
);
}
);
width = 595;
}
);
unicode = 002F;
},
{
color = 4;
glyphname = parenleft;
lastChange = "2020-10-20 19:26:08 +0000";
layers = (
{
layerId = "051A6F9D-4810-4A2B-9A38-EB5980E546A5";
leftMetricsKey = "=61";
rightMetricsKey = "=53";
paths = (
{
closed = 1;
nodes = (
"518 -39 LINE",
"402 -39 OFFCURVE",
"272 35 OFFCURVE",
"272 383 CURVE SMOOTH",
"272 709 OFFCURVE",
"402 783 OFFCURVE",
"518 783 CURVE",
"518 1041 LINE",
"198 1041 OFFCURVE",
"61 813 OFFCURVE",
"61 383 CURVE SMOOTH",
"61 -69 OFFCURVE",
"198 -297 OFFCURVE",
"518 -297 CURVE"
);
}
);
width = 571;
},
{
associatedMasterId = "051A6F9D-4810-4A2B-9A38-EB5980E546A5";
layerId = "F3CA1C9B-63B0-432B-9002-ABBC38793D85";
paths = (
{
closed = 1;
nodes = (
"444 -293 LINE",
"321 -88 OFFCURVE",
"256 135 OFFCURVE",
"256 377 CURVE SMOOTH",
"256 629 OFFCURVE",
"314 833 OFFCURVE",
"444 1047 CURVE",
"213 1047 LINE",
"89 863 OFFCURVE",
"1 674 OFFCURVE",
"1 377 CURVE SMOOTH",
"1 79 OFFCURVE",
"96 -119 OFFCURVE",
"213 -293 CURVE"
);
}
);
visible = 1;
width = 600;
}
);
unicode = 0028;
},
{
color = 6;
glyphname = braceleft;
lastChange = "2020-10-20 19:37:00 +0000";
layers = (
{
layerId = "051A6F9D-4810-4A2B-9A38-EB5980E546A5";
paths = (
{
closed = 1;
nodes = (
"498 -39 LINE",
"397 -39 OFFCURVE",
"255 16 OFFCURVE",
"314 315 CURVE",
"132 364 LINE",
"312 411 LINE",
"256 728 OFFCURVE",
"419 783 OFFCURVE",
"498 783 CURVE",
"498 1041 LINE",
"233 1041 OFFCURVE",
"103 874 OFFCURVE",
"159 537 CURVE",
"95 494 OFFCURVE",
"36 464 OFFCURVE",
"-46 431 CURVE",
"-46 294 LINE",
"38 261 OFFCURVE",
"94 230 OFFCURVE",
"159 186 CURVE",
"109 -141 OFFCURVE",
"243 -297 OFFCURVE",
"498 -297 CURVE"
);
}
);
width = 600;
}
);
unicode = 007B;
},
{
color = 6;
glyphname = bracketleft;
lastChange = "2020-10-20 19:28:57 +0000";
layers = (
{
layerId = "051A6F9D-4810-4A2B-9A38-EB5980E546A5";
paths = (
{
closed = 1;
nodes = (
"215 -292 OFFCURVE",
"366 -292 OFFCURVE",
"518 -296 CURVE",
"518 -38 LINE",
"271 -48 LINE",
"282 236 OFFCURVE",
"282 509 OFFCURVE",
"271 793 CURVE",
"518 783 LINE",
"518 1041 LINE",
"366 1037 OFFCURVE",
"215 1037 OFFCURVE",
"63 1021 CURVE",
"74 595 OFFCURVE",
"74 150 OFFCURVE",
"63 -276 CURVE"
);
}
);
width = 600;
},
{
associatedMasterId = "051A6F9D-4810-4A2B-9A38-EB5980E546A5";
layerId = "393EA7D9-7F7D-4EB7-8FDD-3A1472E0EC71";
name = "Oct 20 20, 12:26";
paths = (
{
closed = 1;
nodes = (
"518 -39 LINE",
"402 -39 OFFCURVE",
"272 35 OFFCURVE",
"272 383 CURVE",
"272 783 LINE",
"518 783 LINE",
"518 1041 LINE",
"61 1041 LINE",
"61 383 LINE",
"61 -69 OFFCURVE",
"198 -297 OFFCURVE",
"518 -297 CURVE"
);
}
);
visible = 1;
width = 600;
}
);
unicode = 005B;
},
{
color = 4;
glyphname = hyphen;
lastChange = "2020-04-16 21:35:28 +0000";
layers = (
{
layerId = "051A6F9D-4810-4A2B-9A38-EB5980E546A5";
paths = (
{
closed = 1;
nodes = (
"517 281 LINE",
"517 498 LINE",
"50 498 LINE",
"50 281 LINE"
);
}
);
width = 567;
}
);
leftKerningGroup = hyphen;
rightKerningGroup = hyphen;
unicode = 002D;
},
{
color = 4;
glyphname = endash;
lastChange = "2020-04-15 21:02:53 +0000";
layers = (
{
layerId = "051A6F9D-4810-4A2B-9A38-EB5980E546A5";
paths = (
{
closed = 1;
nodes = (
"720 281 LINE",
"720 498 LINE",
"50 498 LINE",
"50 281 LINE"
);
}
);
width = 770;
}
);
leftKerningGroup = hyphen;
leftMetricsKey = hyphen;
rightKerningGroup = hyphen;
rightMetricsKey = hyphen;
unicode = 2013;
},
{
color = 4;
glyphname = emdash;
lastChange = "2020-04-15 21:02:53 +0000";
layers = (
{
layerId = "051A6F9D-4810-4A2B-9A38-EB5980E546A5";
paths = (
{
closed = 1;
nodes = (
"1024 281 LINE",
"1024 498 LINE",
"50 498 LINE",
"50 281 LINE"
);
}
);
width = 1074;
}
);
leftKerningGroup = hyphen;
leftMetricsKey = hyphen;
rightKerningGroup = hyphen;
rightMetricsKey = hyphen;
unicode = 2014;
},
{
color = 4;
glyphname = underscore;
lastChange = "2020-04-14 22:52:21 +0000";
layers = (
{
layerId = "051A6F9D-4810-4A2B-9A38-EB5980E546A5";
paths = (
{
closed = 1;
nodes = (
"467 -217 LINE",
"467 0 LINE",
"0 0 LINE",
"0 -217 LINE"
);
}
);
width = 467;
}
);
unicode = 005F;
},
{
color = 6;
glyphname = guilsinglleft;
lastChange = "2020-10-20 19:33:07 +0000";
layers = (
{
layerId = "051A6F9D-4810-4A2B-9A38-EB5980E546A5";
paths = (
{
closed = 1;
nodes = (
"481 286 OFFCURVE",
"384 362 OFFCURVE",
"277 415 CURVE",
"277 318 LINE",
"384 369 OFFCURVE",
"481 439 OFFCURVE",
"546 544 CURVE",
"471 612 LINE",
"339 533 OFFCURVE",
"274 494 OFFCURVE",
"144 441 CURVE",
"144 284 LINE",
"274 231 OFFCURVE",
"339 192 OFFCURVE",
"471 113 CURVE",
"546 181 LINE"
);
}
);
width = 600;
}
);
unicode = 2039;
},
{
color = 4;
glyphname = quotesingle;
lastChange = "2020-04-15 22:36:29 +0000";
layers = (
{
layerId = "051A6F9D-4810-4A2B-9A38-EB5980E546A5";
paths = (
{
closed = 1;
nodes = (
"268 982 LINE",
"238 1028 LINE",
"30 1028 LINE",
"50 638 LINE",
"224 638 LINE"
);
}
);
width = 298;
}
);
leftKerningGroup = quotesingle;
rightKerningGroup = quotesingle;
unicode = 0027;
},
{
color = 4;
glyphname = .notdef;
lastChange = "2020-04-14 22:47:10 +0000";
layers = (
{
layerId = "051A6F9D-4810-4A2B-9A38-EB5980E546A5";
paths = (
{
closed = 1;
nodes = (
"733 0 LINE",
"712 207 OFFCURVE",
"710 342 OFFCURVE",
"710 451 CURVE SMOOTH",
"710 610 OFFCURVE",
"710 728 OFFCURVE",
"733 900 CURVE",
"493 900 LINE",
"514 693 OFFCURVE",
"516 519 OFFCURVE",
"516 450 CURVE SMOOTH",
"516 270 OFFCURVE",
"516 172 OFFCURVE",
"493 0 CURVE"
);
},
{
closed = 1;
nodes = (
"661 0 LINE",
"661 150 LINE",
"116 150 LINE",
"116 0 LINE"
);
},
{
closed = 1;
nodes = (
"279 0 LINE",
"258 207 OFFCURVE",
"256 342 OFFCURVE",
"256 451 CURVE SMOOTH",
"256 610 OFFCURVE",
"256 728 OFFCURVE",
"279 900 CURVE",
"39 900 LINE",
"60 693 OFFCURVE",
"62 539 OFFCURVE",
"62 450 CURVE SMOOTH",
"62 270 OFFCURVE",
"62 172 OFFCURVE",
"39 0 CURVE"
);
},
{
closed = 1;
nodes = (
"661 750 LINE",
"661 900 LINE",
"116 900 LINE",
"116 750 LINE"
);
},
{
closed = 1;
nodes = (
"553 62 LINE",
"642 62 LINE",
"224 838 LINE",
"135 838 LINE"
);
},
{
closed = 1;
nodes = (
"553 838 LINE",
"135 62 LINE",
"224 62 LINE",
"642 838 LINE"
);
}
);
width = 772;
}
);
leftMetricsKey = I;
rightMetricsKey = I;
},
{
color = 4;
glyphname = dollar;
lastChange = "2020-04-14 22:54:08 +0000";
layers = (
{
components = (
{
locked = 1;
name = S;
}
);
layerId = "051A6F9D-4810-4A2B-9A38-EB5980E546A5";
paths = (
{
closed = 1;
nodes = (
"499 1032 LINE",
"469 1078 LINE",
"309 1078 LINE",
"309 833 LINE",
"445 803 LINE"
);
},
{
closed = 1;
nodes = (
"253 -161 LINE",
"283 -207 LINE",
"443 -207 LINE",
"443 38 LINE",
"307 68 LINE"
);
}
);
width = 766;
}
);
leftMetricsKey = S;
rightMetricsKey = S;
unicode = 0024;
},
{
color = 4;
glyphname = plus;
lastChange = "2020-04-14 22:54:08 +0000";
layers = (
{
layerId = "051A6F9D-4810-4A2B-9A38-EB5980E546A5";
paths = (
{
closed = 1;
nodes = (
"587 291 LINE",
"587 488 LINE",
"50 488 LINE",
"50 291 LINE"
);
},
{
closed = 1;
nodes = (
"417 658 LINE",
"220 658 LINE",
"220 121 LINE",
"417 121 LINE"
);
}
);
width = 637;
}
);
leftMetricsKey = hyphen;
rightMetricsKey = hyphen;
unicode = 002B;
},
{
color = 4;
glyphname = minus;
lastChange = "2020-04-15 21:02:59 +0000";
layers = (
{
layerId = "051A6F9D-4810-4A2B-9A38-EB5980E546A5";
paths = (
{
closed = 1;
nodes = (
"587 291 LINE",
"587 488 LINE",
"50 488 LINE",
"50 291 LINE"
);
}
);
width = 637;
}
);
leftKerningGroup = hyphen;
leftMetricsKey = hyphen;
rightKerningGroup = hyphen;
rightMetricsKey = hyphen;
unicode = 2212;
},
{
color = 4;
glyphname = multiply;
lastChange = "2020-04-14 22:54:08 +0000";
layers = (
{
layerId = "051A6F9D-4810-4A2B-9A38-EB5980E546A5";
paths = (
{
closed = 1;
nodes = (
"639 546 LINE",
"500 685 LINE",
"50 235 LINE",
"189 96 LINE"
);
},
{
closed = 1;
nodes = (
"189 685 LINE",
"50 546 LINE",
"500 96 LINE",
"639 235 LINE"
);
}
);
width = 689;
}
);
leftMetricsKey = hyphen;
rightMetricsKey = hyphen;
unicode = 00D7;
},
{
color = 4;
glyphname = at;
lastChange = "2020-04-16 03:36:16 +0000";
layers = (
{
layerId = "051A6F9D-4810-4A2B-9A38-EB5980E546A5";
paths = (
{
closed = 1;
nodes = (
"846 -298 OFFCURVE",
"1019 -231 OFFCURVE",
"1095 -71 CURVE",
"954 15 LINE",
"865 -36 OFFCURVE",
"767 -49 OFFCURVE",
"654 -49 CURVE SMOOTH",
"369 -49 OFFCURVE",
"223 74 OFFCURVE",
"223 334 CURVE SMOOTH",
"223 566 OFFCURVE",
"342 759 OFFCURVE",
"681 759 CURVE SMOOTH",
"940 759 OFFCURVE",
"1123 647 OFFCURVE",
"1118 407 CURVE SMOOTH",
"1116 295 OFFCURVE",
"1072 189 OFFCURVE",
"1013 189 CURVE",
"968 211 LINE",
"966 317 OFFCURVE",
"967 388 OFFCURVE",
"969 439 CURVE",
"969 580 OFFCURVE",
"909 671 OFFCURVE",
"665 671 CURVE SMOOTH",
"601 671 OFFCURVE",
"486 665 OFFCURVE",
"401 643 CURVE",
"401 471 LINE",
"500 471 LINE",
"525 489 OFFCURVE",
"591 502 OFFCURVE",
"646 502 CURVE SMOOTH",
"782 502 OFFCURVE",
"781 421 OFFCURVE",
"781 368 CURVE SMOOTH",
"780 181 LINE",
"777 49 LINE",
"975 49 LINE SMOOTH",
"1190 49 OFFCURVE",
"1288 233 OFFCURVE",
"1291 423 CURVE SMOOTH",
"1294 679 OFFCURVE",
"1125 1006 OFFCURVE",
"705 1006 CURVE SMOOTH",
"324 1006 OFFCURVE",
"50 737 OFFCURVE",
"50 307 CURVE SMOOTH",
"50 -5 OFFCURVE",
"194 -298 OFFCURVE",
"666 -298 CURVE SMOOTH"
);
},
{
closed = 1;
nodes = (
"630 36 OFFCURVE",
"742 55 OFFCURVE",
"792 207 CURVE",
"785 314 LINE",
"755 275 OFFCURVE",
"696 258 OFFCURVE",
"646 258 CURVE SMOOTH",
"621 258 OFFCURVE",
"549 263 OFFCURVE",
"549 310 CURVE SMOOTH",
"549 351 OFFCURVE",
"602 364 OFFCURVE",
"651 364 CURVE SMOOTH",
"694 364 OFFCURVE",
"753 353 OFFCURVE",
"790 317 CURVE",
"797 393 LINE",
"757 428 OFFCURVE",
"693 440 OFFCURVE",
"638 440 CURVE SMOOTH",
"526 440 OFFCURVE",
"351 395 OFFCURVE",
"351 219 CURVE SMOOTH",
"351 100 OFFCURVE",
"431 36 OFFCURVE",
"559 36 CURVE SMOOTH"
);
}
);
width = 1341;
}
);
unicode = 0040;
},
{
color = 4;
glyphname = ampersand;
lastChange = "2020-04-16 21:21:52 +0000";
layers = (
{
associatedMasterId = "051A6F9D-4810-4A2B-9A38-EB5980E546A5";
layerId = "6A4CD7D1-1599-4BF6-B5D8-F3B403345261";
name = "Apr 9 20, 16:14";
paths = (
{
closed = 1;
nodes = (
"643 122 LINE",
"640 360 OFFCURVE",
"640 449 OFFCURVE",
"640 637 CURVE",
"465 610 LINE",
"435 511 LINE",
"434 409 OFFCURVE",
"432 324 OFFCURVE",
"427 202 CURVE"
);
},
{
closed = 1;
nodes = (
"222 471 LINE",
"15 448 OFFCURVE",
"-21 327 OFFCURVE",
"-21 248 CURVE SMOOTH",
"-21 84 OFFCURVE",
"107 -15 OFFCURVE",
"298 -15 CURVE SMOOTH",
"501 -15 OFFCURVE",
"594 62 OFFCURVE",
"643 122 CURVE",
"548 316 LINE",
"494 244 OFFCURVE",
"422 224 OFFCURVE",
"336 224 CURVE SMOOTH",
"249 224 OFFCURVE",
"200 253 OFFCURVE",
"200 306 CURVE SMOOTH",
"200 364 OFFCURVE",
"240 389 OFFCURVE",
"313 389 CURVE"
);
}
);
width = 600;
},
{
layerId = "051A6F9D-4810-4A2B-9A38-EB5980E546A5";
paths = (
{
closed = 1;
nodes = (
"798 57 LINE",
"323 515 LINE SMOOTH",
"299 538 OFFCURVE",
"271 563 OFFCURVE",
"271 604 CURVE SMOOTH",
"271 659 OFFCURVE",
"319 684 OFFCURVE",
"372 684 CURVE SMOOTH",
"412 684 OFFCURVE",
"446 670 OFFCURVE",
"473 647 CURVE",
"652 647 LINE",
"652 828 LINE",
"593 876 OFFCURVE",
"493 910 OFFCURVE",
"392 910 CURVE SMOOTH",
"224 910 OFFCURVE",
"92 815 OFFCURVE",
"92 656 CURVE SMOOTH",
"92 537 OFFCURVE",
"169 478 OFFCURVE",
"224 424 CURVE SMOOTH",
"704 -39 LINE"
);
},
{
closed = 1;
nodes = (
"563 -15 OFFCURVE",
"736 73 OFFCURVE",
"736 258 CURVE SMOOTH",
"736 309 OFFCURVE",
"723 367 OFFCURVE",
"672 402 CURVE",
"767 407 LINE",
"767 595 LINE",
"473 595 LINE",
"473 406 LINE",
"521 404 LINE SMOOTH",
"553 403 OFFCURVE",
"596 370 OFFCURVE",
"596 317 CURVE SMOOTH",
"596 255 OFFCURVE",
"509 214 OFFCURVE",
"389 214 CURVE SMOOTH",
"292 214 OFFCURVE",
"241 241 OFFCURVE",
"241 298 CURVE SMOOTH",
"241 364 OFFCURVE",
"291 389 OFFCURVE",
"364 389 CURVE",
"303 471 LINE",
"65 447 OFFCURVE",
"30 319 OFFCURVE",
"30 235 CURVE SMOOTH",
"30 83 OFFCURVE",
"145 -15 OFFCURVE",
"360 -15 CURVE SMOOTH"
);
}
);
width = 813;
},
{
associatedMasterId = "051A6F9D-4810-4A2B-9A38-EB5980E546A5";
layerId = "CA9646EA-CA89-4E81-ADB0-207C181597DF";
name = "Apr 9 20, 21:14";
paths = (
{
closed = 1;
nodes = (
"786 77 LINE",
"323 515 LINE SMOOTH",
"298 539 OFFCURVE",
"271 563 OFFCURVE",
"271 604 CURVE SMOOTH",
"271 659 OFFCURVE",
"319 684 OFFCURVE",
"372 684 CURVE SMOOTH",
"412 684 OFFCURVE",
"446 670 OFFCURVE",
"473 647 CURVE",
"652 647 LINE",
"652 828 LINE",
"593 876 OFFCURVE",
"494 910 OFFCURVE",
"390 910 CURVE SMOOTH",
"214 910 OFFCURVE",
"82 813 OFFCURVE",
"82 659 CURVE SMOOTH",
"82 540 OFFCURVE",
"161 484 OFFCURVE",
"224 424 CURVE SMOOTH",
"690 -16 LINE"
);
},
{
closed = 1;
nodes = (
"562 -15 OFFCURVE",
"743 73 OFFCURVE",
"735 278 CURVE SMOOTH",
"731 384 OFFCURVE",
"680 446 OFFCURVE",
"621 480 CURVE",
"556 461 LINE",
"572 439 OFFCURVE",
"596 400 OFFCURVE",
"596 353 CURVE SMOOTH",
"596 267 OFFCURVE",
"509 224 OFFCURVE",
"392 224 CURVE SMOOTH",
"300 224 OFFCURVE",
"251 251 OFFCURVE",
"251 310 CURVE SMOOTH",
"251 363 OFFCURVE",
"291 389 OFFCURVE",
"364 389 CURVE",
"273 471 LINE",
"65 447 OFFCURVE",
"30 329 OFFCURVE",
"30 244 CURVE SMOOTH",
"30 84 OFFCURVE",
"154 -15 OFFCURVE",
"364 -15 CURVE SMOOTH"
);
},
{
closed = 1;
nodes = (
"687 393 LINE",
"798 398 LINE",
"798 586 LINE",
"487 586 LINE",
"487 397 LINE",
"600 393 LINE"
);
}
);
visible = 1;
width = 826;
}
);
unicode = 0026;
},
{
color = 4;
glyphname = dieresis;
lastChange = "2020-10-20 16:39:04 +0000";
layers = (
{
anchors = (
{
name = _top;
position = "{306, 690}";
}
);
layerId = "051A6F9D-4810-4A2B-9A38-EB5980E546A5";
paths = (
{
closed = 1;
nodes = (
"237 757 OFFCURVE",
"314 815 OFFCURVE",
"314 889 CURVE SMOOTH",
"314 963 OFFCURVE",
"274 1021 OFFCURVE",
"200 1021 CURVE SMOOTH",
"127 1021 OFFCURVE",
"50 963 OFFCURVE",
"50 889 CURVE SMOOTH",
"50 815 OFFCURVE",
"91 757 OFFCURVE",
"164 757 CURVE SMOOTH"
);
},
{
closed = 1;
nodes = (
"485 757 OFFCURVE",
"562 815 OFFCURVE",
"562 889 CURVE SMOOTH",
"562 963 OFFCURVE",
"521 1021 OFFCURVE",
"448 1021 CURVE SMOOTH",
"375 1021 OFFCURVE",
"298 963 OFFCURVE",
"298 889 CURVE SMOOTH",
"298 815 OFFCURVE",
"339 757 OFFCURVE",
"412 757 CURVE SMOOTH"
);
}
);
width = 612;
}
);
unicode = 00A8;
},
{
color = 4;
glyphname = dotaccent;
lastChange = "2020-10-20 16:35:32 +0000";
layers = (
{
anchors = (
{
name = _top;
position = "{204, 690}";
}
);
layerId = "051A6F9D-4810-4A2B-9A38-EB5980E546A5";
paths = (
{
closed = 1;
nodes = (
"268 734 OFFCURVE",
"358 802 OFFCURVE",
"358 888 CURVE SMOOTH",
"358 974 OFFCURVE",
"311 1042 OFFCURVE",
"225 1042 CURVE SMOOTH",
"140 1042 OFFCURVE",
"50 974 OFFCURVE",
"50 888 CURVE SMOOTH",
"50 802 OFFCURVE",
"97 734 OFFCURVE",
"183 734 CURVE SMOOTH"
);
}
);
width = 408;
}
);
unicode = 02D9;
},
{
color = 4;
glyphname = grave;
lastChange = "2020-10-20 16:40:25 +0000";
layers = (
{
anchors = (
{
name = _top;
position = "{249, 690}";
}
);
layerId = "051A6F9D-4810-4A2B-9A38-EB5980E546A5";
paths = (
{
closed = 1;
nodes = (
"409 811 LINE",
"338 883 OFFCURVE",
"294 942 OFFCURVE",
"268 1028 CURVE",
"80 1028 LINE",
"50 979 LINE",
"100 836 OFFCURVE",
"186 772 OFFCURVE",
"341 736 CURVE"
);
}
);
width = 459;
}
);
unicode = 0060;
},
{
color = 4;
glyphname = acute;
lastChange = "2020-10-20 16:35:43 +0000";
layers = (
{
anchors = (
{
name = _top;
position = "{220, 690}";
}
);
layerId = "051A6F9D-4810-4A2B-9A38-EB5980E546A5";
paths = (
{
closed = 1;
nodes = (
"283 772 OFFCURVE",
"369 836 OFFCURVE",
"419 979 CURVE",
"389 1028 LINE",
"201 1028 LINE",
"175 942 OFFCURVE",
"131 883 OFFCURVE",
"60 811 CURVE",
"128 736 LINE"
);
}
);
width = 479;
}
);
unicode = 00B4;
},
{
color = 4;
glyphname = circumflex;
lastChange = "2020-10-20 18:58:55 +0000";
layers = (
{
anchors = (
{
name = _top;
position = "{300, 690}";
}
);
layerId = "051A6F9D-4810-4A2B-9A38-EB5980E546A5";
paths = (
{
closed = 1;
nodes = (
"223 771 OFFCURVE",
"296 818 OFFCURVE",
"349 905 CURVE",
"252 905 LINE",
"303 818 OFFCURVE",
"376 771 OFFCURVE",
"481 736 CURVE",
"549 811 LINE",
"468 893 OFFCURVE",
"424 952 OFFCURVE",
"378 1028 CURVE",
"221 1028 LINE",
"175 952 OFFCURVE",
"131 893 OFFCURVE",
"50 811 CURVE",
"118 736 LINE"
);
}
);
width = 599;
}
);
unicode = 02C6;
},
{
color = 4;
glyphname = caron;
lastChange = "2020-10-20 19:00:45 +0000";
layers = (
{
anchors = (
{
name = _top;
position = "{300, 690}";
}
);
layerId = "051A6F9D-4810-4A2B-9A38-EB5980E546A5";
paths = (
{
closed = 1;
nodes = (
"368 749 LINE",
"414 825 OFFCURVE",
"468 884 OFFCURVE",
"549 966 CURVE",
"481 1041 LINE",
"376 1006 OFFCURVE",
"303 959 OFFCURVE",
"252 872 CURVE",
"349 872 LINE",
"296 959 OFFCURVE",
"223 1006 OFFCURVE",
"118 1041 CURVE",
"50 966 LINE",
"131 884 OFFCURVE",
"185 825 OFFCURVE",
"231 749 CURVE"
);
}
);
width = 599;
}
);
unicode = 02C7;
},
{
color = 4;
glyphname = ring;
lastChange = "2020-10-20 19:06:10 +0000";
layers = (
{
anchors = (
{
name = _top;
position = "{204, 690}";
}
);
layerId = "051A6F9D-4810-4A2B-9A38-EB5980E546A5";
paths = (
{
closed = 1;
nodes = (
"262 734 OFFCURVE",
"358 793 OFFCURVE",
"358 897 CURVE SMOOTH",
"358 968 OFFCURVE",
"313 1042 OFFCURVE",
"225 1042 CURVE SMOOTH",
"146 1042 OFFCURVE",
"50 983 OFFCURVE",
"50 879 CURVE SMOOTH",
"50 808 OFFCURVE",
"95 734 OFFCURVE",
"183 734 CURVE SMOOTH"
);
},
{
closed = 1;
nodes = (
"180 842 OFFCURVE",
"162 853 OFFCURVE",
"160 882 CURVE SMOOTH",
"158 907 OFFCURVE",
"171 931 OFFCURVE",
"204 933 CURVE SMOOTH",
"227 934 OFFCURVE",
"246 925 OFFCURVE",
"248 894 CURVE SMOOTH",
"250 865 OFFCURVE",
"235 845 OFFCURVE",
"204 843 CURVE SMOOTH"
);
}
);
width = 408;
}
);
unicode = 02DA;
},
{
color = 4;
glyphname = tilde;
lastChange = "2020-10-20 19:51:15 +0000";
layers = (
{
anchors = (
{
name = _top;
position = "{285, 690}";
}
);
layerId = "051A6F9D-4810-4A2B-9A38-EB5980E546A5";
paths = (
{
closed = 1;
nodes = (
"113 776 LINE",
"172 838 LINE",
"278 790 LINE SMOOTH",
"307 777 OFFCURVE",
"340 771 OFFCURVE",
"364 771 CURVE SMOOTH",
"482 771 OFFCURVE",
"527 931 OFFCURVE",
"520 1013 CURVE",
"458 1013 LINE",
"399 951 LINE",
"293 1000 LINE SMOOTH",
"264 1013 OFFCURVE",
"232 1018 OFFCURVE",
"208 1018 CURVE SMOOTH",
"99 1018 OFFCURVE",
"43 869 OFFCURVE",
"51 776 CURVE"
);
}
);
width = 571;
}
);
unicode = 02DC;
},
{
color = 4;
glyphname = cedilla;
lastChange = "2020-10-20 19:10:47 +0000";
layers = (
{
anchors = (
{
name = _bottom;
position = "{188, 0}";
}
);
layerId = "051A6F9D-4810-4A2B-9A38-EB5980E546A5";
paths = (
{
closed = 1;
nodes = (
"104 -100 LINE SMOOTH",
"118 -100 OFFCURVE",
"149 -100 OFFCURVE",
"149 -133 CURVE SMOOTH",
"149 -159 OFFCURVE",
"129 -171 OFFCURVE",
"95 -171 CURVE SMOOTH",
"50 -171 LINE",
"50 -249 LINE",
"74 -272 OFFCURVE",
"122 -295 OFFCURVE",
"189 -295 CURVE SMOOTH",
"277 -295 OFFCURVE",
"347 -255 OFFCURVE",
"347 -170 CURVE SMOOTH",
"347 -78 OFFCURVE",
"261 -52 OFFCURVE",
"205 -48 CURVE",
"231 28 LINE",
"165 28 LINE",
"90 -69 LINE",
"90 -100 LINE"
);
}
);
width = 397;
}
);
unicode = 00B8;
},
{
color = 4;
glyphname = ogonek;
lastChange = "2020-10-20 16:35:32 +0000";
layers = (
{
anchors = (
{
name = _ogonek;
position = "{393, 0}";
}
);
layerId = "051A6F9D-4810-4A2B-9A38-EB5980E546A5";
paths = (
{
closed = 1;
nodes = (
"299 -295 OFFCURVE",
"362 -277 OFFCURVE",
"393 -249 CURVE",
"393 -91 LINE",
"338 -91 LINE",
"300 -91 OFFCURVE",
"274 -75 OFFCURVE",
"274 -45 CURVE SMOOTH",
"274 -18 OFFCURVE",
"300 0 OFFCURVE",
"338 0 CURVE",
"393 0 LINE",
"361 22 LINE",
"252 24 OFFCURVE",
"76 -30 OFFCURVE",
"76 -165 CURVE SMOOTH",
"76 -243 OFFCURVE",
"140 -295 OFFCURVE",
"236 -295 CURVE SMOOTH"
);
}
);
width = 443;
}
);
unicode = 02DB;
},
